<svg xmlns="http://www.w3.org/2000/svg" viewBox="0 0 494.87 328.72"><g id="a"></g><g id="b"><g id="c"><g><path d="M494.87,25.03V303.69c0,13.83-11.2,25.03-25.03,25.03H25.68c-6.91,0-13.18-2.81-17.7-7.33-.86-.86-1.64-1.77-2.37-2.73-.39-.52-.75-1.04-1.09-1.59-.31-.47-.6-.96-.86-1.46-.57-1.07-1.09-2.16-1.51-3.33-.29-.75-.52-1.53-.73-2.34-.21-.81-.36-1.61-.49-2.44-.18-1.25-.29-2.52-.29-3.82V25.03C.65,11.2,11.85,0,25.68,0H469.84c3.02,0,5.93,.52,8.6,1.51,.6,.23,1.14,.47,1.72,.73,.55,.21,1.09,.49,1.61,.78,.57,.31,1.14,.65,1.69,1.01,.36,.21,.7,.44,1.04,.7,.21,.16,.42,.31,.62,.49,.34,.26,.68,.52,1.01,.81,.49,.42,.96,.86,1.4,1.3,4.52,4.52,7.33,10.79,7.33,17.7Z" style="fill:#92e2f5;"></path><g><path d="M191.04,90.44c37.7,0,75.4,0,113.11,0,.23,.05,.45,.11,.69,.14,1.08,.14,2.17,.21,3.24,.42,6.37,1.26,11.83,4.2,16.25,8.97,5.23,5.65,8.06,12.32,8.06,20.06,.02,35.46,0,70.93,0,106.39,0,1.46-.08,2.92-.32,4.36-1.06,6.45-3.89,12.01-8.54,16.57-5.93,5.82-13.14,8.69-21.44,8.7-36.29,.02-72.57,0-108.86,.01-1.92,0-3.82-.16-5.71-.49-6.27-1.09-11.67-3.9-16.13-8.41-5.08-5.13-7.97-11.33-8.61-18.54-.05-.55-.19-1.08-.29-1.62V119.48c.06-.25,.14-.5,.17-.76,.19-1.34,.31-2.69,.57-4.02,1.27-6.43,4.32-11.89,9.15-16.31,4.6-4.23,10.03-6.78,16.24-7.63,.81-.11,1.62-.21,2.43-.31Zm25.13,93.3c.41,0,.68,0,.94,0,1.22,.05,2.44,.13,3.66,.14,3.64,.05,7.28-.07,10.88-.63,3.21-.5,6.36-1.28,9.28-2.74,6.2-3.1,10.51-7.84,12.36-14.63,.89-3.28,1.17-6.64,.91-10.03-.28-3.76-1.25-7.32-3.13-10.61-2.71-4.73-6.75-7.91-11.74-9.98-4.74-1.96-9.73-2.61-14.8-2.66-3.56-.03-7.12,.06-10.68,.14-3.85,.08-7.7,.2-11.55,.29-1.37,.03-1.38,.01-1.38,1.37,0,23.85,0,47.69,0,71.54,0,1.43,.1,1.53,1.54,1.53,4.01,0,8.03,0,12.04,0,1.5,0,1.66-.16,1.66-1.63,0-6.99,0-13.98,0-20.97v-1.13Zm83.91-24.18c0-1.54,0-3.08,0-4.63,0-.43,.02-.85-.02-1.28-.05-.66-.36-1.15-1.04-1.35-1.37-.4-2.72-.9-4.12-1.21-2.42-.53-4.88-.7-7.35-.86-3.06-.19-6.1-.11-9.14,.35-3.38,.52-6.51,1.7-9.33,3.67-5.73,4.03-7.95,10.8-6.62,17.03,.8,3.73,2.94,6.62,5.87,8.95,2.32,1.84,4.93,3.24,7.64,4.42,2.56,1.11,5.16,2.11,7.72,3.21,1.2,.51,2.31,1.19,3.21,2.17,1.77,1.95,.6,4.47-1.09,5.11-.84,.32-1.7,.62-2.58,.75-2.51,.39-5.04,.32-7.55-.03-4.48-.62-8.77-1.87-12.71-4.15-.66-.38-.94-.22-1.02,.54-.01,.13,0,.27,0,.4,0,3.83,.01,7.66-.01,11.49,0,.86,.32,1.43,1.1,1.74,.99,.39,1.96,.82,2.97,1.14,3.8,1.21,7.72,1.69,11.68,1.87,3.06,.14,6.11-.05,9.12-.6,2.84-.52,5.57-1.4,8.05-2.9,6.45-3.92,8.96-10.45,7.91-17.3-.68-4.43-3.17-7.71-6.85-10.11-2.58-1.69-5.33-3.1-8.21-4.21-2.45-.95-4.91-1.87-7.25-3.07-.9-.46-1.77-.98-2.51-1.68-.51-.49-.91-1.04-1.11-1.72-.48-1.62,.51-3.39,2.25-3.95,1.35-.43,2.74-.65,4.15-.66,3.26,0,6.46,.44,9.62,1.21,1.92,.47,3.74,1.18,5.51,2.05,1.08,.53,1.7,.12,1.71-1.05,0-1.78,0-3.56,0-5.34Z" style="fill:#173c56;"></path><path d="M216.17,183.74v1.13c0,6.99,0,13.98,0,20.97,0,1.47-.16,1.63-1.66,1.63-4.01,0-8.03,0-12.04,0-1.44,0-1.54-.1-1.54-1.53,0-23.85,0-47.69,0-71.54,0-1.35,0-1.33,1.38-1.37,3.85-.09,7.7-.21,11.55-.29,3.56-.07,7.12-.17,10.68-.14,5.08,.05,10.06,.7,14.8,2.66,4.98,2.06,9.03,5.24,11.74,9.98,1.88,3.28,2.85,6.84,3.13,10.61,.25,3.4-.02,6.75-.91,10.03-1.85,6.78-6.16,11.52-12.36,14.63-2.92,1.46-6.07,2.24-9.28,2.74-3.61,.56-7.24,.69-10.88,.63-1.22-.02-2.44-.1-3.66-.14-.26-.01-.52,0-.94,0Zm.1-37.15v23.82c.39,.05,.75,.12,1.12,.13,1.7,.02,3.4,.01,5.1,.04,2.16,.04,4.29-.18,6.39-.68,1.83-.44,3.64-.96,5.24-2.03,2-1.34,3.59-2.99,4.29-5.36,.66-2.25,.8-4.56,.35-6.86-.74-3.81-2.94-6.45-6.58-7.87-2.4-.94-4.9-1.35-7.47-1.37-2.23-.01-4.46,.02-6.69,.05-.55,0-1.11,.07-1.75,.12Z" style="fill:#92e2f5;"></path><path d="M300.08,159.57c0,1.78,0,3.56,0,5.34,0,1.17-.63,1.58-1.71,1.05-1.77-.88-3.59-1.59-5.51-2.05-3.16-.77-6.36-1.22-9.62-1.21-1.42,0-2.81,.23-4.15,.66-1.74,.56-2.73,2.33-2.25,3.95,.2,.68,.6,1.24,1.11,1.72,.74,.7,1.6,1.22,2.51,1.68,2.35,1.2,4.8,2.12,7.25,3.07,2.88,1.11,5.63,2.52,8.21,4.21,3.68,2.41,6.17,5.69,6.85,10.11,1.05,6.85-1.46,13.39-7.91,17.3-2.48,1.51-5.21,2.38-8.05,2.9-3.02,.56-6.06,.75-9.12,.6-3.96-.18-7.88-.67-11.68-1.87-1.01-.32-1.98-.75-2.97-1.14-.78-.31-1.11-.89-1.1-1.74,.02-3.83,.01-7.66,.01-11.49,0-.13,0-.27,0-.4,.08-.76,.37-.92,1.02-.54,3.94,2.29,8.23,3.53,12.71,4.15,2.51,.35,5.04,.42,7.55,.03,.88-.14,1.75-.44,2.58-.75,1.69-.64,2.86-3.16,1.09-5.11-.9-.98-2.01-1.66-3.21-2.17-2.56-1.09-5.17-2.1-7.72-3.21-2.71-1.18-5.31-2.58-7.64-4.42-2.93-2.32-5.07-5.22-5.87-8.95-1.33-6.23,.89-13,6.62-17.03,2.81-1.98,5.94-3.15,9.33-3.67,3.03-.47,6.07-.55,9.14-.35,2.47,.16,4.93,.33,7.35,.86,1.39,.3,2.74,.81,4.12,1.21,.68,.2,.99,.68,1.04,1.35,.03,.42,.02,.85,.02,1.28,0,1.54,0,3.08,0,4.63Z" style="fill:#92e2f5;"></path><path d="M216.26,146.59c.64-.05,1.19-.11,1.75-.12,2.23-.03,4.46-.06,6.69-.05,2.57,.01,5.07,.43,7.47,1.37,3.64,1.42,5.85,4.05,6.58,7.87,.44,2.3,.31,4.61-.35,6.86-.69,2.36-2.29,4.02-4.29,5.36-1.6,1.07-3.4,1.59-5.24,2.03-2.1,.5-4.23,.72-6.39,.68-1.7-.03-3.4-.02-5.1-.04-.36,0-.72-.08-1.12-.13v-23.82Z" style="fill:#173c56;"></path></g><line y1="39.37" x2="494.87" y2="39.37" style="fill:none; stroke:#2c6771; stroke-linejoin:round; stroke-width:7.03px;"></line><circle cx="40.14" cy="20.44" r="7.16" style="fill:#2c6771;"></circle><circle cx="64.68" cy="20.44" r="7.16" style="fill:#2c6771;"></circle><circle cx="89.21" cy="20.44" r="7.16" style="fill:#2c6771;"></circle><path d="M487.54,7.33s-18.33,12.3-47.83,32.02c-26.75,17.88-62.64,41.85-102.39,68.31-32.21,21.44-66.91,44.53-101.3,67.3-3.98,2.63-7.9,5.25-11.85,7.82,0,.03-.03,.03-.03,.03v.03c-27.84,18.4-55.24,36.47-80.71,53.16C67.92,285.52,9.54,322.95,7.98,321.39c-.86-.86-1.64-1.77-2.37-2.73-.39-.52-.75-1.04-1.09-1.59-.31-.47-.6-.96-.86-1.46-.57-1.07-1.09-2.16-1.51-3.33-.29-.75-.52-1.53-.73-2.34-.21-.81-.36-1.61-.49-2.44-.18-1.25-.29-2.52-.29-3.82V25.03C.65,11.2,11.85,0,25.68,0H469.84c3.02,0,5.93,.52,8.6,1.51,.6,.21,1.17,.44,1.72,.73,.55,.21,1.09,.49,1.61,.78,.57,.31,1.14,.65,1.69,1.01,.36,.21,.7,.44,1.04,.7,.21,.16,.42,.31,.62,.49,.34,.26,.68,.52,1.01,.81,.49,.42,.96,.86,1.4,1.3Z" style="fill:#fff; opacity:.25;"></path><polygon points="236.85 0 177.74 39.36 .65 157.29 .65 125.39 129.84 39.36 188.92 0 236.85 0" style="fill:#fff; opacity:.5;"></polygon><polygon points="350.16 0 291.08 39.36 229.68 80.24 165.34 123.11 .65 232.78 .65 177.69 208.39 39.36 267.47 0 350.16 0" style="fill:#fff; opacity:.5;"></polygon></g></g></g></svg>