<svg xmlns="http://www.w3.org/2000/svg" viewBox="0 0 563.19 458.31"><g id="a"></g><g id="b"><g id="c"><g><path d="M389.88,259.46c0,24.49-7.95,47.1-21.44,65.4-13.49,18.33-32.49,32.31-54.56,39.54v93.92h-68.88v-93.92c-41.77-13.67-72.55-51.57-75.75-97.09-.18-2.6-.29-5.2-.29-7.85,0-61.01,49.47-110.47,110.47-110.47,34.78,0,65.79,16.06,86.01,41.2,15.28,18.95,24.43,43.02,24.43,69.27Z" style="fill:#173c56;"></path><path d="M279.43,105.55c-1.94,0-3.51-1.57-3.51-3.51V3.51c0-1.94,1.57-3.51,3.51-3.51s3.51,1.57,3.51,3.51V102.03c0,1.94-1.57,3.51-3.51,3.51Z" style="fill:#92e2f5;"></path><path d="M361.95,120.73c-.42,0-.84-.07-1.25-.23-1.81-.69-2.72-2.72-2.03-4.54l35.05-92.07c.69-1.81,2.72-2.73,4.54-2.03,1.81,.69,2.72,2.72,2.03,4.54l-35.05,92.07c-.53,1.4-1.87,2.26-3.29,2.26Z" style="fill:#92e2f5;"></path><path d="M201.93,118.88c-1.45,0-2.8-.9-3.31-2.34L165.7,23.68c-.65-1.83,.31-3.84,2.14-4.49,1.83-.65,3.84,.31,4.49,2.14l32.92,92.86c.65,1.83-.31,3.84-2.14,4.49-.39,.14-.78,.2-1.17,.2Z" style="fill:#92e2f5;"></path><path d="M106.13,234.12c-.46,0-.92-.09-1.37-.28L14.05,195.38c-1.79-.76-2.62-2.82-1.86-4.61,.76-1.79,2.82-2.62,4.61-1.86l90.7,38.46c1.79,.76,2.62,2.82,1.86,4.61-.57,1.34-1.87,2.14-3.24,2.14Z" style="fill:#92e2f5;"></path><path d="M451.25,234.98c-1.34,0-2.63-.78-3.21-2.08-.79-1.77,0-3.85,1.78-4.64l89.96-40.17c1.77-.79,3.85,0,4.64,1.78,.79,1.77,0,3.85-1.78,4.64l-89.96,40.17c-.47,.21-.95,.31-1.43,.31Z" style="fill:#92e2f5;"></path><path d="M559.67,307.16h-98.52c-1.94,0-3.51-1.57-3.51-3.51s1.57-3.51,3.51-3.51h98.52c1.94,0,3.51,1.57,3.51,3.51s-1.57,3.51-3.51,3.51Z" style="fill:#92e2f5;"></path><path d="M102.03,307.16H3.51c-1.94,0-3.51-1.57-3.51-3.51s1.57-3.51,3.51-3.51H102.03c1.94,0,3.51,1.57,3.51,3.51s-1.57,3.51-3.51,3.51Z" style="fill:#92e2f5;"></path><path d="M421.99,164.6c-.9,0-1.8-.34-2.49-1.03-1.37-1.37-1.37-3.6,0-4.97l69.66-69.66c1.37-1.37,3.6-1.37,4.97,0,1.37,1.37,1.37,3.6,0,4.97l-69.66,69.66c-.69,.69-1.59,1.03-2.49,1.03Z" style="fill:#92e2f5;"></path><path d="M136.87,164.6c-.9,0-1.8-.34-2.49-1.03L64.72,93.91c-1.37-1.37-1.37-3.6,0-4.97,1.37-1.37,3.6-1.37,4.97,0l69.66,69.66c1.37,1.37,1.37,3.6,0,4.97-.69,.69-1.59,1.03-2.49,1.03Z" style="fill:#92e2f5;"></path><path d="M270.55,454.8l-3.29-.21c2.48-39.78-.73-79.48-9.79-121.39-1.34-6.2-2.89-12.64-4.85-19.07-15.15-.57-30.16-8.66-38.61-21.23-3.43-5.1-5.01-9.76-4.84-14.25,.2-5.03,3.35-10.88,9.01-12.34,5.05-1.3,10.65,1.12,16.19,6.99,10.06,10.66,16.33,24,20.69,37.56,.97-.02,1.93-.07,2.9-.15,6.26-.56,12.38-2.58,17.89-5.71-7.88-7.44-13.23-17.58-14.22-28.48-.64-7.02,.54-13.39,3.42-18.42,3.48-6.07,9.52-10.03,15.77-10.34,8.02-.4,16.05,5.44,19.07,13.89,2.49,6.97,1.84,15.41-1.83,23.77-3.52,8.01-9.46,14.94-16.71,19.98,5.14,3.98,11.17,6.79,17.62,7.96,5.44-14.5,12.67-26.96,21.57-37.18,2.64-3.03,5.91-6.39,10.08-8.32,4.68-2.16,9.86-2,13.54,.4,6.86,4.49,6.56,14.5,3.38,21.89-7.61,17.7-27.31,28.98-46.39,26.85-1.27,3.57-2.43,7.26-3.48,11.07-5.19,18.81-7.16,38.02-8.51,55.98-1.75,23.19-2.36,44.31-2.05,70.61l-3.29,.04c-.31-26.41,.3-47.61,2.06-70.9,1.37-18.12,3.36-37.52,8.62-56.6,1.01-3.68,2.13-7.25,3.34-10.7-7.14-1.4-13.79-4.67-19.39-9.22-6.16,3.7-13.1,6.08-20.2,6.71-.72,.06-1.45,.11-2.18,.14,1.85,6.2,3.34,12.41,4.63,18.37,9.13,42.21,12.36,82.21,9.86,122.29Zm31.76-140.97c17.44,1.59,35.24-8.8,42.19-24.96,2.74-6.37,2.87-14.54-2.16-17.83-2.73-1.79-6.7-1.85-10.35-.17-3.61,1.67-6.56,4.72-8.98,7.49-8.5,9.75-15.44,21.64-20.71,35.46Zm-81.42-44.55c-.63,0-1.26,.08-1.9,.24-4.05,1.04-6.39,5.56-6.54,9.27-.15,3.77,1.25,7.78,4.28,12.28,7.66,11.39,21.1,18.84,34.82,19.72-4.21-12.79-10.21-25.27-19.59-35.22-2.83-3-6.89-6.3-11.07-6.3Zm60.68-18.23c-.2,0-.4,0-.6,.02-5.06,.25-10.2,3.66-13.08,8.69-3.21,5.61-3.4,12.06-3,16.48,.95,10.4,6.17,20.05,13.83,26.99,7.08-4.74,12.9-11.39,16.3-19.12,3.33-7.58,3.95-15.16,1.74-21.33-2.43-6.79-8.89-11.72-15.21-11.72Z" style="fill:#92e2f5;"></path><rect x="244.99" y="431.05" width="68.88" height="27.25" style="fill:#92e2f5;"></rect><g style="opacity:.25;"><path d="M368.98,217.35c0,58.62-47.49,106.11-106.11,106.11-40.52,0-75.77-22.72-93.63-56.15-.18-2.6-.29-5.2-.29-7.85,0-61.01,49.47-110.47,110.47-110.47,34.78,0,65.79,16.06,86.01,41.2,2.31,8.68,3.54,17.78,3.54,27.16Z" style="fill:#fff;"></path></g><g style="opacity:.5;"><ellipse cx="244.99" cy="211.38" rx="43.23" ry="31.06" transform="translate(-76.71 176.61) rotate(-34.62)" style="fill:#fff;"></ellipse></g></g></g></g></svg>