<svg xmlns="http://www.w3.org/2000/svg" viewBox="0 0 449.59 449.59"><g id="a"></g><g id="b"><g id="c"><g><path d="M449.59,224.8c0,124.15-100.65,224.8-224.8,224.8-61.92,0-118.01-25.06-158.67-65.58C25.29,343.33,0,287.02,0,224.8,0,100.65,100.65,0,224.8,0c62.23,0,118.53,25.29,159.24,66.13,40.5,40.65,65.56,96.75,65.56,158.67Z" style="fill:#92e2f5;"></path><circle cx="224.8" cy="224.8" r="192.88" style="fill:#fff;"></circle><path d="M225.01,236.4c-1,0-1.99-.28-2.87-.87l-76.22-50.5c-2.39-1.59-3.05-4.81-1.46-7.2,1.59-2.4,4.81-3.05,7.2-1.46l72.81,48.24,98.01-91.17c2.1-1.96,5.39-1.84,7.35,.27s1.84,5.39-.27,7.35l-101.01,93.96c-.99,.92-2.26,1.39-3.54,1.39Z" style="fill:#173c56;"></path><circle cx="224.8" cy="224.8" r="23.27" style="fill:#92e2f5;"></circle><path d="M224.8,72.92c-2.87,0-5.2-2.33-5.2-5.2v-22.42c0-2.87,2.33-5.2,5.2-5.2s5.2,2.33,5.2,5.2v22.42c0,2.87-2.33,5.2-5.2,5.2Z" style="fill:#173c56;"></path><path d="M224.8,404.11c-2.87,0-5.2-2.33-5.2-5.2v-22.42c0-2.87,2.33-5.2,5.2-5.2s5.2,2.33,5.2,5.2v22.42c0,2.87-2.33,5.2-5.2,5.2Z" style="fill:#173c56;"></path><path d="M401.61,227.3h-22.42c-2.87,0-5.2-2.33-5.2-5.2s2.33-5.2,5.2-5.2h22.42c2.87,0,5.2,2.33,5.2,5.2s-2.33,5.2-5.2,5.2Z" style="fill:#173c56;"></path><path d="M70.42,227.3h-22.42c-2.87,0-5.2-2.33-5.2-5.2s2.33-5.2,5.2-5.2h22.42c2.87,0,5.2,2.33,5.2,5.2s-2.33,5.2-5.2,5.2Z" style="fill:#173c56;"></path><path d="M301.41,93.27c-.87,0-1.76-.22-2.58-.69-2.49-1.42-3.36-4.6-1.93-7.09l11.13-19.47c1.42-2.49,4.6-3.36,7.09-1.93,2.49,1.42,3.36,4.6,1.93,7.09l-11.13,19.47c-.96,1.68-2.71,2.62-4.52,2.62Z" style="fill:#173c56;"></path><path d="M137.05,380.8c-.87,0-1.76-.22-2.58-.69-2.49-1.42-3.36-4.6-1.93-7.09l11.13-19.47c1.42-2.49,4.6-3.36,7.09-1.93,2.49,1.42,3.36,4.6,1.93,7.09l-11.13,19.47c-.96,1.68-2.71,2.62-4.52,2.62Z" style="fill:#173c56;"></path><path d="M357.69,148.71c-1.78,0-3.51-.91-4.48-2.55-1.46-2.47-.64-5.66,1.83-7.12l19.3-11.42c2.47-1.46,5.66-.64,7.12,1.83,1.46,2.47,.64,5.66-1.83,7.12l-19.3,11.42c-.83,.49-1.74,.72-2.64,.72Z" style="fill:#173c56;"></path><path d="M72.63,317.31c-1.78,0-3.51-.91-4.48-2.55-1.46-2.47-.64-5.66,1.83-7.12l19.3-11.42c2.47-1.46,5.66-.64,7.12,1.83,1.46,2.47,.64,5.66-1.83,7.12l-19.3,11.42c-.83,.49-1.74,.72-2.64,.72Z" style="fill:#173c56;"></path><path d="M378.29,315.04c-.88,0-1.76-.22-2.58-.69l-19.47-11.13c-2.49-1.42-3.36-4.6-1.93-7.09s4.6-3.36,7.09-1.93l19.47,11.13c2.49,1.42,3.36,4.6,1.93,7.09-.96,1.68-2.71,2.62-4.52,2.62Z" style="fill:#173c56;"></path><path d="M90.77,150.68c-.88,0-1.76-.22-2.58-.69l-19.47-11.13c-2.49-1.42-3.36-4.6-1.93-7.09,1.43-2.49,4.6-3.36,7.09-1.93l19.47,11.13c2.49,1.42,3.36,4.6,1.93,7.09-.96,1.68-2.71,2.62-4.52,2.62Z" style="fill:#173c56;"></path><path d="M314.81,379.48c-1.78,0-3.51-.91-4.48-2.55l-11.42-19.3c-1.46-2.47-.64-5.66,1.83-7.12,2.47-1.46,5.66-.64,7.12,1.83l11.42,19.3c1.46,2.47,.64,5.66-1.83,7.12-.83,.49-1.74,.72-2.64,.72Z" style="fill:#173c56;"></path><path d="M146.21,94.42c-1.78,0-3.51-.91-4.48-2.55l-11.41-19.3c-1.46-2.47-.64-5.66,1.83-7.12,2.47-1.46,5.66-.64,7.12,1.83l11.41,19.3c1.46,2.47,.64,5.66-1.83,7.12-.83,.49-1.74,.72-2.64,.72Z" style="fill:#173c56;"></path><g style="opacity:.1;"><path d="M449.59,224.8c0,124.15-100.65,224.8-224.8,224.8-61.92,0-118.01-25.06-158.67-65.58l22.56-22.56,119.94-119.91L384.03,66.13c40.5,40.65,65.56,96.75,65.56,158.67Z"></path></g></g></g></g></svg>