<svg xmlns="http://www.w3.org/2000/svg" xmlns:xlink="http://www.w3.org/1999/xlink" viewBox="0 0 751.72 702.26"><defs><style>.e{fill:none;}.f{fill:#92e2f5;}.g{fill:#173c56;}.h{fill:#010101;opacity:.2;}.i{clip-path:url(#d);}.j{fill:#fff;opacity:.3;}</style><clipPath id="d"><circle cx="352.02" cy="311.98" r="221.56" style="fill:none;"></circle></clipPath></defs><g id="a"></g><g id="b"><g id="c"><g style="clip-path:url(#d);"><rect x="71.21" y="87.5" width="609.3" height="527.26" transform="translate(140.91 -106.43) rotate(19.77)" style="fill:#92e2f5;"></rect><path d="M410.66,114.6c6.75-1.71,15.18-1.06,18.9,4.82,1.95,3.08,2.15,6.91,3.1,10.43,.95,3.52,3.27,7.23,6.89,7.63,3.54,.39,7.56-2.46,10.37-.27,1.88,1.46,1.83,4.26,1.6,6.63l-1.04,11.04c-.62,6.6-2.11,14.43-8.22,16.98-6.43,2.68-13.47-2.41-20.44-2.35-3.96,.04-7.88,1.87-10.45,4.89-1.14,1.34-2.14,2.99-3.81,3.57-3.08,1.06-5.86-2.1-7.59-4.85l-12.45,13.27c-1.52,1.62-3.26,3.35-5.48,3.49-4.19,.27-6.32-4.86-7.2-8.96-1.51-7.07-2.88-15.02,1.06-21.08,2-3.07,5.29-5.52,5.91-9.13,.41-2.39-.46-4.86-.07-7.25,.8-4.92,6.7-9.37,4.26-13.73-1.35-2.42-4.64-3-6.49-5.07-2.41-2.7-1.63-6.98,.06-10.17,2.54-4.81,10.89-13.52,17.15-10.97,7.55,3.08,2.08,14.1,13.92,11.09Z" style="fill:#173c56;"></path><path d="M321.9,404.67c-7.12-9.5-20.06-19.26-31.25-23.22-.95-6.88-2.09-14.2-6.69-19.4-6.25-7.07-16.94-8.14-24.49-13.81-5.88-4.42-9.36-11.25-13.72-17.17-4.36-5.93-10.67-11.47-18.03-11.13-7.29,.33-15.08,6.25-21.1,2.12-3.33-2.28-4.3-6.9-3.63-10.89,.67-3.99,2.64-7.61,4.1-11.38,.62-1.61,1.12-3.55,.15-4.98-.88-1.3-2.61-1.66-3.83-2.63-2.74-2.18-2.14-6.48-.87-9.74,1.27-3.26,2.95-6.87,1.57-10.09-.61-1.41-1.96-2.62-3.49-2.56-1.09,.04-2.05,.69-2.95,1.32-3.3,2.32-6.6,4.63-9.9,6.95-1.12,.79-2.53,1.61-3.78,1.04-.62-.28-1.05-.86-1.43-1.43-4.56-6.98-4.15-16.84,.97-23.42,5.12-6.58,14.58-9.4,22.47-6.7,1.47,.5,2.93,1.21,3.94,2.39,3.96,4.62-1.04,13.03,3.18,17.41,3.1,3.21,8.98,1.2,11.26-2.63,2.29-3.83,2.11-8.58,2.1-13.04,0-3.92,.74-8.7,4.39-10.13,1.92-.75,4.06-.3,6.12-.15,17.81,1.29,29.95-20.48,47.74-22.01,9.12-.78,19.04,3.88,27.07-.53,3.54-1.95,6.66-5.62,10.67-5.12,2.79,.34,4.85,2.63,7,4.43,2.15,1.8,5.31,3.23,7.66,1.7,.8-.52,1.37-1.32,1.89-2.12,6.92-10.73,6.44-24.53,4.72-37.18-.46-3.39-1.07-6.95-3.23-9.6-4.57-5.64-13.56-4.66-19.67-8.58-1.53-5.39-.65-11.42,2.35-16.15,2.67,2.89,.8,8.57,4.09,10.71,1.79,1.16,4.15,.54,6.18-.12,5.48-1.77,10.97-3.55,16.45-5.32,1.56-.51,3.21-1.06,4.31-2.28,2.57-2.85,.8-7.49-1.84-10.28-2.64-2.78-6.13-5.03-7.43-8.63,4.43-.68,6.43-7.31,3.11-10.32-3.36-3.05-10.55-3.34-10.03-7.84,1.45-2.59,5.3-1.29,8.16-.5,5.69,1.57,12.24-.82,15.6-5.67-2.36-1.71-4.71-3.43-7.07-5.14-5.93-4.31-6.06-7.18-13.14-9.1-7.07-1.92-14.52-1.84-21.85-1.65-29.66,.77-60.63,3.59-85.76,19.36-7.22,4.53-13.35,6.1-20.38,10.9-12.54,8.57-24.26,18.34-34.93,29.15-5.99,6.07-11.66,12.46-16.85,19.23-13.85,18.07-24.22,38.81-30.36,60.73-1.02,3.63-1.93,7.43-1.3,11.15,1.29,7.68,8.49,12.73,15.08,16.89,2.37-.17,4.22-2.02,6.09-3.49,1.88-1.46,4.54-2.63,6.54-1.35,2.24,1.42,2.02,4.71,1.56,7.33-1.62,9.33-2.18,20.24,4.59,26.86,2.48,2.43,5.69,3.95,8.6,5.84,10.61,6.9,13.53,19.02,22.43,28.03,4.33,4.39,8.5,8.94,12.5,13.63,1.61,1.9,3.23,3.87,4.05,6.22,2.31,6.59-2.11,13.38-4.44,19.96-3.03,8.55-2.52,17.9-1.98,26.96,.11,1.82,.23,3.68,1,5.33,.7,1.5,1.89,2.71,3.05,3.89,4.1,4.16,8.21,8.32,12.31,12.48,1.39,1.4,2.8,2.85,3.63,4.64,.93,2,1.05,4.26,1.17,6.45,.41,8.09,.82,16.25-.55,24.23-.65,3.78-1.69,7.49-2.03,11.31-.31,3.56-.01,7.14,.48,10.68,1.4,10.03,4.34,19.88,9.02,28.87,3.99,7.67,9.22,14.68,15.43,20.68,1.83,1.77,4.6,3.53,6.69,2.1,1.62-1.1,1.7-3.46,1.24-5.37-1.19-4.96-4.74-9.02-6.44-13.83-2.33-6.6-.76-14.41,3.94-19.59,1.48-1.63,3.36-3.05,5.54-3.31,1.72-.2,3.45,.35,5.18,.27,7.74-.4,9.7-11.81,16.68-15.18,4.6-2.22,10.44-.42,14.91-2.88,4.81-2.64,6.01-8.92,9.21-13.37,5.66-7.86,17.7-10.07,21.48-18.99,2.98-7.03-.65-15.11-5.23-21.22Z" style="fill:#173c56;"></path><path d="M553.4,448.96c15.61-50.27,28.47-101.6,33.91-153.95,1.51-14.54,2.44-29.29,.12-43.72-2.32-14.43-6.35-29.9-19.9-35.39-13.86-5.62-27.9-10.78-42.1-15.47-3.26-1.08-7.24-2-9.79,.29-2.56,2.3-2.06,6.33-2.25,9.77-.19,3.43-1.29,6.8-3.16,9.68-2.49,3.83-6.53,7.59-5.59,12.06,.86,4.09,5.38,6.05,9.08,8.01,3.2,1.69,6.16,3.81,8.78,6.3,2.53,2.4,4.84,5.35,5.22,8.82,.38,3.47-1.88,7.39-5.35,7.73-2.89,.29-5.41-1.81-8.16-2.74-4.63-1.56-9.75,.29-13.84,2.95-4.1,2.66-7.66,6.15-12,8.39-1.66-4.13-2.11-8.73-1.27-13.1,.6-3.11,1.82-6.1,2.09-9.26,.27-3.16-.69-6.72-3.43-8.32-3.07-1.8-7.25-.32-9.44,2.48-2.19,2.8-2.78,6.53-2.86,10.08-.11,4.75,.7,9.83,3.9,13.33,1.23,1.34,2.75,2.39,3.97,3.73,2.18,2.39,3.25,5.56,4.28,8.63,1.05,3.14,1.09,7.97-2.21,8.28-1.16,.11-2.25-.52-3.3-1.02-4.91-2.37-12.41-1.37-13.67,3.93-.42,1.75-.03,3.58,.15,5.37,.63,6.31-1.43,12.84-5.56,17.64,2.04,4.72,7.99,6.76,13.03,5.77,5.04-.99,9.29-4.32,13-7.87,2.68-2.56,5.37-5.4,8.93-6.43,3.47-1,7.17-.12,10.65,.82,6.12,1.64,13.11,4.28,14.92,10.35,1.02,3.41,.07,7.06-.94,10.47-.39,1.32-.81,2.67-1.63,3.79-3.32,4.51-10.62,2.53-14.93-1.05-4.31-3.58-8.14-8.54-13.7-9.25-8.21-1.05-14.3,7.65-22.26,9.95-2.37,.69-4.87,.78-7.27,1.33-4.44,1.02-8.37,3.52-12.2,5.98-3.63,2.33-7.26,4.66-10.89,7-2.74,1.76-5.51,3.55-7.73,5.94-6.28,6.79-6.88,16.85-8.4,25.98-1.19,7.17-5.75,17.91-5.27,26.05,.19,3.21,1.88,6.14,3.74,8.77,1.71,2.41,3.75,4.74,6.47,5.89,1.92,.81,4.04,.97,6.12,1.12,4.88,.35,9.75,.7,14.63,1.05,6.85,.49,14.04,1.1,19.75,4.92,5.71,3.82,9.12,12,5.41,17.78-1.52,2.37-3.94,3.97-5.98,5.9-8.49,8.04-9.9,21.26-17.48,30.15-10.67,12.51-31.17,13.89-40.18,27.64-2.63,4.02-3.98,8.72-5.26,13.35-.41,1.5-.81,3.16-.14,4.56,.89,1.85,3.21,2.44,5.24,2.72,9.66,1.34,19.49,.69,29.16-.58,11.84-1.56,23.61-4.06,34.78-8.31,18.62-7.09,35.07-18.81,50.94-30.84,2.77-2.1,5.55-4.23,7.84-6.84,4.09-4.67,7.47-11.36,13.67-11.77-.74-.04-1.48-.07-2.22-.11,3.93-6.88,8.23-11.17,10.58-18.74Z" style="fill:#173c56;"></path><path d="M426.96,103.48c-115.15-41.39-242.06,18.41-283.44,133.57-15,41.72-16.7,84.98-7.31,125.16,0,0,3.44-23.69,9.09-35.46,7.53-15.68,45.07-81.96,64.06-102.59,18.39-19.97,37.78-30.3,62.86-42.12,25.07-11.82,50.53-16.39,77.64-17.86,27.99-1.52,54.78,0,81.58,10.26,8.45,3.23,16.4,7.24,24.53,10.64,3.27,1.37,45.12,21.08,61.75,30.91,15.81,9.35,31.83,17.68,45.67,29.49-20.1-63.73-68.68-117.66-136.41-142.01Z" style="fill:#fff; opacity:.3;"></path><path d="M564.61,249.54c-3.08,14.37-5.48,28.9-9.25,43.11-2.99,11.28-18.46,40.93-20.97,45.67-9.39,17.74-21.7,32.8-35.44,47.72-18.39,19.97-38.12,36.69-63.19,48.51-25.07,11.82-50.53,16.39-77.64,17.86-10.44,.57-20.62,.94-30.82,1.29-27.25,.94-53.38-.53-79.52-10.53-18.93-7.24-35.84-17.08-52.29-27.67-20.82-13.4-40.57-28-56.99-47.5-.47-.74-.94-1.47-1.41-2.21,17.38,69.2,67.8,128.76,140,154.71,115.15,41.39,242.06-18.41,283.44-133.57,16.53-45.99,16.91-93.84,4.09-137.38Z" style="fill:#010101; opacity:.2;"></path></g></g></g></svg>