<svg xmlns="http://www.w3.org/2000/svg" viewBox="0 0 275.87 260.71"><g id="a"></g><g id="b"><g id="c"><g><polygon points="0 0 0 225.77 87.52 258.84 87.52 34.11 0 0" style="fill:#fff;"></polygon><polygon points="98.23 34.84 182.38 .17 182.38 225.77 98.23 260.71 98.23 34.84" style="fill:#fff;"></polygon><polygon points="191.22 .17 275.87 34.3 275.87 258.85 191.22 227.93 191.22 .17" style="fill:#fff;"></polygon><polygon points="17.75 160.47 17.75 218.66 69.74 238.9 69.74 180.42 17.75 160.47" style="fill:#173c56;"></polygon><polygon points="113.07 54.46 113.07 112.66 165.73 92.2 165.73 34.43 113.07 54.46" style="fill:#92e2f5;"></polygon><polygon points="260.05 55.17 260.05 152.9 207.3 134.21 207.3 33.75 260.05 55.17" style="fill:#173c56;"></polygon><polygon points="113.07 188.12 113.07 246.45 139.07 235.76 139.07 178.11 113.07 188.12" style="fill:#92e2f5;"></polygon><polygon points="145.94 204.62 145.94 234.23 172.07 223.71 172.07 195.33 145.94 204.62" style="fill:#92e2f5;"></polygon><polygon points="17.47 127.17 17.47 124.22 69.74 142.86 69.74 145.81 17.47 127.17" style="fill:#92e2f5;"></polygon><polygon points="17.47 110.18 17.47 107.23 69.74 125.87 69.74 128.81 17.47 110.18" style="fill:#92e2f5;"></polygon><polygon points="17.47 93.18 17.47 90.24 69.74 108.88 69.74 111.82 17.47 93.18" style="fill:#92e2f5;"></polygon><polygon points="17.47 76.19 17.47 73.24 69.74 91.89 69.74 94.83 17.47 76.19" style="fill:#92e2f5;"></polygon><polygon points="207.54 201.35 207.54 198.4 259.81 217.05 259.81 219.99 207.54 201.35" style="fill:#92e2f5;"></polygon><polygon points="207.54 184.36 207.54 181.41 259.81 200.05 259.81 203 207.54 184.36" style="fill:#92e2f5;"></polygon><polygon points="207.54 167.37 207.54 164.42 259.81 183.06 259.81 186.01 207.54 167.37" style="fill:#92e2f5;"></polygon><polygon points="165.53 153.83 165.53 150.88 113.26 169.52 113.26 172.47 165.53 153.83" style="fill:#173c56;"></polygon><polygon points="165.53 136.84 165.53 133.89 113.26 152.53 113.26 155.48 165.53 136.84" style="fill:#173c56;"></polygon><polygon points="165.53 119.85 165.53 116.9 113.26 135.54 113.26 138.48 165.53 119.85" style="fill:#173c56;"></polygon><polygon points="0 225.77 87.52 258.84 87.52 34.11 0 225.77" style="opacity:.1;"></polygon><polygon points="182.38 .17 182.38 225.77 98.23 260.71 182.38 .17" style="opacity:.1;"></polygon><polygon points="275.87 34.3 275.87 258.85 191.22 227.93 275.87 34.3" style="opacity:.1;"></polygon></g></g></g></svg>