<svg xmlns="http://www.w3.org/2000/svg" viewBox="0 0 405.42 154.95"><g id="a"></g><g id="b"><g id="c"><g><path d="M216.26,15.32h15.79l-.93,5.05h-1.91l.05-3.1-.39-.38h-3.22l-2.93,15.72,.32,.39,1.93,.18v1.4h-8.18v-1.41l1.97-.15,.39-.45,2.87-15.69h-3.2l-.51,.38-1.03,3.1h-1.98l.96-5.05Zm22.72-1.81h1.25c-.16,.69-.33,1.43-.5,2.23-.17,.79-.35,1.67-.54,2.64l-.95,4.78c1.13-.94,2.14-1.64,3.03-2.11,.89-.47,1.68-.7,2.37-.7,.81,0,1.45,.25,1.94,.74,.49,.49,.73,1.15,.73,1.98,0,.27-.02,.59-.07,.96-.05,.37-.12,.82-.23,1.33l-.85,3.9c-.11,.53-.19,.97-.23,1.3-.04,.28-.06,.55-.07,.83,0,.44,.11,.79,.33,1.07,.2,.26,.51,.42,.84,.41,.26,0,.55-.04,.85-.1,.3-.07,.63-.17,.99-.31v1.11c-.9,.35-1.7,.61-2.39,.78-.59,.16-1.21,.24-1.82,.25-.75,0-1.31-.17-1.69-.52-.38-.35-.57-.86-.57-1.55,0-.19,.02-.41,.05-.67,.04-.26,.09-.55,.16-.88l1.01-4.7c.08-.4,.14-.75,.18-1.08,.04-.32,.06-.59,.06-.81,0-.52-.12-.92-.35-1.2s-.56-.42-.99-.42-.95,.16-1.56,.48c-.71,.39-1.38,.86-1.98,1.39l-1.73,9.68h-3.46l3.65-18.45-2.43-.32-.03-1,4.98-1.06h0Zm13.2,14.4s0,.05-.01,.1c-.02,.25-.04,.51-.04,.76,0,1.19,.26,2.11,.78,2.76,.52,.65,1.25,.97,2.21,.97,.62,0,1.3-.17,2.04-.51,.74-.34,1.52-.84,2.34-1.5v1.75c-.91,.73-1.91,1.33-2.98,1.78-.99,.4-1.92,.6-2.8,.6-1.54,0-2.75-.48-3.63-1.43s-1.31-2.27-1.31-3.96c0-1.35,.27-2.61,.81-3.8,.55-1.19,1.34-2.24,2.34-3.09,.71-.61,1.49-1.08,2.35-1.41,.85-.33,1.7-.5,2.55-.5,1.07,0,1.92,.28,2.54,.83,.62,.55,.92,1.31,.92,2.27,0,1.38-.64,2.46-1.91,3.24-1.28,.78-3.05,1.17-5.33,1.17-.09,0-.23,0-.42-.01-.15,0-.29-.01-.44-.01m.23-1.19c1.45-.07,2.65-.43,3.61-1.09,.96-.66,1.44-1.44,1.44-2.34,0-.44-.13-.79-.38-1.05-.25-.26-.59-.39-1-.39-.76,0-1.47,.43-2.13,1.29-.66,.86-1.17,2.05-1.53,3.57m-14.37,45.22c-1.34,.49-2.71,.85-4.11,1.1-1.4,.24-2.83,.37-4.29,.37-1.35,0-2.69-.15-4-.46-1.18-.28-2.32-.75-3.36-1.38-2.06-1.23-3.75-3-4.88-5.12-1.17-2.16-1.76-4.53-1.76-7.11,0-2.07,.36-3.99,1.07-5.76,.69-1.74,1.75-3.31,3.09-4.61,1.26-1.24,2.77-2.19,4.42-2.8,1.68-.63,3.57-.94,5.65-.94,1.34,0,2.69,.13,4.05,.38,1.36,.25,2.73,.63,4.11,1.13v6.77h-2.93l-.8-4.33-.55-.69c-.52-.19-1.06-.34-1.61-.45-.51-.1-1.03-.16-1.55-.16-2.79,0-4.99,1.03-6.63,3.08-1.63,2.05-2.45,4.84-2.45,8.36s.85,6.44,2.56,8.49c1.71,2.05,4.06,3.07,7.05,3.07,.32,0,.69-.03,1.1-.1,.41-.07,.85-.16,1.32-.28l.6-.61,.96-4.89h2.93v6.96h0Zm9.64-28.97h1.91v12.23c1.6-.89,2.94-1.52,4.01-1.9s2.01-.57,2.82-.57c1.85,0,3.22,.56,4.13,1.67,.9,1.12,1.36,2.8,1.36,5.06v10.87l.53,.61,2.11,.16v1.82h-9.8v-1.82l1.72-.16,.57-.61v-9.7c0-1.5-.29-2.61-.87-3.32-.58-.71-1.49-1.06-2.72-1.06-.51,0-1.08,.06-1.71,.18-.63,.12-1.34,.29-2.14,.52v13.37l.6,.61,1.76,.16v1.82h-9.88v-1.82l2.05-.16,.55-.61v-23.87h-2.91v-1.58l5.92-1.9h0Zm31.02,27.63c-1.35,.94-2.58,1.62-3.69,2.04-1.1,.42-2.17,.63-3.18,.63-1.53,0-2.79-.49-3.77-1.47-.98-.98-1.46-2.25-1.46-3.79,0-1.9,.72-3.37,2.15-4.39,1.43-1.03,4.77-2.14,10.02-3.35v-1.21c0-1.46-.31-2.53-.92-3.21-.61-.67-1.58-1.01-2.89-1.01-.29,0-.59,.02-.9,.06-.34,.04-.68,.1-1.02,.18v3.8h-3.69c-.64,0-1.1-.12-1.4-.36-.29-.24-.44-.61-.44-1.13,0-1.27,.84-2.37,2.52-3.3,1.68-.94,3.74-1.41,6.18-1.41,2.74,0,4.67,.53,5.79,1.6,1.12,1.07,1.68,2.93,1.68,5.58v10.49l.53,.57,2.13,.2v1.78h-7.11l-.52-2.31h0Zm0-1.66v-6.61c-2.63,.59-4.43,1.24-5.39,1.94-.96,.7-1.44,1.65-1.44,2.85,0,.94,.27,1.68,.8,2.23,.53,.55,1.26,.82,2.17,.82,.51,0,1.08-.1,1.73-.31,.74-.24,1.45-.55,2.14-.92Zm9.62,3.98v-1.82l2.13-.16,.57-.61v-13.99h-2.89v-1.62l5.87-1.9h1.93l-.18,4.14c1.42-1.52,2.98-2.9,4.67-4.12,.22-.04,.4-.07,.54-.08,.14-.01,.26-.02,.36-.02,.43,0,.86,.06,1.3,.17,.44,.11,.88,.29,1.34,.52l-.51,5.6h-2.09c-.26-.46-.63-.84-1.08-1.11-.42-.24-.93-.36-1.51-.36-.34,0-.75,.1-1.22,.29-.56,.23-1.1,.52-1.61,.84v11.64l.59,.61,2.85,.16v1.82h-11.05Zm21.06-16.78h-2.6v-1.54l2.95-1.7,2.09-4.22h2.52v5.03h5.92v2.43h-5.92v10.11c0,1.52,.24,2.56,.72,3.11,.48,.55,1.35,.83,2.6,.83,.49,0,.95-.02,1.37-.07,.42-.05,.83-.12,1.22-.21v1.93c-1.14,.42-2.24,.74-3.27,.95-.93,.21-1.88,.31-2.84,.33-.7,0-1.33-.07-1.87-.22-.52-.13-1.01-.36-1.45-.67-.53-.36-.91-.8-1.12-1.34-.22-.53-.32-1.52-.32-2.96v-11.8h0Zm30.71,11.76v3.01c-1.3,.76-2.69,1.36-4.14,1.78-1.36,.39-2.77,.59-4.18,.59-2.98,0-5.38-.93-7.19-2.79-1.8-1.86-2.7-4.32-2.7-7.38s.92-5.58,2.76-7.53c1.84-1.95,4.22-2.92,7.13-2.92,2.63,0,4.68,.8,6.14,2.4,1.46,1.6,2.19,3.86,2.19,6.76v.77h-13.1v.12c0,2.31,.57,4.12,1.72,5.44,1.15,1.32,2.72,1.98,4.73,1.98,1.06,0,2.13-.18,3.23-.55,1.09-.37,2.23-.93,3.42-1.68Zm-5.27-7.46v-.44c0-1.65-.3-2.91-.9-3.79-.6-.88-1.46-1.32-2.58-1.32-1.22,0-2.2,.49-2.95,1.47-.74,.98-1.15,2.34-1.21,4.07h7.63Zm7.49,12.49v-1.82l2.13-.16,.57-.61v-13.99h-2.89v-1.62l5.88-1.9h1.93l-.18,4.14c1.42-1.52,2.98-2.9,4.67-4.12,.22-.04,.4-.07,.54-.08,.14-.01,.26-.02,.36-.02,.43,0,.86,.06,1.3,.17,.44,.11,.88,.29,1.34,.52l-.51,5.6h-2.09c-.26-.46-.63-.84-1.08-1.11-.42-.24-.92-.36-1.51-.36-.34,0-.75,.1-1.22,.29-.56,.24-1.1,.52-1.61,.84v11.64l.59,.61,2.85,.16v1.82h-11.05Zm35.14-5.03v3.01c-1.3,.76-2.69,1.36-4.14,1.78-1.36,.39-2.77,.59-4.18,.59-2.98,0-5.38-.93-7.18-2.79-1.8-1.86-2.71-4.32-2.71-7.38s.92-5.58,2.76-7.53c1.85-1.95,4.22-2.92,7.13-2.92,2.63,0,4.68,.8,6.14,2.4,1.46,1.6,2.19,3.86,2.19,6.76v.77h-13.1v.12c0,2.31,.58,4.12,1.72,5.44,1.15,1.32,2.72,1.98,4.73,1.98,1.06,0,2.13-.18,3.23-.55,1.09-.37,2.23-.93,3.42-1.68h0Zm-5.27-7.46v-.44c0-1.65-.3-2.91-.9-3.79-.6-.88-1.46-1.32-2.58-1.32-1.22,0-2.21,.49-2.95,1.47-.74,.98-1.15,2.34-1.21,4.07h7.63Zm21.85-13.93h-2.93v-1.62l5.95-1.9h1.86v27.35l.55,.65,2.05,.16v1.78h-7.48v-2.28c-1.22,.91-2.34,1.58-3.36,2-.94,.41-1.95,.62-2.97,.63-2.26,0-4.12-.91-5.57-2.72-1.45-1.81-2.18-4.16-2.18-7.04,0-3.23,.95-5.85,2.86-7.86,1.91-2,4.39-3.01,7.45-3.01,.57,0,1.17,.03,1.8,.1,.62,.07,1.28,.16,1.97,.3v-6.55Zm0,22.56v-13.54c-.53-.18-1.07-.33-1.62-.44-.44-.09-.89-.14-1.35-.15-1.74,0-3.14,.7-4.19,2.1-1.05,1.4-1.57,3.28-1.57,5.64s.47,4,1.42,5.26c.95,1.26,2.27,1.9,3.94,1.9,.44,0,.94-.06,1.49-.19,.55-.12,1.17-.32,1.86-.59h0Zm-177.22,38.59v-7.34h3.03l.64,4.87,.53,.62c.59,.18,1.17,.32,1.75,.41,.58,.09,1.17,.14,1.77,.14,1.56,0,2.81-.35,3.75-1.05,.94-.7,1.41-1.63,1.41-2.79,0-1.03-.33-1.94-.98-2.74-.66-.8-1.76-1.59-3.29-2.37-.37-.19-.75-.38-1.13-.55-1.82-.86-3.19-1.67-4.1-2.45-.86-.71-1.56-1.6-2.07-2.59-.47-.91-.72-1.92-.72-2.95,0-2.32,.87-4.23,2.63-5.74,1.75-1.5,4.02-2.26,6.8-2.26,1.21,0,2.44,.12,3.69,.35,1.25,.23,2.52,.58,3.83,1.04v6.57h-2.89l-.66-4.22-.57-.57c-.41-.21-.84-.35-1.29-.43-.54-.1-1.09-.14-1.64-.14-1.42,0-2.56,.36-3.41,1.07-.86,.71-1.29,1.64-1.29,2.79,0,.84,.24,1.61,.73,2.29,.49,.68,1.32,1.37,2.51,2.09,.28,.18,1.08,.57,2.39,1.16s2.41,1.17,3.31,1.75c1.16,.75,2.05,1.66,2.67,2.71,.62,1.06,.94,2.18,.94,3.38,0,2.48-.97,4.49-2.91,6.02-1.94,1.53-4.5,2.29-7.69,2.29-1.3,0-2.61-.12-3.93-.35-1.32-.23-2.58-.57-3.79-1m26.12-19.33h1.91v12.57c0,1.61,.3,2.77,.89,3.47,.59,.71,1.57,1.06,2.92,1.06,.46,0,.96-.05,1.51-.15,.65-.12,1.29-.29,1.93-.49v-12.94h-2.6v-1.62l5.68-1.9h1.83v17.63l.55,.61,2.09,.16v1.82h-7.56v-2.24c-1.39,.92-2.62,1.59-3.68,1.99-1.06,.4-2.07,.6-3.04,.6-1.85,0-3.22-.57-4.13-1.7-.9-1.13-1.36-2.88-1.36-5.22v-10.13h-2.6v-1.62l5.64-1.9h0Zm18.59,20.22v-1.82l2.13-.16,.56-.61v-13.99h-2.89v-1.62l5.88-1.9h1.93l-.18,4.13c1.42-1.52,2.98-2.9,4.67-4.12,.22-.04,.4-.07,.54-.08,.14-.01,.26-.02,.36-.02,.43,0,.86,.05,1.3,.17,.44,.11,.88,.29,1.34,.52l-.51,5.6h-2.09c-.26-.46-.63-.84-1.08-1.11-.42-.24-.92-.36-1.51-.36-.34,0-.75,.1-1.22,.29-.56,.24-1.1,.52-1.61,.84v11.64l.59,.61,2.85,.16v1.82h-11.05Zm15.98-20.97h10.12v1.82l-2.08,.19-.43,.52,4.14,11.56,4.54-11.52-.31-.56-2.02-.19v-1.81h7.57v1.81l-2.32,.27-6.85,17.18h-3.6l-6.37-17.21-2.39-.23v-1.82Zm41.31,14.2v2.98c-1.37,.78-2.75,1.37-4.15,1.77-1.4,.39-2.79,.59-4.19,.59-2.99,0-5.39-.92-7.19-2.77-1.81-1.84-2.71-4.28-2.71-7.32s.92-5.53,2.77-7.46c1.85-1.93,4.22-2.89,7.13-2.89,2.64,0,4.68,.8,6.15,2.38s2.19,3.82,2.19,6.7v.76h-13.12v.12c0,2.29,.58,4.09,1.73,5.4,1.15,1.31,2.73,1.96,4.74,1.96,1.06,0,2.13-.18,3.23-.55,1.2-.42,2.35-.98,3.42-1.67h0Zm-5.28-7.39v-.43c0-1.64-.3-2.89-.9-3.76-.6-.87-1.46-1.3-2.58-1.3-1.23,0-2.21,.49-2.95,1.46-.74,.97-1.15,2.32-1.21,4.03h7.64Zm6.51-7.14h10.16v1.73l-2.03,.24-.41,.57,4.32,11.36,4.36-11.32-.35-.61-2.11-.24v-1.73h7.68v1.73l-2.17,.35-7.72,18.85c-.95,2.3-2.09,4.11-3.42,5.42-1.33,1.31-2.67,1.97-4.03,1.97-.94,0-1.75-.3-2.42-.89-.68-.6-1.02-1.29-1.02-2.09,0-.58,.18-1.11,.54-1.6,.36-.49,.87-.91,1.53-1.25l3.48,2.39c.55-.43,1.08-1.06,1.61-1.89,.53-.83,1.03-1.83,1.51-2.99l-7.11-17.93-2.4-.36v-1.73h0Zm31.78-.53c3.08,0,5.52,.93,7.33,2.79,1.81,1.86,2.72,4.39,2.72,7.56,0,3.01-.94,5.42-2.84,7.26-1.89,1.83-4.4,2.75-7.53,2.75s-5.44-.92-7.28-2.78c-1.84-1.85-2.77-4.29-2.77-7.31s.94-5.59,2.83-7.46c1.89-1.88,4.4-2.82,7.53-2.82m-.16,2.14c-1.46,0-2.6,.7-3.42,2.1-.82,1.4-1.23,3.36-1.23,5.89s.41,4.56,1.22,5.98,1.95,2.14,3.39,2.14,2.68-.69,3.5-2.08c.82-1.39,1.23-3.36,1.23-5.92s-.41-4.54-1.24-5.97c-.83-1.43-1.98-2.14-3.45-2.14m12.24,17.91v-1.81l2.13-.16,.57-.61v-13.87h-2.89v-1.61l5.88-1.88h1.94l-.18,4.1c1.42-1.51,2.98-2.88,4.67-4.08,.22-.04,.4-.07,.54-.08,.14-.01,.26-.02,.36-.02,.43,0,.86,.05,1.3,.17,.44,.11,.88,.28,1.34,.52l-.51,5.55h-2.09c-.26-.46-.63-.83-1.08-1.1-.47-.24-.99-.37-1.51-.35-.34,0-.75,.1-1.22,.28-.56,.23-1.1,.51-1.61,.83v11.53l.59,.61,2.85,.16v1.81h-11.06Zm32.31-19.09v5.36h-2.4l-.39-3.02-.49-.45c-.43-.2-.87-.36-1.33-.47-.43-.1-.87-.15-1.31-.16-.96,0-1.71,.21-2.25,.64-.53,.43-.8,1.02-.8,1.77,0,.63,.21,1.17,.63,1.63,.42,.46,1.45,1.09,3.11,1.9l.08,.04c3.84,1.86,5.77,3.75,5.77,5.67,0,2.05-.73,3.67-2.18,4.85-1.45,1.19-3.45,1.78-5.99,1.78-.99,0-2.04-.08-3.14-.25-1.1-.17-2.26-.43-3.47-.76v-5.94h2.4l.47,3.45,.41,.45c.52,.27,1.06,.48,1.62,.63,.56,.14,1.14,.22,1.74,.22,1.05,0,1.89-.26,2.49-.77,.61-.52,.91-1.23,.91-2.13,0-1.14-1.16-2.23-3.46-3.28-.78-.35-1.39-.64-1.82-.86-1.65-.82-2.82-1.64-3.49-2.44-.67-.8-1.03-1.81-1.01-2.86,0-1.79,.71-3.24,2.14-4.33,1.43-1.1,3.33-1.65,5.72-1.65,2.05,0,4.1,.34,6.04,1m3.18,3.22l-.84-1.2c1.23-.75,2.15-1.58,2.79-2.51,.62-.88,.95-1.93,.95-3,0-.17,0-.3,0-.38,0-.08-.02-.16-.03-.25l-2.4-.02c-.25-.29-.44-.62-.58-.98-.12-.34-.19-.69-.19-1.05,0-.83,.25-1.5,.75-2.01,.5-.51,1.17-.76,2-.76,1.08,0,1.95,.38,2.6,1.15,.65,.76,.98,1.78,.98,3.03,0,1.7-.53,3.24-1.58,4.64-1.05,1.4-2.53,2.51-4.45,3.35m-163.11,51.13c-1.34,.48-2.72,.85-4.12,1.09-1.4,.24-2.83,.36-4.29,.36s-2.76-.15-4.01-.46c-1.18-.28-2.32-.74-3.36-1.36-2.06-1.21-3.75-2.97-4.89-5.07-1.17-2.14-1.76-4.49-1.76-7.05,0-2.05,.36-3.96,1.07-5.71,.69-1.73,1.75-3.29,3.09-4.57,1.26-1.23,2.77-2.17,4.43-2.78,1.69-.62,3.57-.93,5.66-.93,1.34,0,2.69,.12,4.06,.37,1.36,.25,2.73,.62,4.11,1.12v6.71h-2.93l-.8-4.3-.55-.69c-.53-.19-1.06-.34-1.61-.45-.51-.1-1.03-.15-1.55-.15-2.79,0-5,1.01-6.64,3.05-1.64,2.03-2.45,4.8-2.45,8.29s.85,6.39,2.56,8.41c1.71,2.03,4.06,3.04,7.06,3.04,.33,0,.69-.03,1.1-.1s.85-.16,1.32-.27l.6-.61,.96-4.84h2.93v6.91h0Zm13.7-19.09c3.08,0,5.52,.93,7.33,2.8,1.81,1.86,2.72,4.38,2.72,7.56,0,3.01-.95,5.43-2.84,7.26-1.89,1.83-4.4,2.75-7.53,2.75s-5.44-.92-7.28-2.77c-1.84-1.85-2.77-4.29-2.77-7.31s.94-5.59,2.83-7.47c1.89-1.87,4.4-2.81,7.53-2.81m-.16,2.14c-1.46,0-2.6,.7-3.42,2.1-.82,1.4-1.23,3.36-1.23,5.88s.41,4.56,1.22,5.98c.81,1.42,1.95,2.14,3.39,2.14s2.68-.69,3.5-2.08c.82-1.39,1.23-3.36,1.23-5.92s-.41-4.54-1.24-5.97c-.83-1.42-1.98-2.14-3.45-2.14m31.04,.63c1.55-.89,2.93-1.57,4.14-2.03,1.21-.47,2.19-.7,2.96-.7,1.85,0,3.24,.55,4.16,1.67,.93,1.11,1.39,2.78,1.39,5v10.77l.52,.61,2.11,.15v1.81h-9.83v-1.81l1.72-.15,.55-.61v-9.61c0-1.53-.29-2.64-.87-3.32-.58-.68-1.51-1.02-2.8-1.02-.47,0-.98,.06-1.53,.18-.55,.12-1.18,.32-1.87,.58v13.18l.51,.61,1.82,.15v1.81h-9.46v-1.81l1.64-.15,.57-.69v-9.77c0-1.42-.29-2.47-.86-3.12-.57-.65-1.49-.98-2.74-.98-.52,0-1.06,.06-1.62,.18-.59,.13-1.17,.3-1.74,.51v13.26l.55,.61,1.68,.15v1.81h-9.81v-1.81l2.05-.15,.57-.61v-13.87h-2.62v-1.61l5.65-1.89h1.94v2.37c1.43-.85,2.68-1.47,3.74-1.86,1.05-.39,1.99-.59,2.81-.59,1.03,0,1.94,.23,2.72,.68,.78,.46,1.44,1.14,1.97,2.04m16.57,26.09v-1.86l2.17-.2,.55-.61v-22.58h-2.72v-1.61l5.81-1.88h1.8v2.41c1.26-.88,2.4-1.52,3.42-1.92,1.02-.41,1.99-.61,2.91-.61,2.18,0,3.98,.89,5.41,2.68,1.44,1.78,2.15,4.05,2.15,6.8,0,3.22-.96,5.78-2.87,7.7-1.92,1.91-4.5,2.87-7.74,2.87-1.09,0-2.18-.06-3.27-.2l-.02,6.41,.6,.57,2.48,.16v1.86h-10.69Zm7.61-11.22c.84,.18,1.7,.27,2.56,.28,1.8,0,3.23-.7,4.29-2.1s1.59-3.28,1.59-5.65c0-2.11-.47-3.75-1.4-4.93-.93-1.18-2.23-1.78-3.88-1.78-.43,0-.9,.06-1.42,.19-.51,.12-1.1,.32-1.75,.58v13.42h0Zm28.05,.12c-1.36,.93-2.59,1.6-3.69,2.02-1.11,.42-2.17,.63-3.19,.63-1.54,0-2.79-.49-3.77-1.46-.98-.98-1.47-2.23-1.47-3.76,0-1.88,.71-3.33,2.15-4.35,1.43-1.02,4.78-2.13,10.03-3.32v-1.2c0-1.45-.31-2.51-.92-3.18-.61-.67-1.58-1-2.89-1-.29,0-.59,.02-.9,.06-.34,.04-.68,.1-1.02,.17v3.77h-3.69c-.64,0-1.1-.12-1.4-.35-.29-.24-.44-.61-.44-1.12,0-1.25,.84-2.34,2.52-3.27,1.68-.93,3.74-1.39,6.19-1.39,2.74,0,4.68,.53,5.8,1.59,1.12,1.06,1.68,2.9,1.68,5.53v10.4l.53,.57,2.13,.2v1.77h-7.12l-.53-2.29h0Zm0-1.65v-6.55c-2.63,.59-4.43,1.23-5.39,1.92-.96,.69-1.45,1.64-1.45,2.83,0,.93,.27,1.66,.8,2.21,.53,.54,1.26,.81,2.17,.81,.51,0,1.08-.1,1.73-.3,.74-.24,1.45-.55,2.14-.91Zm9.66,3.94v-1.8l2.05-.15,.57-.61v-13.87h-2.74v-1.61l5.77-1.89h1.94v2.37c1.52-.85,2.84-1.47,3.95-1.86,1.11-.39,2.07-.59,2.89-.59,1.82,0,3.19,.55,4.09,1.65,.9,1.1,1.35,2.77,1.35,5.02v10.77l.53,.61,2.11,.15v1.81h-9.79v-1.8l1.72-.15,.55-.61v-9.61c0-1.49-.29-2.59-.86-3.29-.57-.7-1.49-1.05-2.74-1.05-.48,0-1.04,.06-1.67,.18-.63,.11-1.34,.29-2.12,.51v13.26l.55,.61,1.76,.15v1.81h-9.89Zm22.46-19.52h10.16v1.73l-2.03,.24-.41,.57,4.32,11.36,4.36-11.32-.35-.61-2.11-.24v-1.73h7.68v1.73l-2.17,.36-7.72,18.85c-.95,2.3-2.09,4.11-3.42,5.42-1.33,1.32-2.67,1.97-4.03,1.97-.94,0-1.75-.3-2.42-.9-.68-.59-1.02-1.29-1.02-2.09,0-.58,.18-1.11,.54-1.6,.36-.49,.87-.91,1.53-1.25l3.48,2.39c.55-.43,1.08-1.06,1.61-1.89s1.03-1.83,1.51-2.99l-7.11-17.93-2.4-.36v-1.73h0Z" style="fill:#898989; fill-rule:evenodd;"></path><path d="M95.42,2.2c.49,.13,.97,.32,1.41,.56-.44-.25-.92-.44-1.41-.56m-1.56-.16h.54c-.18-.01-.35-.03-.54-.03s-.36,.02-.54,.03h.54Z" style="fill:#898989; fill-rule:evenodd;"></path><path d="M95.65,125.6c15.03-5.27,25.66-16.94,26.33-30.63h-52.67c.67,13.7,11.3,25.36,26.34,30.63h0Zm8.44-18.02h7.23v2.35h-7.23v-2.35h0Zm-12.05,0h7.23v2.35h-7.23v-2.35h0Zm-12.05,0h7.23v2.35h-7.23v-2.35h0Zm-10.76-48.92v31.3h5.6v-2.79h8.15v2.79h8.44v-2.79h8.15v2.79h8.44v-2.79h8.15v2.79h5.6v-31.3h-52.52Zm12.01,16.16h-7.2v-2.4h7.2v2.4Zm12,0h-7.2v-2.4h7.21v2.4h0Zm12,0h-7.2v-2.4h7.2v2.4Zm12,0h-7.2v-2.4h7.21v2.4h0Zm-49.37,54.87v8.31h0l-.02-8.33h0l.03,9.91h0v.02l6.54,5.43H26.47l8.54,9.91h52.67v-9.91l-19.81-15.34Zm-23.27,22.46h-.91v-2.76l-1.17,1.8h-.02l-1.16-1.79v2.74h-.89v-4.22h.99l1.09,1.79,1.09-1.79h.99v4.22h0Zm9.96-2.11c0,1.2-.93,2.18-2.21,2.18s-2.2-.97-2.2-2.17h0c0-1.21,.93-2.19,2.21-2.19s2.2,.97,2.2,2.17h0Zm9.37,.01c0,1.19-.9,2.11-2.21,2.11h-1.62v-4.22h1.62c1.3,0,2.21,.91,2.21,2.1h0Zm9.1,.28c0,1.28-.7,1.91-1.82,1.91s-1.8-.63-1.8-1.88v-2.41h.91v2.39c0,.69,.34,1.04,.89,1.04s.9-.34,.9-1.01v-2.42h.91v2.38Zm8.67,.59c0,.84-.63,1.31-1.53,1.31-.65,0-1.28-.24-1.76-.68l.54-.66c.37,.31,.76,.52,1.24,.52,.37,0,.6-.15,.6-.4h0c0-.25-.14-.37-.84-.55-.84-.22-1.38-.45-1.38-1.29h0c0-.78,.6-1.28,1.45-1.28,.6,0,1.12,.19,1.54,.54l-.47,.7c-.37-.26-.73-.42-1.08-.42s-.53,.16-.53,.37h0c0,.29,.18,.38,.89,.57,.84,.22,1.32,.53,1.32,1.26h0Z" style="fill:#898989; fill-rule:evenodd;"></path><path d="M61.72,148.77h-.71v2.55h.71c.75,0,1.25-.51,1.25-1.26h0c0-.76-.5-1.28-1.25-1.28m-9.38-.06c-.73,0-1.25,.59-1.25,1.32h0c0,.73,.52,1.34,1.26,1.34s1.25-.59,1.25-1.31h0c0-.74-.52-1.34-1.26-1.34m49.55-13.66h0c0-.3-.21-.47-.68-.47h-1.06v.93h1.08c.4,0,.65-.15,.65-.46m-11.97-2.29h1.52l-.75-1.87-.76,1.87Zm10.25-1.43h0c0-.29-.21-.44-.59-.44h-.89v.88h.83c.4,0,.65-.13,.65-.44m0,1.81h0c0-.28-.21-.44-.59-.44h-.89v.88h.83c.4,0,.65-.13,.65-.44" style="fill:#898989; fill-rule:evenodd;"></path><path d="M108.17,137.13l12.39-9.76h-51.55l12.85,9.82,26.31-.06Zm-1.84-4.93c0-.48,.39-.88,.88-.88s.88,.39,.88,.88h0c.03,.49-.34,.91-.82,.94s-.9-.34-.93-.82c0-.04,0-.07,0-.11h0Zm-8.56-2.06h1.91c.47,0,.84,.13,1.07,.37,.19,.19,.29,.44,.28,.7h0c.01,.39-.2,.74-.54,.91,.48,.18,.77,.46,.77,1.02h0c0,.77-.61,1.15-1.54,1.15h-1.95v-4.14Zm-7.44-.03h.83l1.76,4.17h-.95l-.38-.93h-1.74l-.38,.93h-.92l1.76-4.17Zm-8.47,2.09h0c-.03-.49,.34-.91,.82-.94s.9,.34,.93,.82c0,.04,0,.07,0,.11h0c.02,.49-.35,.9-.83,.92-.48,.02-.89-.35-.91-.83,0-.03,0-.05,0-.08h0Z" style="fill:#898989; fill-rule:evenodd;"></path><path d="M148.23,146.39c-.73,0-1.23,.58-1.23,1.29h0c0,.72,.52,1.31,1.25,1.31s1.23-.58,1.23-1.29h0c0-.72-.52-1.31-1.25-1.31" style="fill:#898989; fill-rule:evenodd;"></path><path d="M116.28,142.82l6.47-5.32v-9.72l-.03,.02-.02,.02-12.6,9.96-6.64,5.03h-.01v9.73h50.8l10.17-9.72h-48.14Zm-5.45,6.94h.9v-4.14h-.9v4.14h0Zm9.8,0h-.77l-1.99-2.63v2.63h-.89v-4.14h.83l1.93,2.55v-2.55h.89v4.14h0Zm5.25,0h.9v-4.14h-.9v4.14h0Zm9.26-3.3h-1.25v3.3h-.91v-3.3h-1.25v-.84h3.41v.84Zm4.95,3.3h.9v-4.14h-.9v4.14h0Zm10.34-2.07c0,1.18-.92,2.14-2.19,2.14s-2.18-.95-2.18-2.13h0c0-1.19,.92-2.15,2.19-2.15s2.18,.95,2.18,2.13h0ZM102.1,33.18c-3.6-3.63-10.69-3.28-14.91,.75l-6.99,6.26h11.81l4.47-4.65h1.99c-.76,.91-5.2,5.38-5.2,5.38l5.17,9.73h3.49l2.42-8.61c.5-1.77,.54-3.67-.08-5.41-.46-1.3-1.2-2.48-2.17-3.45" style="fill:#898989; fill-rule:evenodd;"></path><path d="M89.07,80.85c0-1.56-1.26-2.82-2.8-2.82s-2.8,1.26-2.8,2.82c0,1.55,1.25,2.82,2.8,2.82h0c1.55,0,2.8-1.26,2.8-2.82m16.8,0c0-1.56-1.25-2.82-2.8-2.82s-2.8,1.26-2.8,2.82c0,1.55,1.25,2.82,2.8,2.82h0c1.55,0,2.8-1.26,2.8-2.82m8.8-15.08c0-1.56-1.26-2.82-2.8-2.82s-2.8,1.26-2.8,2.82c0,1.55,1.25,2.82,2.8,2.82h0c1.55,0,2.8-1.26,2.8-2.82m-34.14,0c0-1.56-1.25-2.82-2.8-2.82s-2.8,1.26-2.8,2.82c0,1.55,1.25,2.82,2.8,2.82h0c1.55,0,2.8-1.26,2.8-2.82m16.81,0c0-1.56-1.26-2.82-2.8-2.82s-2.8,1.26-2.8,2.82c0,1.55,1.25,2.82,2.8,2.82h0c1.55,0,2.8-1.26,2.8-2.82m-8.14,35.49c0,1.56-1.25,2.82-2.8,2.82-1.55,0-2.81-1.27-2.8-2.82h0c0-1.55,1.25-2.82,2.8-2.82h0c1.55,0,2.8,1.26,2.8,2.82m16.81,0c0,1.56-1.25,2.82-2.8,2.82-1.55,0-2.81-1.27-2.8-2.82h0c0-1.55,1.25-2.82,2.8-2.82h0c1.55,0,2.8,1.26,2.8,2.82m-8.4,16.02c0,1.56-1.26,2.82-2.8,2.82-1.55,0-2.81-1.27-2.8-2.82h0c0-1.55,1.25-2.82,2.8-2.82h0c1.55,0,2.8,1.26,2.8,2.82" style="fill:#898989; fill-rule:evenodd;"></path><path d="M101.82,12.26c-1.09,0-1.96-.89-1.96-1.98v-2.33h0c-.02-.81-.19-1.61-.52-2.35l-.73,.5c-.33,.23-.67,.47-1,.7,.7,.55,.82,1.57,.27,2.27-.24,.31-.58,.51-.96,.59-.67,.12-1.34-.19-1.68-.78-.43,.48-.77,1.03-1.02,1.63l-.56,1.37-.56-1.37c-.26-.6-.61-1.16-1.04-1.65-.42,.77-1.39,1.06-2.16,.64-.44-.24-.75-.68-.82-1.18-.09-.58,.14-1.17,.61-1.53-.33-.23-.65-.47-.98-.69l-.76-.53c-.26,.6-.43,1.23-.5,1.88l-.03,.64v4.17h-10.23c-.53,0-1,.35-1.16,.86l-3.97,12.1c-.1,.32-.15,.65-.15,.98-.02,2.75,1.9,5.23,4.6,5.62,3.34,.48,6.21-2.12,6.21-5.39v-.05c-.02-.43-.09-.85-.22-1.26l-3.67-11.19h32.61l-3.67,11.18c-.12,.41-.2,.84-.21,1.26v.05c0,3.7,3.67,6.55,7.54,5.04,2.03-.79,3.29-2.85,3.27-5.03,0-.49-.08-.97-.22-1.43l-3.9-11.88c-.16-.51-.62-.86-1.16-.86h-11.25Zm-28.07,13.47l3.54-10.71h.02l3.53,10.71h-7.09Zm35.64,0l3.53-10.79h.02l3.54,10.79h-7.09Z" style="fill:#898989; fill-rule:evenodd;"></path><path d="M96.62,8.71c.35,0,.63-.28,.63-.63,0-.3-.22-.56-.52-.61-.25,.2-.5,.41-.74,.63,.01,.34,.28,.62,.63,.62" style="fill:#898989; fill-rule:evenodd;"></path><path d="M91.48,8.25h0" style="fill:#898989; fill-rule:evenodd;"></path><path d="M91.26,7.96s.02,.07,.02,.11l.18,.16h.01s.01-.02,.02-.04c-.08-.08-.16-.16-.24-.24m-.61-.52s.04,0,.06,.01c-.05-.05-.1-.09-.16-.14-.04,0-.08,.03-.12,.05l.12,.1s.06-.02,.09-.02" style="fill:#898989; fill-rule:evenodd;"></path><path d="M90.02,8.08c0,.35,.28,.63,.63,.63s.63-.28,.63-.63c-.23-.21-.47-.42-.72-.62-.31,.04-.54,.31-.54,.62" style="fill:#898989; fill-rule:evenodd;"></path><path d="M101.78,0l-.45,.32-.13,.09-2.31,1.63-1.61,1.14c-.62-.45-1.32-.79-2.06-.98-.17-.04-.34-.07-.52-.1-.1-.02-.19-.05-.29-.06h-1.51c-.62,.08-1.23,.26-1.8,.52h0c-.38,.17-.74,.37-1.07,.62l-1.61-1.14-2.31-1.63-.13-.09-.45-.32-.19,2.28,4.05,2.8,.47,.33c1.44,1,2.86,2.06,3.8,3.54,.94-1.48,2.37-2.54,3.8-3.54l.47-.33,4.05-2.8L101.78,0ZM60.94,109.15c-.74-2.02-2.66-3.36-4.81-3.37-.39,0-.76,.06-1.12,.14-1.28,.23-2.5,.94-2.63,1.01l-1.57,.8c-1.93,.99-4.3,.23-5.29-1.7l-.02-.03c-.99-1.95-.23-4.34,1.72-5.35l5.74-2.95c2.63-1.36,3.82-4.41,2.93-7.16-1.47,.6-3.05,.92-4.64,.92-.95,0-1.87-.12-2.76-.32-1.71-.4-3.32-1.15-4.71-2.23-1.35-1.03-3.29-3.56-4.12-5.05l-3.84,1.71,3.68,10.71,.12,.23c1.82,3.58,.41,7.97-3.15,9.8l2.82,5.57-.62,.32c-1.83,.95-2.55,3.19-1.62,5.03l.71,1.37c5.16-5.92,14.03-6.85,20.3-2.11,.46-.97,.12-2.12-.75-2.69l.04-.1,.39-.91,1.78,.89c.52-1.05,.1-2.32-.93-2.85l.38-.89,1.9,.96c.12-.23,.18-.48,.2-.73,.03-.29,0-.59-.08-.86-.02-.05-.04-.1-.06-.16m.85-44.91l.05-17.92-1.33-.92-1.34,.92-.05,20.36c.62-1.07,1.56-1.92,2.68-2.43m8.27-24.82c-2.05,.76-5.25,1.25-7.91,1.41l.72-13.34c1.12-.8,1.79-2.1,1.8-3.48,.02-2.36-1.88-4.29-4.25-4.31h0c-2.36,0-4.28,1.92-4.28,4.28,0,1.39,.66,2.69,1.78,3.5l.9,13.34c-2.64-.16-6.05-.64-8.08-1.4l-1.48,2.58,1.48,2.58c2.52-.94,6.81-1.46,9.66-1.46s7.14,.52,9.66,1.46l1.48-2.58-1.48-2.58Zm26.81-11.08v-10.71l1.23,1.41v9.49c1.6,.33,3.1,.92,4.45,1.74V15.46h-15.85v.68h0c0,4.66,3.09,8.33,6.56,10.51v.04c-2.26,.2-4.44,.91-6.39,2.07-.86,.51-1.06,1.68-.45,2.48l.11-.08c2.95-2.26,6.66-3.28,10.34-2.84" style="fill:#898989; fill-rule:evenodd;"></path><path d="M86.75,50.65h9.98l-4.74-8.91h-11.4s5.07,2.62,6.15,8.91m-29.12,83.79c-1.48,2.19-3.75,3.73-6.34,4.29,.4-.5,.76-1.06,1.09-1.68,.41-.78,.77-1.65,1.06-2.61h4.19Zm-5.73,0c-.42,1.23-.96,2.29-1.58,3.14-.33,.45-.71,.86-1.15,1.22-.43-.35-.81-.75-1.13-1.2-.63-.85-1.17-1.92-1.59-3.16h5.45Zm7.51-5.34v.04c-.08,1.38-.43,2.74-1.03,3.99h-4.59c.29-1.31,.45-2.65,.49-3.99v-.04h5.13Zm-6.96,3.3c-.05,.24-.11,.49-.16,.72h-6.22c-.32-1.31-.5-2.65-.55-3.99v-.04h7.31v.04c-.04,1.14-.17,2.24-.38,3.27m-7.54,2.03c.3,.97,.66,1.87,1.09,2.66,.33,.61,.69,1.17,1.09,1.66-2.64-.54-4.97-2.09-6.48-4.32h4.3Zm-5.05-1.31c-.61-1.25-.96-2.6-1.03-3.99v-.04h5.24c.04,1.35,.2,2.7,.49,4.02h-4.71Zm17.77-10.66c-1.48-2.19-3.75-3.73-6.34-4.29,.4,.5,.76,1.06,1.09,1.68,.41,.78,.77,1.65,1.06,2.61h4.19Zm-5.73,0c-.42-1.22-.96-2.29-1.58-3.14-.33-.45-.71-.86-1.15-1.21-.43,.35-.81,.75-1.13,1.2-.63,.85-1.17,1.92-1.59,3.16h5.45Zm7.51,5.34v-.04c-.08-1.39-.43-2.74-1.03-3.99h-4.59c.29,1.32,.46,2.67,.49,4.02h5.13Zm-6.96-3.3c-.05-.24-.1-.48-.16-.72h-6.22c-.32,1.31-.5,2.65-.55,3.99v.04h7.31v-.04c-.04-1.1-.17-2.19-.38-3.27m-7.54-2.04c.28-.92,.64-1.81,1.09-2.66,.33-.62,.69-1.17,1.09-1.66-2.64,.54-4.97,2.09-6.48,4.32h4.3Zm-5.05,1.31c-.61,1.25-.96,2.6-1.03,3.99v.04h5.24v-.04c.04-1.34,.21-2.68,.49-3.99h-4.71Z" style="fill:#898989; fill-rule:evenodd;"></path><path d="M124.13,145.35h2.39v-2.41h-2.39v2.41Zm0,7.22h2.39v-2.41h-2.39v2.41Z" style="fill:#898989; fill-rule:evenodd;"></path><path d="M111.58,54.58h-32.86c-.77,0-1.39,.64-1.38,1.4h0c0,.78,.62,1.41,1.38,1.41h32.86c.77,0,1.39-.64,1.38-1.4h0c0-.77-.61-1.4-1.38-1.41h0m-46.22,14.28c-3.24,0-5.87,2.68-5.87,5.98v4.78l-.35,.19-1.31,.7c-1.82,.97-4.08,.27-5.05-1.55l-.03-.06-1.56-3,2.93-1.59,2.48-1.35-.08-6.17-4.43,2.34c-1.51,.79-3.37,.2-4.15-1.3-.03-.05-.05-.11-.08-.16l-.65-1.4,4.12-2.13c1.48-.82,2.19-2.65,1.41-4.17l-.09-.16c-1.63,.9-3.65,.72-5.09-.46l-7.41-6.01,1.47-.76c1.52-.79,2.13-2.69,1.35-4.24l-.06-.11c-1.74,.91-3.85,.73-5.41-.44-1.53-1.15-2.78-2.63-3.63-4.35l-.57-1.14c2.16-1.13,3.02-3.83,1.92-6.04l-.15-.31-3.39,1.76-1.42-2.84-2.13,1.11-5.93-.31-3.23,5.08-2.25,1.17,1.42,2.84-3.39,1.77,.15,.31c1.06,2.16,3.67,3.06,5.83,2,.03-.01,.06-.03,.09-.04l.57,1.14c.86,1.72,1.31,3.62,1.32,5.55,.02,1.98-1.07,3.81-2.82,4.73l.06,.11c.75,1.52,2.59,2.15,4.11,1.4l.06-.03,1.46-.76,.43,9.64c.09,1.88-.94,3.63-2.62,4.47l.08,.17c.74,1.53,2.57,2.17,4.1,1.43h0l3.27-1.6c.59,1.33,.53,2.87-.14,4.17l-5.46,10.37-3.43,6.55c-.59,.69-1.34,1.22-2.21,1.54-1.29,.48-2.71,.43-3.96-.14l-1.2-.74c-.77-.63-1.34-1.45-1.67-2.38-.36-1-.41-2.08-.17-3.11,.1-.29,.22-.57,.38-.85,.61-1.1,1.65-1.89,2.86-2.21l2.14-.62,2.47-.79c-.41-1.37-1.85-2.16-3.22-1.75h-.03l-1.83,.54,3.1-5.95h-.02l2.08-4.13,.1-.2c.5-1.13,.79-1.89,.87-2.24,.19-.88,.25-1.79,.17-2.69-.19-2.14-1.15-4.13-2.72-5.61h.01l-6.69-6.83c-.8,1.33-.6,3.02,.48,4.13l.37,.37H1.86c.35,1.51,1.68,2.58,3.2,2.58h2.07c-.15,.15-.3,.31-.43,.48h-.01l-6.69,6.8c1.3,.81,2.98,.61,4.06-.49l.6-.61v.68c0,2.87,2.47,5.17,5.36,4.79,2.39-.31,4.11-2.5,4.11-4.96v-3.99c-1.4,0-2.53,1.16-2.53,2.58v1.58c0,1.39-1.24,2.49-2.65,2.21-1.05-.21-1.77-1.21-1.77-2.29v-.55c0-.75,.1-1.51,.36-2.21,1.02-2.77,3.71-4.32,6.46-3.95,2.74,.37,4.91,2.69,5.15,5.5,.06,.64,.01,1.28-.12,1.89-.04,.17-.33,.89-.72,1.79l-2.24,4.37h0l-5.41,10.4-.03,.06c-.12,.26-.22,.52-.31,.79-.53,1.25-.72,2.63-.54,3.98l-.76-.47c-2.09-1.3-3.7,.41-3.72,.43l-.13,.15s8.56,5.5,9.25,5.83c1,.48,2.06,.73,3.13,.76,.67,.02,1.34-.06,2-.21l-2.91,5.55-7.08,3.69c-5.01,2.61-6.99,8.86-4.44,13.97l.72,1.44c1.48,3,4.64,4.78,7.97,4.49l.94,1.88c.97,1.97,3.35,2.79,5.32,1.82,.03-.01,.05-.03,.08-.04l.91-.47,.95,1.92c1.05-.54,1.47-1.84,.94-2.9h0l.76-.4s.07-.03,.1-.05l.1-.05,.98,1.99c1.05-.54,1.47-1.84,.94-2.91l-.04-.07,.88-.46,.95,1.92c1.04-.53,1.46-1.83,.94-2.9h.03l-1.23-2.62c-.71-1.53-2.52-2.2-4.05-1.49h-.01l-2.25,1.06c-2.69,.86-5.6-.45-6.73-3.04-1.25-2.79,.02-6.08,2.69-7.47l3.65-1.9,2.42,4.87c1.41,2.85,4.2,4.77,7.37,5.06-.04-.08-.09-.16-.13-.24-.07-.15-.13-.29-.2-.44-.77-1.44-1.17-3.06-1.17-4.69-.01-3.55,1.88-6.82,4.96-8.58v-24.35l9.09-4.72,1.95,4.26c1.72,3.49,5.94,4.94,9.44,3.23l1.78-.92,3.2-1.66-.06,17.51,1.33,3.73,1.34-3.72,.05-18.83,.04-.02c.96,.67,2.11,1.03,3.29,1.03v-16.01h0ZM24.78,48.06l-.03-.09-1.38-4.01-1.5,.78c-.34,.18-.73,.21-1.09,.09-.36-.12-.66-.38-.83-.72l-.07-.13,4.34-2.26,1.8,4.84,1.65,.16,.84-1.46-2.79-4.33,.15-.07,4.19-2.18,.07,.13c.36,.72,.08,1.59-.63,1.96l-1.5,.78,2.42,3.57-1.43,2.47,1.86,3.61-.11,.07-1.28,.65-.08-.1-1.8-3.49-2.8-.27h0Zm12.2,15.26v.07c-.09,.42-.19,.83-.29,1.25l-.04,.16-.15-.06c-.39-.15-.77-.32-1.14-.5l-.06-.03c-2.21-1.09-3.03-2.81-3.07-2.88l-3.53-7.05,1.41-.73,3.54,7.06s.54,1.08,1.86,1.89c.13-1.56-.39-2.61-.41-2.66l-3.53-7.06,1.41-.73,3.52,7.04c.04,.07,.93,1.77,.49,4.23Zm92.05,47.91c.73-1.99,2.61-3.41,4.81-3.41,.39,0,.76,.06,1.12,.14,1.28,.23,2.5,.95,2.63,1.02l1.57,.82c1.92,.99,4.28,.25,5.28-1.67,.01-.03,.03-.06,.04-.09,.99-1.98,.22-4.41-1.73-5.42l-5.75-2.99c-2.63-1.37-3.82-4.47-2.94-7.25,1.47,.61,3.05,.93,4.65,.93,.95,0,1.87-.12,2.76-.33,1.72-.4,3.33-1.17,4.72-2.25,1.35-1.04,3.29-3.6,4.13-5.12l3.84,1.73-3.68,10.85-.12,.23c-1.82,3.63-.41,8.07,3.16,9.93l-2.83,5.64,.62,.32c1.83,.95,2.55,3.23,1.62,5.1l-.71,1.39c-2.76-3.19-6.79-5.2-11.29-5.2-3.38,0-6.51,1.14-9.02,3.06-.46-.97-.14-2.13,.75-2.73l-.04-.1-.39-.93-1.78,.91c-.52-1.06-.11-2.34,.93-2.89l-.38-.9-1.9,.97c-.11-.23-.18-.48-.2-.74-.03-.29,0-.59,.08-.87,.02-.06,.04-.11,.06-.16m-.85-45.51l-.04-18.16,1.33-.93,1.34,.93,.05,20.63c-.62-1.08-1.56-1.94-2.68-2.47m-8.28-25.15c2.05,.78,5.26,1.27,7.92,1.43l-.72-13.51c-1.13-.82-1.8-2.13-1.8-3.53-.01-2.4,1.89-4.36,4.25-4.36,2.35,0,4.27,1.93,4.28,4.33,0,1.4-.65,2.72-1.78,3.55l-.9,13.52c2.65-.16,6.06-.65,8.09-1.42l1.48,2.62-1.48,2.62c-2.53-.96-6.82-1.48-9.67-1.48s-7.14,.52-9.67,1.48l-1.48-2.61,1.48-2.62h0Zm12.45,96.28c.19,.28,.39,.56,.61,.82,1.46,1.78,3.48,3.03,5.73,3.53-.42-.53-.78-1.1-1.1-1.7-.44-.85-.79-1.73-1.06-2.64h-4.19Zm5.74,0c.42,1.24,.95,2.32,1.58,3.18,.36,.49,.74,.9,1.15,1.23,.43-.35,.81-.76,1.13-1.21,.63-.86,1.17-1.95,1.59-3.2h-5.45Zm-7.52-5.41v.04c.08,1.45,.44,2.81,1.03,4.04h4.6c-.29-1.33-.45-2.68-.49-4.04v-.04h-5.13Zm6.97,3.35c.05,.25,.1,.49,.16,.73h6.23c.32-1.33,.5-2.68,.55-4.04v-.03h-7.32v.04c.04,1.15,.17,2.27,.39,3.31m7.55,2.06c-.27,.93-.64,1.83-1.09,2.69-.31,.59-.68,1.15-1.09,1.68,2.31-.48,4.38-1.73,5.87-3.55,.22-.26,.42-.54,.61-.82h-4.3Zm5.05-1.33c.59-1.23,.95-2.6,1.03-4.04v-.04h-5.25v.04c-.04,1.36-.21,2.71-.49,4.04h4.71Zm-17.79-10.8c.19-.28,.39-.55,.61-.82,1.46-1.78,3.48-3.03,5.73-3.52-.4,.5-.76,1.07-1.1,1.7-.44,.84-.79,1.73-1.06,2.64h-4.19Zm5.74,0c.42-1.24,.95-2.32,1.58-3.18,.36-.49,.74-.9,1.15-1.23,.4,.32,.78,.73,1.13,1.21,.63,.86,1.17,1.95,1.59,3.2h-5.45Zm-7.52,5.41v-.04c.08-1.44,.44-2.81,1.03-4.04h4.6c-.29,1.33-.45,2.68-.49,4.04v.04h-5.13Zm6.97-3.35c.05-.25,.1-.49,.16-.73h6.23c.32,1.33,.5,2.68,.55,4.04v.04h-7.32v-.04c.04-1.11,.17-2.22,.39-3.31m7.55-2.06c-.27-.93-.64-1.83-1.09-2.69-.31-.59-.68-1.15-1.09-1.68,2.34,.48,4.39,1.76,5.87,3.56,.22,.26,.42,.53,.61,.82h-4.3Zm5.05,1.33c.61,1.28,.96,2.66,1.03,4.08h-5.25v-.04c-.04-1.36-.21-2.71-.49-4.04h4.71Z" style="fill:#898989; fill-rule:evenodd;"></path><path d="M124.94,84.87c1.22,0,2.35-.38,3.28-1.03l.04,.02,.05,18.83,1.34,3.72,1.33-3.73-.06-17.51,3.2,1.66,1.77,.92c3.5,1.71,7.72,.26,9.44-3.23l1.95-4.26,9.09,4.72v24.35c3.08,1.76,4.98,5.03,4.96,8.58,0,1.7-.42,3.3-1.17,4.69-.06,.15-.12,.3-.2,.44l-.13,.24c3.17-.29,5.96-2.21,7.37-5.06l2.42-4.86,3.65,1.9c2.67,1.39,3.94,4.69,2.69,7.47-1.19,2.66-4.12,3.9-6.73,3.04l-2.25-1.06c-1.53-.71-3.34-.05-4.05,1.47h0l-1.23,2.62,.03,.02c-.52,1.06-.1,2.35,.94,2.9l.94-1.92,.88,.46-.04,.07c-.53,1.07-.1,2.37,.94,2.91l.98-1.99,.1,.05,.1,.04,.76,.39h0c-.53,1.07-.1,2.37,.94,2.91l.95-1.92,.91,.47c1.95,1.01,4.35,.24,5.36-1.71,.01-.03,.03-.05,.04-.08l.94-1.88h0c3.33,.29,6.49-1.5,7.97-4.49l.72-1.44c2.56-5.1,.57-11.36-4.44-13.97l-7.08-3.69-2.91-5.55c.66,.16,1.33,.23,2,.22,1.07-.03,2.13-.28,3.13-.76,.7-.33,9.25-5.83,9.25-5.83l-.14-.14s-1.63-1.73-3.72-.43l-.76,.47c.17-1.35-.01-2.72-.54-3.97-.09-.27-.19-.53-.31-.79l-.03-.06-5.41-10.39h0l-2.24-4.38c-.39-.9-.68-1.62-.73-1.79-.13-.62-.17-1.26-.12-1.89,.24-2.82,2.41-5.13,5.15-5.5,2.74-.37,5.44,1.18,6.46,3.95,.26,.7,.36,1.46,.36,2.21v.55c0,1.09-.72,2.09-1.77,2.29-1.41,.28-2.65-.82-2.65-2.21v-1.58c0-1.42-1.13-2.58-2.53-2.58v3.99c0,2.45,1.73,4.65,4.11,4.96,2.89,.38,5.36-1.92,5.36-4.79v-.68l.59,.61c1.07,1.1,2.76,1.3,4.05,.49l-6.69-6.82h-.01c-.14-.15-.28-.31-.43-.46h2.07c1.53,0,2.85-1.07,3.2-2.58h-11.25l.37-.37c1.08-1.1,1.28-2.81,.47-4.14l-6.69,6.82h.01c-1.56,1.48-2.53,3.48-2.72,5.62-.08,.91-.02,1.81,.17,2.69,.08,.36,.37,1.11,.87,2.24,.02,.05,.07,.14,.09,.2l2.08,4.12h-.01l3.1,5.96-1.83-.53c-1.37-.43-2.82,.33-3.25,1.7v.04l2.46,.78,2.15,.62c1.24,.33,2.23,1.1,2.86,2.21,.15,.27,.28,.56,.38,.85,.48,2.03-.23,4.16-1.84,5.5l-1.2,.74c-1.25,.57-2.67,.62-3.96,.14-.86-.32-1.61-.85-2.21-1.54l-3.43-6.55-5.45-10.38c-.68-1.29-.73-2.83-.14-4.16l3.27,1.59c1.52,.75,3.34,.11,4.1-1.43l.08-.17c-1.68-.84-2.71-2.59-2.62-4.47l.43-9.64,1.46,.76c1.52,.79,3.39,.18,4.17-1.37l.06-.11c-1.75-.92-2.84-2.75-2.83-4.73,0-1.93,.46-3.83,1.32-5.55l.57-1.14c2.14,1.11,4.77,.27,5.87-1.87,.02-.03,.03-.06,.05-.09l.15-.31-3.39-1.76,1.42-2.84-2.25-1.17-3.23-5.08-5.93,.31-2.13-1.11-1.42,2.84-3.39-1.76-.15,.31c-1.1,2.21-.25,4.91,1.92,6.03l-.57,1.14c-.85,1.71-2.1,3.2-3.63,4.35-1.57,1.18-3.68,1.35-5.42,.44l-.06,.11c-.78,1.55-.18,3.45,1.35,4.25l1.47,.76-7.41,6.01c-1.44,1.18-3.46,1.36-5.09,.46l-.09,.16c-.78,1.53-.07,3.35,1.42,4.17l4.12,2.13-.64,1.4c-.7,1.55-2.52,2.24-4.07,1.54-.06-.03-.11-.05-.17-.08l-4.43-2.34-.08,6.17,2.48,1.34,2.93,1.59-1.56,3c-.93,1.84-3.18,2.57-5.02,1.64l-.06-.03-1.31-.7-.35-.19v-4.78c0-3.3-2.63-5.98-5.87-5.98v16.01h0Zm37.79-36.55l-1.8,3.49-.08,.1-1.28-.64-.11-.07,1.86-3.61-1.43-2.47,2.42-3.57-1.5-.78c-.71-.38-.98-1.25-.62-1.96l.07-.14,4.19,2.18,.15,.08-2.79,4.33,.84,1.45,1.65-.16,1.8-4.84,4.33,2.25-.07,.13c-.17,.34-.47,.6-.83,.72-.36,.12-.76,.09-1.09-.09l-1.5-.78-1.38,4.01-.03,.09-2.8,.27h0Zm-8.9,10.76l3.52-7.04,1.41,.73-3.53,7.06s-.54,1.09-.41,2.66c1.32-.81,1.86-1.87,1.86-1.89l3.54-7.07,1.41,.73-3.53,7.05c-.04,.07-.86,1.79-3.07,2.88l-.06,.03c-.38,.18-.76,.35-1.14,.5l-.15,.06-.04-.16c-.07-.28-.15-.62-.23-1.02-.02-.07-.03-.15-.04-.22v-.07c-.44-2.46,.45-4.17,.48-4.23Z" style="fill:#898989; fill-rule:evenodd;"></path></g></g></g></svg>