<svg xmlns="http://www.w3.org/2000/svg" viewBox="0 0 447.44 63.26"><g id="a"></g><g id="b"><g id="c"><g id="d"><g id="e"><path d="M257.68,62h-8.93v-28c0-5.07-1.66-7.27-6.66-7.93-2.71-.33-5.45-.25-8.13,.25-3.71,.66-5.38,3.21-5.4,7.58v27.98h-8.85c-.08-.33-.13-.66-.15-1,0-9.4,0-18.81,.05-28.21,0-3.13,.95-6.18,2.72-8.76,2.75-4,6.87-5.59,11.4-6.27,4.5-.74,9.1-.51,13.5,.68,6.13,1.71,10.17,6.17,10.38,12.61,.32,10.26,.08,20.54,.08,31" style="fill:#898989;"></path><path d="M137.05,62.05h-8.86v-27.8c0-5.41-1.68-7.62-6.95-8.27-2.67-.29-5.37-.17-8,.37-3.66,.71-5.26,3.19-5.28,7.47v28.25h-8.77c0-10.51-.31-21.08,.22-31.49,.34-6.85,4.91-10.88,11.51-12.42,5.23-1.27,10.69-1.18,15.87,.26,6.13,1.71,10.09,6.29,10.28,12.68,.29,10.14,.12,20.42,.14,30.57,0,.1-.09,.21-.18,.41" style="fill:#898989;"></path><path d="M183.19,.3h8.84V46.45c-.05,1.35-.1,2.4,0,3.53,.49,3.14,1,4.56,5.63,4.06,.55-.07,1.09-.2,1.89-.36,0,2.57,.06,5-.05,7.51,0,.38-.76,.95-1.24,1-7.08,1.44-14.91-1-15.11-11.17-.34-16.74-.09-33.5-.08-50.26,.03-.18,.08-.35,.15-.51" style="fill:#898989;"></path><rect x="142.46" y=".47" width="8.74" height="61.53" style="fill:#898989;"></rect><path d="M182.73,61.99h-10.62c-.53-.07-1.02-.34-1.36-.75-4.33-5-10.09-9.95-14.36-15-3.95-4.65-4.47-10,.16-14.85,3.75-3.91,7.19-8.1,10.81-12.13,.42-.5,1-.84,1.65-.94,3.35-.09,6.7,0,10.47,0-2,2.3-3.78,4.34-5.58,6.36-3.39,3.81-6.81,7.6-10.2,11.42-1.89,2.13-1.85,3.5,.06,5.7,5.74,6.64,12.92,13.27,19,20.25" style="fill:#898989;"></path><path d="M418.19,62h-9V.48h8.83V22.68l2-1.73c5.32-4.52,16.43-4.87,22.1-.75,3.33,2.44,5.27,6.34,5.2,10.47,.21,10.38,.07,20.77,.07,31.28h-9.06v-2.12c0-8.78,.07-17.57-.11-26.34-.1-5-2.2-7.11-7.12-7.58-1.8-.16-3.61-.08-5.38,.24-4.63,.79-7.12,3.47-7.36,8.22-.17,5.11-.17,10.2-.17,15.31v12.32" style="fill:#898989;"></path><path d="M320.19,23.95v8.74h-23.58v29.31h-9.42V10.68c-.04-1,0-2,.09-3,.7-5,3.37-7.51,8.48-7.58C304.76-.02,313.82,.02,322.85,0c.28,.02,.56,.06,.84,.11V8.72h-22.7c-3.7,0-4.42,.74-4.43,4.51v10.72h23.63Z" style="fill:#898989;"></path><path d="M364.19,53.54c-1.75,.66-3.6,1-5.47,1-3.59,0-5.84-2.57-6-6.15-.24-7.08-.17-14.18-.22-21.27,0-.1,.14-.2,.36-.49h9.85v-8.51h-10.28V6.68h-8.87c-.05,3.08-.09,20.15-.09,20.15v8.37c.09,5.28,0,10.58,.42,15.85,.11,3.69,2.02,7.09,5.12,9.1,3.46,2.17,7.6,2.96,11.61,2.21,2.46-.35,4.78-1.34,6.73-2.88-1.55-1.69-2.63-3.76-3.13-6" style="fill:#898989;"></path><path d="M395.92,46.16c-.05,.65-.07,1.2-.13,1.74-.4,3.67-2,5.66-5.6,6.17-2.58,.38-5.2,.38-7.78,0-3.71-.55-5.7-2.57-6-6.33-.36-4.71-.44-9.45-.22-14.17,.15-3.43,1.71-6.5,5.49-7,3.12-.38,6.28-.38,9.4,0,2.58,.27,4.14,2.09,4.54,4.74,.13,.91,.27,1.82,.42,2.8h9.06c-.08-1-.16-1.84-.23-2.69-.48-6.62-4.08-11.13-10.47-12.95-4.16-1.11-8.51-1.37-12.77-.75-7.61,1-13.22,5.94-14.08,13.45-.66,5.75-.78,11.54-.36,17.31,.13,1.92,.59,3.81,1.34,5.58,.77,1.86,1.96,3.52,3.48,4.85,1.65,1.42,3.6,2.47,5.7,3.06,5.83,1.72,12.05,1.64,17.83-.23,6.57-2.06,10-8.5,9.13-15.58h-8.75Z" style="fill:#898989;"></path><path d="M94.33,31.14c0-6-3.07-10.33-8.79-12.26-5.22-1.75-10.85-1.88-16.15-.4-6.48,1.73-10.06,7-9.35,13.8h8.06c.29-6.26,5.23-7.8,11.93-6.61,4.47,.8,6.43,5,5,10.74h-3.69c-4,.13-8.09,.11-12.11,.52-3.52,.17-6.81,1.82-9.04,4.55-4.42,5.78-3.31,14.04,2.47,18.46,1.42,1.09,3.05,1.87,4.79,2.31,5.29,1.27,10.79,1.35,16.11,.23,7.37-1.47,10.76-5.82,10.79-13.4V31.14m-9.18,19c-.11,2.7-2.3,4.85-5,4.93-2.71,.25-5.44,.25-8.15,0-3.46-.33-5.19-2.38-5.28-5.62s1.73-5.63,5.2-5.89c4.37-.32,8.78-.07,13.26-.07,.12,2.2,.12,4.4,0,6.6" style="fill:#898989;"></path><path d="M57.49,18.21v8.71c-2.07-.16-4.09-.45-6.1-.43-4.68,.06-6.83,2.2-6.89,6.91-.08,7.22,0,13.7,0,20.92v7.75h-8.93c0-.43-.08-1-.08-1.36v-28.39c.08-8.17,5.16-13.5,13.35-14.08,2.82-.19,5.66,0,8.63,0" style="fill:#898989;"></path><rect x="328.04" y="20.51" width="8.87" height="41.49" style="fill:#898989;"></rect><path d="M337.92,6.13c.57,3-1.39,5.9-4.39,6.47-3,.57-5.9-1.39-6.47-4.39s1.39-5.9,4.39-6.47c.72-.14,1.46-.13,2.18,.02,2.19,.45,3.88,2.18,4.29,4.37" style="fill:#898989;"></path><rect x="204.9" y="20.51" width="8.87" height="41.49" style="fill:#898989;"></rect><path d="M214.77,6.13c.57,3-1.39,5.9-4.39,6.47-3,.57-5.9-1.39-6.47-4.39s1.39-5.9,4.39-6.47c.72-.14,1.47-.13,2.19,.02,2.19,.45,3.88,2.18,4.28,4.37" style="fill:#898989;"></path><path d="M31.63,23.95v8.74H9.42v29.31H.01V10.68c-.04-1,0-2,.1-3C.81,2.68,3.48,.17,8.59,.1c9-.12,18-.08,27.08-.1,.28,.02,.56,.06,.84,.11V8.72H13.82c-3.71,0-4.42,.74-4.43,4.51v10.72H31.63Z" style="fill:#898989;"></path></g></g></g></g></svg>