<svg xmlns="http://www.w3.org/2000/svg" viewBox="0 0 510.26 72.6"><g id="a"></g><g id="b"><g id="c"><g><path d="M.2,13.03v1.71H3.01s5.82,.6,5.82,6.58V63.55s-1,6.16-5.42,6.16H.21v1.07H26.73v-.97h-3.23s-5.02-1.34-5.02-6.26v-22.2h4.42s9.75,.2,10.45,9.44l.1,2.41h1.23V28h-1.03s-.9,11.55-10.44,11.55h-4.93V14.74h9.9s8.28,.2,12,4.92c3.72,4.72,4.02,7.83,4.02,7.83h.7l-.84-14.46H0" style="fill:#898989;"></path><path d="M78.7,70.51c11.53,0,20.88-12.81,20.88-28.61s-9.35-28.61-20.88-28.61-20.88,12.81-20.88,28.61,9.35,28.61,20.88,28.61m-30.57-28.26c0-16.49,13.87-29.86,30.99-29.86s30.98,13.37,30.98,29.86-13.87,29.86-30.98,29.86-30.99-13.37-30.99-29.86" style="fill:#898989;"></path><path d="M147.13,70.51c11.53,0,20.88-12.81,20.88-28.61s-9.35-28.61-20.88-28.61-20.88,12.81-20.88,28.61,9.35,28.61,20.88,28.61m-30.57-28.26c0-16.49,13.87-29.86,30.99-29.86s30.98,13.37,30.98,29.86-13.87,29.86-30.98,29.86-30.99-13.37-30.99-29.86" style="fill:#898989;"></path><path d="M199.77,14.91l.02,47.4s-.49,7.69,11.32,7.69,21-11.88,20.72-26.35c-.28-14.47-9.07-28.85-23.28-28.85-6.57,0-8.79,.1-8.79,.1m-9.65,46.15V23.2c0-9.05-8.58-8.58-8.58-8.58v-1.03h29.58c7.98,0,30.48,2.63,30.48,30.1s-23.84,27.08-23.84,27.08h-36.33v-1.21c9.75,0,8.68-8.51,8.68-8.51" style="fill:#898989;"></path><path d="M346.88,22.34c0-8.33,8.81-7.89,8.81-7.89l.04-1.51h-27.59v1.69s9.17-.44,9.17,6.47v18.87h-29.51V21.1c0-6.91,9.17-6.47,9.17-6.47v-1.69h-27.59l.04,1.51s8.81-.44,8.81,7.89V61.42c0,8.33-8.81,7.89-8.81,7.89l-.04,1.5h27.59v-1.68s-9.17,.44-9.17-6.47v-20.29h29.51v20.29c0,6.91-9.17,6.47-9.17,6.47v1.68h27.59l-.04-1.5s-8.81,.44-8.81-7.89V22.34Z" style="fill:#898989;"></path><path d="M276.31,18.93c0,3.24-1.47,2.58-1.47,6.28,0,2.01,2.37,2.94,3.87,2.94s3.96-1.8,3.96-5.03c0-4.18-3.83-11.09-15.13-11.09s-16.72,7.99-16.72,17.11,8.71,12.64,13.09,15.03c4.38,2.39,13.09,6,13.09,15.19s-7.08,11.85-11.22,11.85-10.8-2.21-10.8-7.86c0-5.12,2.66-5.03,2.66-7.38,0-2.99-2.04-3.44-3.54-3.44s-4.77,2.02-4.77,7.32c0,4.78,5.4,12.75,16.07,12.75s20.71-7.34,20.71-17.39c0-9.46-4.39-12.95-11.55-16.84-7.15-3.9-17.03-7.69-17.03-15.02s5.45-10.07,9.61-10.07c.02,0,9.16-.25,9.16,5.65" style="fill:#898989;"></path><path d="M416.86,14.67s6.71-.55,8.9,4.66c2.19,5.2,21.55,51.2,21.55,51.2h1.73l15.2-44.24,15.08,44.24h1.49l20.6-49.47s3.51-6.53,8.85-6.53v-1.63h-19.18v1.36s9.9,.3,7.12,7.68c-2.49,6.6-14.49,36.28-14.49,36.28l-11.39-36.53s-1.46-7.15,7.94-7.15v-1.63h-26.16v1.5s8.35-.09,8.35,7.42c0,7.94-11.01,36.15-11.01,36.15l-15.13-36.92s-2.99-6.38,6.72-6.38v-1.37h-26.2l.02,1.37Z" style="fill:#898989;"></path><path d="M383.44,14.46c-8.65,3.49-14.96,14.46-14.96,27.44,0,15.8,9.35,28.61,20.88,28.61s20.88-12.81,20.88-28.61c0-12.48-5.6-23.74-13.67-27.78-.53-.26-.91-.34-.75-.79,.15-.45,1.08-.15,1.08-.15,13.68,3.1,23.87,14.94,23.87,29.07,0,16.49-13.87,29.86-30.99,29.86s-30.98-13.37-30.98-29.86c0-15.42,13.11-29.01,27.04-29.7,1.09-.06,8.84,0,8.84,4.51,0,2.36-1.75,3.15-2.97,3.15s-2.35-.76-3.75-3.54c-1.16-2.28-2.23-2.42-3.22-2.41-.72,0-1.28,.18-1.28,.18" style="fill:#898989;"></path><path d="M395.22,7.63s-1.17-7.63,5.07-7.63c3.59,0,7.41,3.54,9.38,3.54,2.59,0,4.31-2.86,4.31-2.86,0,0,1.11,7.81-4.38,7.81-6.23,0-7.4-3.57-10.27-3.57s-4.11,2.71-4.11,2.71" style="fill:#898989;"></path></g></g></g></svg>