<svg xmlns="http://www.w3.org/2000/svg" viewBox="0 0 407.98 280.49"><g id="a"></g><g id="b"><g id="c"><g><path d="M190.82,82.69c-.67-.86-1.53-1.73-5.08-1.73h-13.94v8.81h14.35c1.92,0,5.38-.27,5.38-4.29,0-.7-.11-1.92-.7-2.79Z" style="fill:#898989;"></path><path d="M181.2,31.23c-6.8,0-12.74,4.9-12.74,12.61s5.94,12.62,12.74,12.62,12.74-4.9,12.74-12.62-5.96-12.61-12.74-12.61Z" style="fill:#898989;"></path><path d="M304.5,162.13c-.19,.31-.23,.66,.24,1.13,.62,.7,1.92,.7,2.77,.69,0,.17,9.61-.34,13.35-.28,3.77,.05,9.58,3.48,10.53,3.91,1.36,.66,6.97,1.2,8.3,1.55,3.01,.91,9.14,4.97,11.94,4.23,.03-2.23-3.01-4.91-3.76-6.37-1.03-1.89-1.06-3.82-2.23-5.69-1.83-2.95-3.09-5.57-1.81-7.81,0-.15-2.4-2.87-4.56-3.34-1.54-.34-2.97-.73-4.4-1.37-1.29-.57-2.56-1.58-3.99-1.5-1.34,.09-2.71,0-4.02-.3-1.22-.29-1.86-.87-2.73-1.68-.34-.28-.66-.55-.97-.83-.33-.24-.85-.2-1.14,.05-1,.89-.04,2.21,.29,3.1,.12,.31,.54,1.33,.02,1.68-4.07,2.94-16.42,10.42-17.82,12.85Z" style="fill:#898989;"></path><path d="M85.72,80c-6.81,0-12.75,4.91-12.75,12.61s5.93,12.62,12.75,12.62,12.73-4.9,12.73-12.62-5.95-12.61-12.73-12.61Z" style="fill:#898989;"></path><path d="M230.01,32.14h-10.1v9.84h11.06c2.91,0,6.85-.05,6.85-4.82,0-1.92-.66-3.14-1.53-3.96-1.22-1.06-2.53-1.06-6.29-1.06Z" style="fill:#898989;"></path><path d="M143.42,33.95c-.65-.89-1.51-1.75-5.08-1.75h-13.94v8.8h14.34c1.95,0,5.4-.26,5.4-4.27,0-.71-.11-1.94-.72-2.78Z" style="fill:#898989;"></path><path d="M316.14,35.52c-.15-.46-.25-.93-.3-1.43-.17,.47-.26,.87-.36,1.27-.2,.46-.36,.93-.58,1.37l-5.43,11.94h12.61l-5.35-11.73c-.25-.47-.45-.99-.61-1.43Z" style="fill:#898989;"></path><path d="M25.5,0C11.41,0,0,11.41,0,25.5v254.99H211.46c-.51-4.53-1.22-10.13-1.41-11.34-.05-.21-.06-.51-.06-.6,.16-7.44,2.21-23.75,2.01-23.75-1.5-2.62-.95-7.61-.95-7.61-.05-1.08-.09-2.13-.12-3.18-6.64-16.18-9.8-28.44-10.56-37.96-25.06,14.3-55.19,31.48-66.2,38-3.93,2.33-5.78,4.8-5.21,6.99,2.03,7.48,7.71,22.82-4.09,25.63-4.92,1.18-10.03-2.23-11.71-6.91-1.94-5.39,.3-13.02,3.73-17.68,5.31-7.2,8.55-6.9,14.28-10.17,8.36-4.78,41.6-23.81,69.06-39.55-.21-15.93,7.1-23.13,15.91-28.31,4.9-1.6,7.8-4,7.8-4,2.82-.97,9.28-3.03,17.11-5.58-3.77-1.58-5.41-4.92-5.04-6.62,.3-1.34-.8-4.09-.8-4.09-2.79-5.89-3.39-19.62-3.39-19.62l2.13-3.96s-.98-4-.81-5.85c-.11-.04-.09-.07,0-.09-18.37-10.82-6.42-24.03,8.25-25.09,3.75-.26,16.76-.76,21.96-1.33,10.65-1.17,19.13,4.64,26.23,10.57,7.31,6.12,13.11,8.69,11.85,15.41-1.59,8.51-10.64,15.12-12.14,16.16-.68,3.33-1.47,6.36-2.28,7.13,.03,.03,.03,.06,.05,.11l1.04-.41c1.75-1.01,2.93-1.88,3.34-2.62,.09-.22,12.87-9.33,13.04-9.18,2.6-1.92,6.81,.41,6.94,.23,.48-1.78,8.93-5.94,8.93-5.94,5.33-3.06,7.83,1.95,7.83,1.95,.78-.75,2.84,.79,2.84,.79,0,0,1.7-1.17,1.7-1.04,1.43-3.45,5.32-2.23,5.48-2.04,.8-1.04,3.5-.41,3.5-.41,1.79,.03,5.15,2.63,5.15,2.78,.59-.17,.76-.34,1.48-.53,2.17-.09,6.6,4.32,4.61,8.28-.53,.44-1.34,.96-1.88,1.29-.67,6.64,5.26,11.35,5.26,11.35,6.36-3.63,5.79-3.05,10.98,.27,5.13,4.3,4.38,8.16,6.05,9.88,1.68,1.73,4.97,8.91,5.13,8.76,7.63,6.46,13.47,32.41,13.29,32.26,4.43,10.81-.98,12.06-9.9,15.29-4.79,1.97-7.17,3.16-8.05,3.66-.36,.2-.7,.37-.86,.4-6.63,1.17-18.4,2.05-21.52,2.37-.55,.06-1.16,.09-1.37,.09-6.95-.29-24.56,1.5-24.56,1.5,0,0,.15,34.41,.05,37.6,0,.16,0,.44-.02,.53-.8,10.17,.07,19.87,1,26.17h55.98c14.08,0,25.5-11.44,25.5-25.5V0H25.5Zm42.52,31.79c0-3.26,2.64-5.89,5.9-5.89h3.05v20.75c0,3.74,.33,4.94,1.82,6.4,1.79,1.82,4.75,2.6,8.55,2.6s6.74-.78,8.56-2.6c1.45-1.46,1.82-2.66,1.82-6.4v-14.85c0-3.26,2.61-5.89,5.87-5.89h3.08v20.75c-.09,3.82-.09,7.43-3.11,10.77-3.73,4.12-10.79,5.49-16.22,5.49s-12.51-1.36-16.21-5.49c-3.06-3.34-3.06-6.95-3.12-10.77v-14.85Zm-8.4,49.43h-13.32v29.32h-8.98v-29.32h-13.34v-.68c0-3.24,2.66-5.88,5.89-5.88h29.76v6.56Zm0-48.8h-26.49v7.91h26.49v6.53h-26.49v8.39h26.49v6.53H25.15V31.79c0-3.26,2.65-5.89,5.9-5.89h28.56v6.53Zm26.11,79.25c-12.91,0-21.99-6.71-21.99-19.06s9.08-19.06,21.99-19.06,21.98,6.72,21.98,19.06-9.08,19.06-21.98,19.06Zm68.32-16.26c-.05,3.82-.05,7.42-3.11,10.78-3.69,4.12-10.77,5.49-16.2,5.49s-12.51-1.36-16.22-5.49c-3.04-3.35-3.04-6.95-3.1-10.78v-14.86c0-3.24,2.63-5.88,5.89-5.88h3.06v20.74c0,3.75,.34,4.96,1.79,6.41,1.82,1.81,4.78,2.6,8.57,2.6s6.75-.79,8.55-2.6c1.48-1.45,1.82-2.66,1.82-6.41v-14.86c0-3.24,2.64-5.88,5.89-5.88h3.06v20.74Zm-9.8-33.62l-9.62-14.43h-10.22v14.43h-8.98V31.79c0-3.26,2.63-5.89,5.89-5.89h18.81c4.07,0,7.78,.35,10.79,3.81,1.83,2.14,2.32,4.85,2.32,6.92,0,2.75-.91,6-3.46,7.94-1.91,1.47-4.41,1.98-5.83,2.24l10.87,14.99h-10.56Zm47.37,48.76l-9.61-14.42h-10.21v14.42h-8.98v-30c0-3.24,2.62-5.88,5.88-5.88h18.81c4.07,0,7.78,.37,10.78,3.83,1.84,2.13,2.35,4.81,2.35,6.91,0,2.74-.92,6-3.46,7.91-1.94,1.49-4.43,1.99-5.85,2.25l10.87,14.98h-10.57Zm-10.42-47.65c-12.92,0-21.99-6.7-21.99-19.06s9.07-19.05,21.99-19.05,21.99,6.71,21.99,19.05-9.08,19.06-21.99,19.06Zm63.11-18.37c-2.93,3.55-7.25,3.76-11.87,3.76h-12.53v13.5h-8.83V31.79c0-3.26,2.64-5.89,5.88-5.89h16.25c3.81,0,8.73,.15,11.58,4.22,1.26,1.84,1.96,4.31,1.96,7.05,0,3.46-1.09,5.8-2.43,7.37Zm43.82-12.11h-26.49v7.91h26.49v6.53h-26.49v8.39h26.49v6.53h-34.45V31.79c0-3.26,2.64-5.89,5.89-5.89h28.56v6.53Zm39.89,29.36l-3.03-6.75h-18.43l-3.03,6.75h-9.82l17.34-35.89h9.72l17.33,35.89h-10.07Zm54.81,0h-8.9l-17.78-20.23c-1.89-2.19-2.65-3.11-4.65-5.64,.27,2.74,.27,3.36,.33,6.1v19.77h-8.56V31.79c0-3.26,2.66-5.89,5.89-5.89h3.08l17.57,19.98c2.15,2.49,2.54,2.99,4.8,5.79-.32-3.41-.32-4.31-.37-7.4v-12.48c0-3.26,2.64-5.89,5.89-5.89h2.7V61.78Zm-43.54,207.15h-3.02v7.94h-1.88v-7.94h-3.03v-1.71h7.92v1.71Zm12.04,7.94h-1.87v-6.69l-2.39,6.69h-1.61l-2.39-6.69v6.69h-1.86v-9.64h2.76l2.39,6.82,2.34-6.82h2.62v9.64Z" style="fill:#898989;"></path></g></g></g></svg>