<svg xmlns="http://www.w3.org/2000/svg" viewBox="0 0 318.37 289.22"><g id="a"></g><g id="b"><g id="c"><g><g><path d="M229.16,88.3c9.63-6.79,18.84-5.85,27.66-.33,5.6,3.5,10.02,7.94,9.51,15.7-.17,2.61,2.38,5.36,3.53,8.12,.56,1.35,.76,2.85,.94,3.55-4.01-2.83-7.78-5.32-11.35-8.06-3.53-2.71-6.87-5.67-10.25-8.56-3.4-2.92-6.35-6.67-10.22-8.66-5.93-3.05-9.92,.46-9.67,7.03,.28,7.44-.14,14.91-.19,22.36-.05,7.25-.01,14.51-.01,23.3-46.88-8.23-92.64,2.38-138.57-.88,0-5.6,.1-10.3-.02-14.98-.27-10.17-.43-20.35-1.09-30.49-.42-6.47-5.85-9.36-11.55-5.97-3.62,2.15-6.32,5.79-9.58,8.59-3.68,3.14-7.49,6.14-11.32,9.09-3.13,2.42-6.39,4.68-9.85,7.21,0-.09-.65-2.18-.17-2.48,3.78-2.32,3.57-5.87,3.92-9.62,1.53-16.05,23.58-25.48,37.6-15.12v-20.02c-3.19,2.01-6.09,3.44-8.5,5.45-4.98,4.15-10.42,6.67-16.94,7.58-2.63,.37-4.92,3.19-8.05,5.38,.22-1.36,.07-2.81,.68-3.79,1.82-2.98,4.55-5.54,5.82-8.7,3.67-9.15,10.98-12.38,19.93-13.28,2.29-.23,4.63-.03,7.8-.03V0H228.52V60.78c3.6,0,6.33-.21,9.02,.04,10.59,.96,17.05,6.64,19.97,16.9,.47,1.64,2.34,2.85,3.45,4.35,.82,1.12,1.46,2.38,2.65,4.38-12.29-6.21-23.25-11.73-34.45-17.39v19.26ZM92.77,2.64c0,19.18-.35,36.87,.1,54.55,.48,19.08,1.92,38.13,2.53,57.21,.25,7.77-.61,15.56-.98,23.68,43.5-1,86.92-2,130.31-3V4.07c-2.99-.35-4.72-.8-6.43-.72-18.5,.82-37,1.73-55.5,2.59-1.76,.08-3.53,.06-5.29-.02-21-1.05-42-2.12-64.73-3.28Z" style="fill:#898989;"></path><path d="M163.74,187.15c1.28-10.38,2.54-20.66,3.76-30.54,9.69-3.78,21.05,3.94,29.01-5.87,2.92,7.31-2.36,16.03-9.69,16.06-2.76,0-5.52,0-8.29,0-8.82,0-8.85,.04-8.49,9.82,3.55,.69,7.23,1.17,10.78,2.14,12.53,3.43,17.97,15.02,12.76,26.9-4.68,10.68-20.1,17.3-31.03,13.28-1.09-.4-2.44-.83-3.04-1.69-.8-1.13-.99-2.7-1.44-4.08,1.35-.4,2.72-1.18,4.03-1.1,1.28,.08,2.5,1.07,3.75,1.64,7.01,3.15,15.05,.62,17.76-5.59,3.21-7.35-.25-15.67-7.98-18.35-3.65-1.26-7.58-1.71-11.89-2.63Z" style="fill:#898989;"></path><path d="M130.05,186.25c4.31-4.54,8.69-8.36,11.93-12.98,1.13-1.61,.43-6.11-1.1-7.71-9.58-10-14.09,.08-20.08,6.83-1.41-6.36,1.6-9.8,4.58-12.86,5.74-5.89,15.88-6.97,23.04-2.88,6.8,3.88,8.74,12.53,3.87,18.81-2.12,2.74-5.05,4.85-7.99,7.61,1.04,.48,2.13,.99,3.22,1.48,11.86,5.4,14.3,18.34,5.2,27.65-6.77,6.93-20.81,10.01-29.77,6.45-1.43-.57-3.43-1.35-3.82-2.49-.73-2.11-.45-4.56-.6-6.86,2.25,.11,5.64-.67,6.54,.49,3.22,4.13,6.03,7.97,12.06,5.36,4.98-2.15,6.91-6.51,7.21-11.34,.37-5.99-1.57-11.34-7.3-14.41-2.54-1.36-5.26-2.37-6.99-3.13Z" style="fill:#898989;"></path><path d="M76.34,207.4c-4.83-4.51-9.96-3.37-15.5-1.89-3.23,.86-6.95,.26-10.39-.16-3.69-.46-7.28-1.7-10.97-2.22-7.25-1.02-12.45,1.91-15.02,9.41l-1.56-1.16c1.28-3.5,1.93-7.43,3.96-10.42,9.46-13.93,30.46-14.36,40.94-1.29,1.25,1.56,3.93,1.94,5.85,3.03,1.43,.81,2.72,1.88,4.06,2.83l-1.37,1.87Z" style="fill:#898989;"></path><path d="M294.52,213.56c-6.42-10.66-9.76-12.24-21.14-9.47-7.74,1.88-15.13,2.8-22.99,.13-2.53-.86-6.13,1.44-9.84,2.45,.47-1.29,1.07-3.71,1.36-3.68,7.06,.88,9.17-5.67,13.51-8.78,8.34-5.98,17.08-4.95,25.76-1.21,8.22,3.54,12.97,9.75,13.35,20.55Z" style="fill:#898989;"></path><path d="M101.84,172.65c-7.59,9.32-7.9,13.2-1.44,22.66,4.94,7.25,9.76,14.36,7.47,23.8-12.06-1.54-18.71-8.61-20.55-21.87-1.5-10.87,3.73-20.28,14.52-24.59Z" style="fill:#898989;"></path><path d="M88.63,155.77c-10.34,7.3-11.67,10.48-8.32,21.97,2.1,7.2,3.05,14.05,.85,21.51-.76,2.58,1.52,6.05,2.65,9.93-1.45-.74-3.84-1.59-3.77-2,1.06-5.87-4-7.75-7.06-10.56-8.18-7.52-7.18-16.69-4.47-25.62,2.69-8.87,9-14.48,20.12-15.22Z" style="fill:#898989;"></path><path d="M215.7,172.95c9.4,2.7,14.64,9.62,14.69,19.61,.06,12.77-3.11,22.95-21.15,27.49-.57-8.2,1.18-15.63,6.41-22.16,1.7-2.12,3-4.61,4.24-7.05,3.67-7.24,3-10.31-4.2-17.89Z" style="fill:#898989;"></path><path d="M229.65,155.9c9.53,.31,15.73,5.11,18.86,13.06,3.98,10.1,4.99,22.39-7.26,30.92-1.64,1.15-2.16,3.85-3.34,5.74-.81,1.3-1.87,2.45-3.75,3.13,2.91-4.6,2.83-8.63,1.6-13.84-1.16-4.91,.35-10.66,1.49-15.87,3.12-14.27,3.24-14.37-7.59-23.15Z" style="fill:#898989;"></path><path d="M267.82,236.11c-4.48-9.72-7.37-11.65-17.94-10.82-8.22,.65-16.17,1.52-23.9-3.02-1.97-1.16-5.81,.86-10.07,1.65,1.49-1.75,2.71-3.94,3.32-3.78,5.8,1.53,8.32-3.42,12.31-5.53,3.63-1.92,8.01-3.44,12.04-3.41,13.9,.1,24.83,10.4,24.7,22.47,0,.69-.25,1.39-.46,2.45Z" style="fill:#898989;"></path><path d="M50.16,237.09c-3.15-13.15,8.76-23.95,21.49-25.91,7.09-1.09,12.8,1.36,18.28,5.64,2.19,1.72,5.41,2.07,8.03,3.31,1.32,.62,2.35,1.84,3.14,3.57-6.23-3.17-11.43-1.2-16.9,1.38-2.48,1.17-5.77,.86-8.68,.83-3.54-.04-7.07-.52-10.61-.75-7.61-.51-12.26,3.24-14.75,11.93Z" style="fill:#898989;"></path><path d="M270.38,150.66c-2.86-4.37-5.27-7.71-7.33-11.27-2.71-4.69-5.72-9.34-7.59-14.38-4.21-11.34-6.52-13.41-17.58-13.38,8.4-6.62,21.18-3.55,29.05,6.86,5.03,6.65,5.81,13.74,3.19,21.56-.59,1.77,.17,3.99,.24,6,.06,1.61,.01,3.22,.01,4.61Z" style="fill:#898989;"></path><path d="M51.96,169.64c-3.95-2.7-7.31-4.81-10.46-7.19-4.63-3.51-9.55-6.8-13.58-10.92-7.6-7.79-10.3-8.86-20.01-5.7,2.43-4.88,6.99-7.55,13.52-7.92,14.09-.79,24.43,8.4,26.06,22.76,.21,1.86,2.17,3.48,3.13,5.32,.68,1.32,1.04,2.81,1.34,3.66Z" style="fill:#898989;"></path><path d="M44.5,143.36c-3.33-2.25-6.68-4.39-9.88-6.72-4.22-3.08-8.78-5.88-12.36-9.6-6.08-6.3-11.64-12.86-21.89-6.54l-.37-1.84c2.97-1.91,5.71-4.48,8.95-5.63,13.4-4.76,28.46,4.53,31.13,18.45,.6,3.13,3.07,5.86,4.34,8.91,.5,1.2,.08,2.79,.08,2.97Z" style="fill:#898989;"></path><path d="M47.83,150.96c-.41-1.22-1.54-3.04-1.1-3.57,3.59-4.37,1.03-8.46-.11-12.69-2.07-7.66,2.65-16.93,11.48-22.79,7.49-4.97,15.14-5.18,22.06,.11-11.17-2.33-14.94,4.43-17.48,12.41-2.23,7.02-5.03,13.36-11.36,17.96-1.77,1.29-1.61,5.23-2.33,7.96l-1.15,.61Z" style="fill:#898989;"></path><path d="M13.4,182.43c3.31-9.94,9.79-14.61,19.67-14.96,10.66-.38,18.88,4.65,22.82,13.42,.98,2.18,3.31,3.73,4.92,5.65,.88,1.05,1.54,2.28,1.78,2.64-5.45-1.26-10.9-2.09-16.03-3.85-4.58-1.57-8.87-4.04-13.16-6.35-8.71-4.67-12.4-4.22-20,3.43Z" style="fill:#898989;"></path><path d="M306.68,88.48c-10.19-.89-14.18,1.67-17.35,11.71-2.12,6.72-5.37,12.39-10.94,16.98-2.09,1.72-2.67,5.27-4.1,8.33-.44-.56-1.88-2.18-1.76-2.3,4.26-4.47,1.06-9.14,.5-13.7-1.17-9.47,4.03-15.74,10.98-20.73,6.69-4.81,14.07-5.96,21.65-1.7,.44,.25,.66,.89,1.03,1.42Z" style="fill:#898989;"></path><path d="M80.97,134.68c-10.61,2.2-12.37,4.26-13.37,14.75-.74,7.76-1.08,15.5-6.94,21.87-1.32,1.44,.05,5.36,.24,9.19-1.36-1.27-3.28-2.61-3.11-2.96,2.79-5.84-2.2-9.41-3.92-13.84-3.57-9.24,.51-16.57,5.93-23.26,5.58-6.87,13.11-8.76,21.16-5.74Z" style="fill:#898989;"></path><path d="M43.93,124.8c-2.42-3.47-4.85-6.61-6.89-9.98-3.2-5.31-6.56-10.58-9.09-16.22-3.9-8.71-6.98-10.98-16.09-10.19l-.31-1.58c3.81-.75,7.67-2.29,11.44-2.11,10.15,.48,20.96,10.75,22.21,20.74,.3,2.4-.92,4.96-.95,7.45-.05,3.11,.55,6.23,.56,9.35,0,1.22-.83,2.44-.87,2.54Z" style="fill:#898989;"></path><path d="M277.6,137.77c.29-14.46,5.28-21.47,17.29-24.83,10.05-2.81,17.91-.33,23.48,8.41-10.1-7.13-16.34-1.83-21.92,4.86-4.91,5.89-10.37,10.6-18.86,11.56Z" style="fill:#898989;"></path><path d="M310.46,146.29c-10-3.94-13.13-3.04-21.12,6.06-7.05,8.03-11.07,10.49-18.41,11.26-1.05-13.7,3.36-19.72,16.1-24.3,10.25-3.69,19.43-.6,23.44,6.99Z" style="fill:#898989;"></path><path d="M304.65,182.52c-8.1-7.78-11.82-8.43-20.37-3.34-6.67,3.96-13.17,7.44-21.4,7-2.24-.12-4.66,2.94-8.04,3.96,.81-1.23,1.51-2.55,2.45-3.67,1.53-1.82,3.82-3.23,4.75-5.28,6.42-14.05,19.51-15.58,30.08-12.34,6.11,1.87,10.28,6.03,12.53,13.66Z" style="fill:#898989;"></path><path d="M236.32,134.46c6.8-2.37,11.79-1.38,16.48,1.54,12.4,7.72,15.36,21.62,7.52,34.04-.87,1.38-.47,3.52-.82,5.28-.33,1.63-.9,3.22-1.15,4.11-1.42-4.18-2.93-7.94-3.99-11.84-1.52-5.61-3.36-11.25-3.89-16.99-.99-10.69-2.85-13.48-14.15-16.14Z" style="fill:#898989;"></path><path d="M271.03,103.1c-1.27-1.7-2.9-3.25-2.66-3.65,2.9-4.75-.61-8.32-2.25-11.98-4.07-9.11,.28-16.08,5.54-22.57,5.68-7,13.14-8.72,22.16-5.31-11,.31-13.8,6.8-14.53,15.27-.59,6.9-2.53,13.23-7.32,18.73-1.49,1.71-.64,5.45-.96,9.5Z" style="fill:#898989;"></path><path d="M47.79,101.87c-1.61-4.34-3.13-8.27-4.53-12.25-1.67-4.75-3.82-9.43-4.75-14.33-2.35-12.41-2.13-12.46-13.43-16.26,8.17-2.81,15.46-1.04,21.1,5.91,5.48,6.76,9.37,13.99,5.11,23.26-1.51,3.28-1.22,7.35-1.98,11.01-.24,1.15-1.21,2.15-1.51,2.66Z" style="fill:#898989;"></path><path d="M45.98,30.8c11.41-2.34,20.87,9.3,21.6,21.49,.22,3.64-1.27,7.63-2.83,11.07-1.89,4.17-7.57,6.47-6.11,12.44,.07,.3-1.78,1.06-1.9,1.13-.48-4.45-1.07-8.85-1.39-13.27-.32-4.43-.76-8.9-.49-13.31,.8-13.1,.93-13.1-8.89-19.55Z" style="fill:#898989;"></path><path d="M273.22,30.41c-10.69,5.58-11.56,8.18-10.36,19.52,.53,5.03-.89,10.25-1.19,15.39-.22,3.69-.04,7.41-.04,12.02-1.03-.83-2.86-1.79-2.74-2.3,1.15-4.99-2.68-7.45-5.12-10.55-6.04-7.67-4.17-15.62-.36-23.19,3.68-7.32,9.79-11.53,19.81-10.9Z" style="fill:#898989;"></path><path d="M67.82,14.45c9.29,.95,13.93,5.88,16.4,13,2.55,7.36,2.84,14.86-2.47,21.24-3.36,4.04-8.91,6.25-10.07,12.18-.06,.29-1.35,.33-.84,.22,.11-5.15-.14-10.21,.43-15.18,.51-4.42,1.74-8.8,2.98-13.1,2.85-9.86,2.44-11.46-6.43-18.37Z" style="fill:#898989;"></path><path d="M247.91,61.27c-.56-.28-2.52-.8-2.53-1.35-.07-5.33-4.82-6.71-7.74-9.61-6.73-6.68-6.89-14.54-4-22.87,2.49-7.17,7.03-11.98,15.46-12.5-9.31,5.26-7.28,12.58-4.87,20.53,1.42,4.67,1,9.87,1.64,14.81,.47,3.62,1.32,7.19,2.04,11Z" style="fill:#898989;"></path><path d="M121.56,58.29c10.29-8.76,20.63-17.47,30.82-26.33,2.6-2.26,4.55-3.13,6.73,1.88-11.18,11.08-22.72,22.51-34.99,34.66,11.1,11.98,22.64,24.43,34.62,37.37-3.64,3-6.61,5.45-10.15,8.36-8.9-12.67-17.68-25.16-27.54-39.19-.82,3.82-1.71,6.34-1.84,8.9-.41,8.01-.45,16.04-.81,24.05-.17,3.82-2.14,5.75-6.37,4.64-.66-27.19-1.32-54.44-2-82.31l9.9-1.08v28.18l1.6,.85Z" style="fill:#898989;"></path><path d="M214.92,39.41c-5.31,.28-9.96,.78-14.61,.71-5.27-.08-8.23,1.84-8.27,7.41-.02,3.14-.3,6.28-.44,9.41-.8,18.28-1.58,36.56-2.41,54.84-.16,3.59-2.58,5.06-4.94,2.63-2.28-2.34-4.38-6.06-4.38-9.18,0-8.2,1.27-16.4,1.88-24.61,.85-11.55,1.58-23.11,2.33-34.66,.09-1.36,.01-2.74,.01-4.94-8.19-.92-16.2-1.82-24.29-2.72,.73-4.52,3.23-6.25,8.07-6.16,14.73,.27,29.47,.1,44.71,.1,.54,1.65,1.32,4.03,2.35,7.18Z" style="fill:#898989;"></path></g><g><path d="M70.17,256.37l2.65-.39h.46l2.45,.39v1.39h-5.56v-1.39Zm7.33-15.6h2.66l5.8,16.98h-4.41l-4.4-13.85,.97-1.3-4.93,15.15h-1.53l5.83-16.98Zm-2.78,10.56h6.96l.58,1.5h-7.97l.43-1.5Zm4.34,5.1l2.91-.39h1.73l3.31,.39v1.33h-7.95v-1.33Z" style="fill:#898989;"></path><path d="M88.02,256.37l2.75-.39h.74l3.32,.39v1.39h-6.8v-1.39Zm1.35-14.65l1.49,.73-2.8-.24v-1.4h5.82l9.25,12.7v4.29h-2.18l-11.58-16.08Zm.85-.91l1.66,1.4v15.54h-1.66v-16.94Zm8.31,0h6.8v1.38l-2.62,.39h-.72l-3.47-.39v-1.38Zm2.95,0h1.66v16.99l-1.66-1.66v-15.33Z" style="fill:#898989;"></path><path d="M106.79,256.37l2.75-.39h.74l3.32,.39v1.39h-6.8v-1.39Zm1.35-14.65l1.49,.73-2.8-.24v-1.4h5.82l9.25,12.7v4.29h-2.18l-11.58-16.08Zm.85-.91l1.66,1.4v15.54h-1.66v-16.94Zm8.31,0h6.8v1.38l-2.62,.39h-.72l-3.47-.39v-1.38Zm2.95,0h1.66v16.99l-1.66-1.66v-15.33Z" style="fill:#898989;"></path><path d="M125.42,242.2v-1.38h8.32v1.38l-3.82,.39h-.76l-3.74-.39Zm4.5,13.79l3.82,.39v1.39h-8.32v-1.39l3.74-.39h.76Zm-2.52-7.18c0-2.66,0-5.34-.08-7.99h4.49c-.08,2.6-.08,5.29-.08,7.99v.94c0,2.67,0,5.36,.08,8.01h-4.49c.08-2.6,.08-5.29,.08-7.99v-.95Z" style="fill:#898989;"></path><path d="M138.53,242.59l-3.74-.39v-1.38h8.32v1.33l-3.67,.44h-.91Zm-2.8-1.77h4.65l4.34,13.05-.75,.56,4.6-13.61h1.67l-5.91,16.99h-2.52l-6.09-16.99Zm13,1.77l-2.75-.44v-1.33h5.58v1.38l-2.45,.39h-.39Z" style="fill:#898989;"></path><path d="M152.48,242.2v-1.38h4.15v1.77h-.41l-3.74-.39Zm4.15,13.79v1.77h-4.15v-1.39l3.74-.39h.41Zm-2.17-7.18c0-2.66,0-5.34-.08-7.99h4.49c-.08,2.6-.08,5.29-.08,7.99v.85c0,2.76,0,5.44,.08,8.1h-4.49c.08-2.6,.08-5.29,.08-7.99v-.95Zm8.45-7.99l1.87,1.46h-8.16v-1.46h9.02l.18,4.44h-2.15l-.76-4.44Zm-.61,8.96h-5.68v-1.52h5.68v1.52Zm4.04,3.54l-.18,4.44h-9.54v-1.44h8.67l-1.87,1.44,.76-4.44h2.15Zm-4.83-4.62l.39-2.47h1.5v5.55h-1.5l-.39-2.6v-.48Z" style="fill:#898989;"></path><path d="M167.82,242.2v-1.38h4.15v1.77h-.41l-3.74-.39Zm4.56,13.79l3.74,.39v1.39h-8.3v-1.39l3.74-.39h.81Zm-2.57-7.18c0-2.66,0-5.34-.08-7.99h4.41c-.08,2.63-.08,5.26-.08,8.07v.79c0,2.75,0,5.43,.08,8.09h-4.41c.08-2.6,.08-5.29,.08-7.99v-.95Zm2.2-.28h3.04c2.56,0,3.34-1.49,3.34-3.16,0-2.07-1.12-3.07-3.23-3.07h-3.19v-1.48h4.24c4.06,0,6.3,1.6,6.3,4.28,0,1.97-1.47,3.99-6.04,4.24l.02-.26c4.07,.12,5.09,1.46,5.55,4.23l.69,3.98-2.12-1.33,3.87,.42v1.39c-1.23,.29-1.64,.37-2.82,.37-2.19,0-3.49-.64-3.74-2.64l-.48-2.99c-.26-1.73-.89-2.52-2.44-2.52h-2.99v-1.44Z" style="fill:#898989;"></path><path d="M193.78,254.25c0-1.36-.67-1.98-2.23-2.67l-1.09-.5c-3.04-1.39-4.79-2.92-4.79-5.77,0-3.09,2.5-4.97,6.41-4.97,1.84,0,3.62,.49,4.87,1.31l-.21,3.61h-2.37l-.63-3.89,2.08,.74v1.29c-1.38-1-2.35-1.53-3.68-1.53-1.47,0-2.66,.93-2.66,2.34s.82,2.08,2.34,2.76l1.21,.55c3.29,1.48,4.65,2.9,4.65,5.51,0,3.04-2.33,5.2-6.74,5.2-1.93,0-4.11-.43-5.6-1.35l.15-3.83h2.4l.67,4.18-1.99-.63v-1.24c1.64,.88,2.7,1.34,4.36,1.34,1.84,0,2.83-1.06,2.83-2.46Z" style="fill:#898989;"></path><path d="M197.97,256.37l2.65-.39h.46l2.45,.39v1.39h-5.56v-1.39Zm7.33-15.6h2.66l5.8,16.98h-4.41l-4.4-13.85,.97-1.3-4.93,15.15h-1.53l5.83-16.98Zm-2.78,10.56h6.96l.58,1.5h-7.97l.43-1.5Zm4.34,5.1l2.91-.39h1.73l3.31,.39v1.33h-7.95v-1.33Z" style="fill:#898989;"></path><path d="M215.92,242.2v-1.38h4.15v1.77h-.41l-3.74-.39Zm4.56,13.79l3.74,.39v1.39h-8.3v-1.39l3.74-.39h.81Zm-2.57-7.18c0-2.66,0-5.34-.08-7.99h4.41c-.08,2.63-.08,5.26-.08,8.07v.79c0,2.75,0,5.43,.08,8.09h-4.41c.08-2.6,.08-5.29,.08-7.99v-.95Zm2.2-.28h3.04c2.56,0,3.34-1.49,3.34-3.16,0-2.07-1.12-3.07-3.23-3.07h-3.19v-1.48h4.24c4.06,0,6.3,1.6,6.3,4.28,0,1.97-1.47,3.99-6.04,4.24l.02-.26c4.07,.12,5.09,1.46,5.55,4.23l.69,3.98-2.12-1.33,3.87,.42v1.39c-1.23,.29-1.64,.37-2.82,.37-2.19,0-3.49-.64-3.74-2.64l-.48-2.99c-.26-1.73-.89-2.52-2.44-2.52h-2.99v-1.44Z" style="fill:#898989;"></path><path d="M231.6,242.2v-1.38h8.32v1.38l-3.28,.39h-1.13l-3.91-.39Zm6.27,10.02l-5.57-11.4h4.95l4.02,8.97-.81,.11,4.19-9.08h1.74l-5.62,11.4h-2.91Zm2.17,3.77l3.89,.39v1.39h-8.83v-1.39l3.82-.39h1.13Zm-2.7-6.21h4.33c0,3.89,0,5.61,.08,7.98h-4.49c.08-2.32,.08-4.05,.08-7.98Zm7.19-7.19l-2.43-.39v-1.38h5.34v1.38l-2.3,.39h-.6Z" style="fill:#898989;"></path><path d="M110.46,287.51v1.2h-10.33v-1.2l3.3-.75h3.94l3.09,.75Zm-3.27-15.34l.36,.26-.1,3.67v7.25c0,1.75,.03,3.58,.08,5.37h-4.32c.05-1.79,.08-3.62,.08-5.37v-8.48l-2.51,.23v-1.5l6.41-1.42Z" style="fill:#898989;"></path><path d="M119.54,280.79c.89,0,1.51-.27,2.18-.9l.51,.42c-.82,1.31-2.21,2.16-4.18,2.16-2.94,0-5.11-1.76-5.11-4.94,0-3.63,2.81-5.47,6.12-5.47,4.11,0,6.35,2.6,6.35,6.95,0,5.33-4.19,9.18-10.61,10.22l-.26-1.33c4.9-1.64,6.72-4.05,6.72-9.25,0-4.1-.84-5.26-2.14-5.26-1.14,0-2.12,1.1-2.12,3.8,0,2.34,1,3.61,2.54,3.61Z" style="fill:#898989;"></path><path d="M132.01,280.76l.77,.4c-1.5,1.31-2.1,2.32-2.1,3.84s1.03,2.76,2.46,2.76,2.23-1.1,2.23-2.32c0-1.45-.88-2.49-3.81-3.78-2.58-1.12-3.96-2.79-3.96-4.94,0-2.85,2.44-4.65,5.72-4.65,3.57,0,5.18,1.71,5.18,3.74,0,1.51-1.04,2.93-4.3,4.13l-.7-.43c1.41-1.55,1.79-2.47,1.79-3.8s-.78-2.29-2.08-2.29c-1.15,0-2.18,.8-2.18,2.08,0,1.19,.63,2.29,3.73,3.67,2.87,1.28,4.31,2.92,4.31,5.25,0,2.86-2.31,4.68-6.25,4.68-3.68,0-5.52-1.53-5.52-3.89,0-2.06,1.68-3.53,4.71-4.45Z" style="fill:#898989;"></path><path d="M143.02,279.35c1.31-.5,2.57-.7,4.04-.7,3.94,0,6.37,1.76,6.37,5.1,0,3.52-2.93,5.34-6.83,5.34-3.31,0-5.23-1.65-5.39-4.26,.29-.77,.96-1.15,1.66-1.15,1.05,0,1.65,.59,1.84,2.18l.27,2.34-.83-.85c.68,.31,1.06,.4,1.75,.4,1.88,0,3.19-1.33,3.19-3.55,0-2.39-1.16-3.66-3.13-3.66-.83,0-1.59,.09-2.43,.29l-.72-.52,.54-7.86h9.44v3.18h-8.93l1.09-2.33-.44,6.44h-1.5v-.39Z" style="fill:#898989;"></path><path d="M155.18,281h6.68v2.32h-6.68v-2.32Z" style="fill:#898989;"></path><path d="M164.25,286.4c1.18-1.15,2.35-2.31,3.41-3.37,2.43-2.48,3.66-4.16,3.66-6.49,0-2-1.01-3.16-2.62-3.16-.75,0-1.51,.11-2.48,.57l1.93-1.15-.41,2.46c-.28,1.76-1.12,2.18-1.92,2.18-.73,0-1.36-.4-1.68-1.05,.08-2.84,2.78-4.32,6-4.32,3.73,0,5.34,1.94,5.34,4.46s-1.87,4.54-6.15,7.44c-.9,.62-1.9,1.32-2.89,2.05l-.38-.48h9.76v3.18h-11.56v-2.3Z" style="fill:#898989;"></path><path d="M189.96,280.59c0,5.95-2.9,8.51-6.1,8.51s-6.06-2.56-6.06-8.51,2.84-8.53,6.06-8.53,6.1,2.56,6.1,8.53Zm-6.1,7.16c1.22,0,2.21-1.41,2.21-7.16s-.99-7.2-2.21-7.2-2.16,1.38-2.16,7.2,.93,7.16,2.16,7.16Z" style="fill:#898989;"></path><path d="M192.2,286.4c1.18-1.15,2.35-2.31,3.41-3.37,2.43-2.48,3.66-4.16,3.66-6.49,0-2-1.01-3.16-2.62-3.16-.75,0-1.51,.11-2.48,.57l1.93-1.15-.41,2.46c-.28,1.76-1.12,2.18-1.92,2.18-.73,0-1.36-.4-1.68-1.05,.08-2.84,2.78-4.32,6-4.32,3.73,0,5.34,1.94,5.34,4.46s-1.87,4.54-6.15,7.44c-.9,.62-1.9,1.32-2.89,2.05l-.38-.48h9.76v3.18h-11.56v-2.3Z" style="fill:#898989;"></path><path d="M217.91,280.59c0,5.95-2.9,8.51-6.1,8.51s-6.06-2.56-6.06-8.51,2.84-8.53,6.06-8.53,6.1,2.56,6.1,8.53Zm-6.1,7.16c1.22,0,2.21-1.41,2.21-7.16s-.99-7.2-2.21-7.2-2.16,1.38-2.16,7.2,.93,7.16,2.16,7.16Z" style="fill:#898989;"></path></g></g></g></g></svg>