<svg xmlns="http://www.w3.org/2000/svg" viewBox="0 0 509.44 126.65"><g id="a"></g><g id="b"><g id="c"><g><path d="M45.51,34.64c.06,0,.11,.02,.16,.05,.05,.03,.09,.08,.11,.13,.03,.05,.05,.11,.05,.17s-.02,.12-.05,.17c-.97,1.16-2.06,2.21-3.25,3.14-.81,.64-1.8,.99-2.83,1.02-.32,.02-.65-.03-.95-.15-.3-.12-.57-.31-.79-.55-.42-.61-.61-1.34-.56-2.07,.03-.83,.12-1.66,.27-2.48l1.54-8.46c.16-.82,.25-1.65,.27-2.48,0-1.89-.65-2.83-1.92-2.83-.64,.08-1.26,.29-1.81,.63s-1.02,.8-1.38,1.34c-1.35,1.76-2.42,3.73-3.15,5.82-1.11,2.95-1.95,6-2.48,9.11l-.21,1.12c-.19,.65-1.03,.97-2.56,.97-1.07,0-1.6-.12-1.6-.37l.21-1.18c.35-1.66,.55-2.61,.58-2.82L30.24,7.3v-.26c0-.25-.17-.37-.53-.37h-9.39c-.37-.05-.76-.02-1.12,.08-.36,.1-.7,.28-.99,.53-.49,.82-.79,1.74-.88,2.69l-4.31,24.57c-.1,.54-.16,1.1-.16,1.65-.04,.32,.02,.65,.16,.94,.15,.29,.37,.53,.66,.69,1.02,.33,2.1,.47,3.18,.4,.06,0,.1,.1,.1,.32s0,.31-.1,.31H3.43c-.11,0-.16-.1-.16-.31s0-.32,.16-.32c.97,.03,1.94-.06,2.88-.27,.29-.07,.56-.2,.8-.37s.44-.4,.6-.66c.38-.75,.64-1.55,.78-2.37L12.73,9.85c.14-.53,.22-1.07,.22-1.61,.03-.23,0-.47-.1-.69-.09-.22-.23-.41-.41-.56-.54-.26-1.14-.37-1.74-.32h-.86c-1.93,.04-3.77,.84-5.11,2.23-1.63,1.62-2.81,3.64-3.41,5.86,0,.11-.15,.15-.34,.11-.19-.04-.29-.11-.25-.21,.29-.93,.71-2.54,1.24-4.88,.53-2.33,.96-4.13,1.24-5.41,0-.1,.16-.15,.37-.14,.21,.01,.3,.09,.26,.19-.1,.76,.6,1.13,2.08,1.13,2.63,.1,5.87,.16,9.74,.16,4.13,0,7.16-.07,9.12-.22,2,.03,3.97-.4,5.78-1.24,1.74-.94,3.15-2.38,4.05-4.15C34.64,.04,34.72,0,34.91,0c.11,0,.22,.03,.31,.09,.11,0,.15,.09,.11,.12l-4.9,27.55c.96-2.75,2.44-5.3,4.34-7.51,.63-.79,1.41-1.43,2.31-1.89,.89-.46,1.87-.73,2.88-.78,.5-.04,1.01,.04,1.48,.22,.47,.18,.9,.46,1.25,.83,.67,.95,.99,2.11,.89,3.28-.02,.91-.11,1.82-.26,2.72l-1.76,9.48c-.09,.47-.14,.96-.15,1.44,0,.88,.29,1.33,.86,1.33s1.71-.69,3.09-2.07c.06-.12,.11-.16,.15-.16Z" style="fill:#898989;"></path><path d="M64.37,18.26c.33,.19,.61,.46,.79,.8,.19,.33,.28,.71,.27,1.09,0,1.64-1.24,3.14-3.6,4.53-2.7,1.49-5.64,2.51-8.69,2.99-.11,.82-.18,1.65-.21,2.48-.1,1.84,.39,3.66,1.39,5.2,.45,.64,1.05,1.15,1.75,1.49,.7,.34,1.47,.5,2.25,.46,.87,0,1.73-.14,2.56-.4,.89-.27,1.73-.69,2.48-1.24h0c.06,0,.11,.02,.16,.05,.05,.03,.09,.07,.12,.12,.08,.1,.08,.19,0,.26-2.17,2.15-5.1,3.38-8.15,3.41-1,.07-2-.09-2.92-.47-.92-.38-1.75-.96-2.42-1.71-1.25-1.59-1.89-3.58-1.81-5.6,0-.91,.1-1.82,.27-2.72,.41-2.01,1.22-3.91,2.4-5.59,1.18-1.68,2.69-3.1,4.44-4.16,1.76-1.08,3.78-1.65,5.85-1.65,1.06-.07,2.13,.16,3.07,.67h0Zm-3.62,2.63c.02-.26-.03-.52-.13-.76-.1-.24-.26-.45-.45-.62-.41-.33-.92-.5-1.44-.48-.71,.04-1.39,.26-1.99,.64-.59,.38-1.08,.92-1.4,1.54-1.05,1.73-1.74,3.65-2.05,5.65,4.48-.99,6.93-2.75,7.35-5.27,.06-.23,.09-.46,.11-.69Z" style="fill:#898989;"></path><path d="M115.88,5.86c0,.22,0,.32-.11,.32-.76-.03-1.53,.07-2.26,.3-.52,.19-.94,.57-1.18,1.07-.33,.73-.55,1.51-.66,2.31l-4.38,24.68c-.09,.56-.14,1.13-.15,1.7-.04,.29,0,.59,.11,.87,.11,.28,.29,.52,.52,.71,.74,.32,1.54,.46,2.34,.4,.11,0,.16,.1,.16,.32s0,.31-.16,.31h-11.49c-.07,0-.11-.1-.11-.31s0-.32,.11-.32c.79,.04,1.58-.05,2.35-.27,.24-.08,.47-.22,.66-.39s.35-.38,.46-.62c.32-.77,.54-1.57,.65-2.4l2.19-12.31h-15.02l-2.18,12.31c-.15,.99-.22,1.58-.22,1.75-.04,.29,0,.59,.11,.86,.11,.27,.3,.51,.53,.69,.76,.31,1.58,.44,2.4,.37,.11,0,.16,.1,.16,.32s0,.31-.16,.31h-11.5c-.11,0-.16-.1-.16-.31s0-.32,.16-.32c.78,.03,1.56-.06,2.31-.27,.27-.08,.51-.21,.73-.39,.21-.18,.39-.4,.51-.64,.34-.75,.59-1.55,.72-2.37l4.31-24.68c.14-.92,.21-1.49,.21-1.7,.03-.29,0-.59-.12-.86-.12-.27-.3-.5-.53-.68-.77-.36-1.63-.51-2.48-.43-.07,0-.1-.1-.1-.32s0-.31,.1-.31h2.4c1.35,.07,2.48,.11,3.25,.11s2,0,3.41-.11h2.48s.1,.1,.1,.31,0,.32-.1,.32c-.79-.04-1.57,.07-2.32,.32-.51,.2-.91,.6-1.14,1.09-.33,.76-.56,1.56-.69,2.37l-1.92,10.87h14.98l1.91-10.87c.1-.6,.17-1.2,.21-1.81,.03-.29,0-.58-.11-.85-.11-.27-.29-.51-.52-.69-.71-.35-1.5-.5-2.3-.43-.1,0-.16-.1-.16-.32s.06-.31,.16-.31h2.35c1.35,.07,2.48,.11,3.3,.11s2.01,0,3.36-.11h2.39c.16,0,.16,.1,.16,.31Z" style="fill:#898989;"></path><path d="M117.41,37.35c-1.28-1.66-1.93-3.72-1.84-5.81,0-1,.11-2,.33-2.98,.36-2.02,1.13-3.95,2.27-5.66,1.05-1.6,2.46-2.94,4.12-3.91,1.57-.92,3.35-1.41,5.17-1.41,1-.06,1.99,.11,2.91,.48,.92,.38,1.75,.96,2.41,1.7,1.3,1.63,1.97,3.68,1.87,5.76,0,1.02-.12,2.04-.32,3.04-.37,2.13-1.22,4.15-2.48,5.91-1.12,1.57-2.57,2.88-4.26,3.81-1.53,.82-3.23,1.25-4.96,1.24-.98,.06-1.96-.1-2.86-.48-.91-.38-1.71-.96-2.36-1.69h0Zm10.38-1.07c1.08-1.62,1.79-3.45,2.07-5.37,.25-1.27,.38-2.56,.37-3.85,.05-2.02-.37-4.03-1.24-5.86-.26-.65-.69-1.22-1.26-1.63-.56-.41-1.23-.66-1.93-.71-.66,.04-1.3,.23-1.87,.57-.57,.33-1.05,.8-1.4,1.36-1.12,1.64-1.84,3.52-2.1,5.49-.22,1.23-.35,2.47-.37,3.72-.06,2.03,.37,4.05,1.24,5.88,.26,.66,.71,1.24,1.29,1.65,.58,.41,1.27,.65,1.99,.67,.65-.04,1.28-.24,1.84-.57s1.03-.79,1.38-1.34h0Z" style="fill:#898989;"></path><path d="M159.71,34.64c.06,0,.12,.02,.17,.06,.05,.03,.09,.08,.12,.13,.02,.02,.04,.05,.06,.08,.01,.03,.02,.06,.02,.09s0,.07-.02,.09c-.01,.03-.03,.06-.06,.08-.93,1.17-1.99,2.22-3.16,3.14-.82,.65-1.83,1-2.87,1.02-.33,.03-.65-.02-.95-.14-.3-.12-.57-.31-.79-.55-.42-.61-.61-1.34-.56-2.07,.02-.83,.11-1.66,.26-2.48l1.49-8.46c.17-.84,.26-1.7,.26-2.56,0-1.84-.62-2.77-1.86-2.77-.66,.07-1.3,.3-1.86,.64-.57,.35-1.05,.82-1.41,1.38-1.36,1.79-2.42,3.78-3.17,5.89-1.12,3-1.95,6.09-2.48,9.25l-.16,.84c-.17,.65-1.03,.97-2.56,.97-1.07,0-1.6-.12-1.6-.37l.21-1.18c.36-1.66,.56-2.61,.6-2.82l2.19-11.89c.07-.41,.11-.83,.1-1.24,0-1.03-.31-1.54-.96-1.54s-1.86,.74-3.25,2.23c-.05,.02-.11,.02-.16,0-.06,0-.11-.02-.17-.06-.05-.03-.09-.08-.12-.13-.02-.02-.04-.05-.05-.08-.01-.03-.02-.06-.02-.09s0-.06,.02-.09c.01-.03,.03-.06,.05-.08,.98-1.21,2.11-2.28,3.38-3.19,.88-.64,1.93-.99,3.02-1.02,.32-.03,.64,.02,.94,.14,.3,.12,.57,.3,.79,.53,.42,.6,.61,1.32,.56,2.05-.04,.68-.12,1.35-.23,2.02l-.96,5.34c.96-2.79,2.44-5.37,4.37-7.6,.64-.79,1.44-1.45,2.35-1.91,.91-.46,1.91-.73,2.92-.78,2.38,0,3.57,1.44,3.57,4.32-.02,.91-.11,1.82-.26,2.72l-1.76,9.48c-.1,.44-.15,.88-.16,1.33,0,.93,.3,1.39,.9,1.39s1.65-.69,3.04-2.07c.03-.02,.07-.03,.1-.04,.03,0,.07,0,.11,0h0Z" style="fill:#898989;"></path><path d="M164.47,37.35c-1.28-1.66-1.93-3.72-1.83-5.81,0-1,.1-2,.31-2.98,.37-2.02,1.14-3.95,2.27-5.66,1.06-1.61,2.47-2.94,4.13-3.91,1.56-.93,3.35-1.41,5.16-1.41,1-.06,1.99,.11,2.92,.49,.92,.38,1.75,.96,2.42,1.7,1.3,1.63,1.96,3.68,1.86,5.76,0,1.02-.12,2.04-.32,3.04-.37,2.13-1.22,4.15-2.48,5.91-1.11,1.58-2.57,2.88-4.26,3.81-1.53,.82-3.23,1.25-4.96,1.24-.98,.06-1.96-.11-2.86-.48-.9-.38-1.71-.95-2.36-1.69Zm10.36-1.07c1.08-1.62,1.79-3.45,2.07-5.37,.27-1.27,.39-2.55,.39-3.85,.05-2.02-.37-4.03-1.24-5.86-.25-.67-.7-1.25-1.28-1.67-.58-.42-1.28-.65-1.99-.68-.66,.04-1.3,.23-1.87,.57-.57,.33-1.05,.8-1.41,1.36-1.12,1.64-1.84,3.52-2.11,5.49-.22,1.23-.35,2.47-.37,3.72-.07,2.03,.36,4.05,1.24,5.88,.26,.67,.7,1.24,1.29,1.66,.58,.41,1.27,.64,1.99,.66,.66-.03,1.31-.21,1.89-.55,.58-.33,1.06-.8,1.41-1.36Z" style="fill:#898989;"></path><path d="M206.7,34.59c.06,0,.11,.02,.16,.06,.05,.03,.08,.08,.11,.13,.03,.05,.05,.11,.05,.17s-.02,.12-.05,.17c-1,1.21-2.16,2.28-3.44,3.19-.88,.64-1.92,.99-3,1.02-.32,.03-.63-.01-.93-.13s-.56-.29-.78-.52c-.41-.59-.59-1.31-.53-2.02,0-.7,.07-1.39,.21-2.07l.92-5.39c-.96,2.79-2.44,5.37-4.34,7.62-.63,.8-1.43,1.46-2.33,1.93-.91,.47-1.9,.74-2.92,.79-2.42,0-3.63-1.42-3.63-4.26,0-.93,.09-1.86,.26-2.78l1.92-9.48c.09-.44,.15-.88,.16-1.33,0-.93-.31-1.39-.91-1.39-.46,.05-.89,.24-1.24,.53-.63,.46-1.22,.98-1.76,1.55-.06,.06-.13,.09-.21,.1-.06,0-.11-.02-.16-.05-.05-.03-.09-.08-.11-.13-.04-.05-.06-.11-.06-.17s.02-.12,.06-.17c.96-1.17,2.04-2.23,3.23-3.16,.8-.62,1.79-.97,2.8-.99,1.56,0,2.35,.97,2.35,2.88-.03,.79-.12,1.57-.27,2.35l-1.7,8.48c-.19,.84-.3,1.7-.32,2.56,0,1.85,.63,2.77,1.93,2.77,.67-.08,1.31-.31,1.88-.67,.57-.36,1.06-.84,1.42-1.4,1.38-1.85,2.47-3.9,3.23-6.08,1.12-3.08,1.95-6.25,2.48-9.48v-.37c.19-.65,1.03-.96,2.57-.96,1.06,0,1.59,.12,1.59,.37l-.21,1.17c-.35,1.68-.54,2.61-.58,2.83l-2.19,11.88c-.08,.41-.12,.82-.11,1.24,0,1.03,.32,1.54,.97,1.54s1.87-.74,3.3-2.23c.03-.03,.06-.05,.1-.06,.04-.01,.08-.01,.11,0h0Z" style="fill:#898989;"></path><path d="M226.2,18.76c.35,.24,.62,.57,.8,.95,.17,.39,.23,.81,.17,1.23-.09,.51-.33,.99-.7,1.35-.18,.2-.41,.35-.65,.46-.25,.1-.52,.16-.78,.15-.37-.02-.73-.12-1.06-.28s-.62-.39-.86-.67c-.21-.17-.43-.34-.63-.48-.21-.14-.45-.21-.69-.21-.68,0-1.49,.97-2.48,2.9-1.08,2.26-1.99,4.59-2.72,6.99-.75,2.35-1.36,4.74-1.81,7.16,0,.29-.32,.52-.77,.69-.57,.2-1.18,.29-1.79,.27-1.07,0-1.6-.12-1.6-.37l.27-1.13c.07-.27,.16-.66,.26-1.14,.1-.48,.22-1.05,.32-1.72l2.02-11.17c.11-.58,.18-1.17,.21-1.76,0-1.13-.35-1.7-1.06-1.7s-1.84,.69-3.15,2.07c-.05,.02-.11,.02-.16,0-.06,0-.11-.02-.16-.06-.05-.03-.08-.08-.11-.13-.04-.05-.05-.11-.05-.17s.02-.12,.05-.17c.96-1.18,2.08-2.22,3.33-3.09,.87-.61,1.9-.95,2.97-.97,.33-.03,.66,.02,.97,.15,.31,.12,.58,.32,.8,.57,.43,.65,.62,1.43,.56,2.21-.03,.83-.11,1.66-.26,2.48l-1.04,6.17c.82-2.89,1.96-5.68,3.41-8.31,1.24-2.13,2.56-3.2,3.95-3.2,.9,.02,1.77,.35,2.44,.94h0Z" style="fill:#898989;"></path><path d="M247.73,34.69c.06,0,.11,.02,.16,.05,.05,.03,.08,.08,.1,.13,.07,.12,.07,.22,0,.3-.94,1.16-2.01,2.21-3.19,3.11-.79,.63-1.77,1-2.78,1.04-.33,.03-.67-.02-.98-.15-.31-.12-.59-.32-.82-.57-.45-.66-.66-1.46-.59-2.26,0-.75,.07-1.51,.21-2.25l.76-4.26c-1.2,2.67-2.91,5.08-5.04,7.09-1.49,1.54-3.49,2.47-5.62,2.61-.47,.03-.94-.04-1.39-.21-.44-.17-.84-.43-1.17-.77-.67-.86-1-1.93-.91-3.02,.11-2.79,.91-5.51,2.33-7.92,1.47-2.71,3.42-5.13,5.76-7.14,1.76-1.71,4.08-2.74,6.53-2.9,.68,0,1.36,.12,2,.35,.63,.22,1.2,.57,1.68,1.04,.62-.5,1.15-1.12,1.55-1.81,.03-.03,.06-.06,.09-.08,.04-.02,.08-.03,.12-.03,.11,0,.23,.03,.32,.09,.11,0,.14,.1,.11,.12l-3.1,16.84c-.09,.44-.14,.88-.15,1.33-.02,.35,.05,.7,.21,1.02,.05,.11,.13,.2,.24,.27,.1,.07,.22,.1,.35,.1,.67,0,1.7-.69,3.09-2.07,.04-.04,.09-.06,.14-.06h0Zm-10.89-.79c1.42-1.54,2.58-3.31,3.44-5.22,.82-1.63,1.29-3.41,1.38-5.22,.05-.93-.23-1.85-.8-2.58-.29-.32-.64-.57-1.04-.73-.4-.16-.83-.23-1.26-.2-1.23,.04-2.4,.52-3.3,1.35-1.16,1.04-2.09,2.31-2.74,3.72-.8,1.68-1.34,3.46-1.63,5.3-.14,.82-.21,1.65-.21,2.48,0,2.2,.73,3.3,2.19,3.3,.78-.08,1.53-.31,2.21-.69,.68-.38,1.28-.89,1.76-1.51h0Z" style="fill:#898989;"></path><path d="M270.78,19.14c.86,1.2,1.3,2.66,1.24,4.15-.03,.74-.1,1.47-.23,2.2-.47,2.73-1.59,5.31-3.28,7.51-1.5,2-3.41,3.67-5.6,4.88-1.74,1.02-3.71,1.6-5.72,1.68-1.49,.08-2.96-.31-4.21-1.12-.5-.34-.9-.81-1.17-1.35-.27-.54-.4-1.14-.38-1.74,.01-.32,.05-.64,.11-.96l5.06-27.45c.09-.51,.15-1.02,.16-1.54,0-.99-.36-1.49-1.07-1.49-.82,.1-1.62,.35-2.35,.74h-.11c-.14,0-.24-.09-.26-.27-.03-.19,0-.29,.16-.32l7.73-3.83h.11c.15,0,.29,.06,.4,.16,.12,.11,.17,.2,.14,.27l-4.69,26.06c1.08-2.52,2.68-4.78,4.72-6.61,1.6-1.56,3.72-2.47,5.95-2.56,.64-.02,1.26,.12,1.83,.4,.57,.28,1.06,.69,1.44,1.2h0Zm-3.39,5.37c.05-.95-.17-1.89-.63-2.72-.21-.33-.5-.59-.85-.77-.35-.18-.73-.26-1.12-.24-2.06,0-3.93,1.19-5.62,3.56-1.87,2.83-3.1,6.03-3.6,9.38-.02,.27-.02,.54,0,.81-.02,.48,.07,.95,.24,1.4,.18,.44,.45,.85,.79,1.18,.72,.66,1.67,1.01,2.64,.98,1.2-.02,2.35-.46,3.25-1.24,1.21-1.06,2.18-2.35,2.85-3.81,.89-1.85,1.49-3.83,1.79-5.86,.18-.88,.27-1.78,.26-2.68Z" style="fill:#898989;"></path><path d="M275.97,38.63c-.42-.63-.62-1.38-.56-2.13,.03-.8,.12-1.61,.27-2.4l4.96-27.18c.1-.51,.15-1.02,.16-1.54,0-.99-.35-1.49-1.07-1.49-.82,.1-1.62,.35-2.35,.74h-.1c-.15,0-.23-.09-.27-.27-.04-.19,0-.29,.16-.32l7.79-3.83h.11c.15,0,.29,.06,.4,.16,.12,.11,.17,.2,.14,.27l-6.02,33.51c-.1,.46-.16,.92-.16,1.39,0,.88,.27,1.33,.84,1.33s1.65-.69,3.04-2.07c.03-.03,.06-.06,.09-.08,.03-.02,.07-.03,.12-.03,.06,0,.11,.02,.16,.05,.05,.03,.09,.08,.11,.13,.03,.06,.05,.12,.03,.19s-.05,.12-.09,.16c-.94,1.17-2.01,2.22-3.19,3.14-.81,.64-1.8,.99-2.83,1.02-.33,.02-.66-.04-.97-.17-.31-.13-.58-.33-.8-.58h0Z" style="fill:#898989;"></path><path d="M302.98,18.26c.33,.19,.61,.46,.8,.79,.19,.33,.28,.71,.27,1.09,0,1.64-1.24,3.14-3.6,4.53-2.7,1.5-5.64,2.51-8.69,2.99-.12,.82-.19,1.65-.21,2.48-.09,1.83,.39,3.65,1.38,5.2,.45,.64,1.05,1.15,1.75,1.49,.7,.34,1.47,.5,2.25,.46,.88,0,1.77-.13,2.62-.38,.9-.26,1.73-.68,2.48-1.24h0c.06,0,.12,.02,.17,.04,.05,.03,.09,.07,.13,.12,.09,.1,.1,.19,0,.26-2.17,2.15-5.1,3.38-8.15,3.41-1,.07-1.99-.1-2.92-.47-.92-.38-1.75-.96-2.41-1.71-1.26-1.59-1.9-3.57-1.81-5.6,0-.91,.1-1.82,.26-2.72,.39-1.96,1.18-3.82,2.32-5.46,1.18-1.75,2.72-3.21,4.53-4.29,1.75-1.08,3.77-1.65,5.83-1.65,1.04-.07,2.08,.16,3,.66h0Zm-3.62,2.63c.02-.26-.03-.52-.13-.76-.1-.24-.26-.45-.46-.62-.41-.33-.92-.5-1.44-.48-.7,.04-1.39,.26-1.98,.64-.59,.38-1.07,.92-1.4,1.54-1.04,1.73-1.75,3.65-2.06,5.65,4.48-.99,6.92-2.76,7.36-5.27,.05-.23,.09-.46,.1-.69h0Z" style="fill:#898989;"></path><path d="M323.19,39.09c-1.32-.31-2.59-.78-3.79-1.41-.17-.1-.29-.26-.35-.45-.06-.19-.05-.39,.03-.57l1.34-7.32c0-.19,.09-.27,.29-.27s.3,.09,.3,.27c1.03,6.03,3.51,9.05,7.45,9.06,1.52,.04,3-.49,4.13-1.5,1.18-1.12,1.93-2.63,2.1-4.26,.07-.65,.11-1.08,.11-1.33,.05-1.61-.48-3.19-1.49-4.46-1.26-1.46-2.69-2.76-4.27-3.86-1.36-1.03-2.41-1.89-3.17-2.56-.78-.71-1.44-1.55-1.95-2.48-.55-.99-.82-2.1-.8-3.23,0-.52,.06-1.03,.16-1.54,.22-1.25,.7-2.44,1.4-3.49,.7-1.06,1.62-1.95,2.68-2.64,2.22-1.43,4.81-2.17,7.45-2.13,2.1,0,4.19,.43,6.13,1.24,.5,.26,.68,.56,.58,.91l-.74,6.61c0,.11-.15,.16-.32,.16s-.29,0-.32-.16c-.29-2.05-1.09-3.99-2.32-5.65-.48-.67-1.12-1.21-1.86-1.58-.74-.37-1.55-.56-2.37-.55-1.18-.03-2.33,.36-3.25,1.09-.84,.65-1.49,1.5-1.89,2.48-.39,.91-.6,1.89-.62,2.88-.01,1.02,.25,2.02,.74,2.9,.48,.84,1.09,1.6,1.81,2.25,.72,.62,1.75,1.44,3.09,2.48,1.73,1.23,3.31,2.65,4.72,4.24,1.1,1.32,1.68,3,1.63,4.72,.01,.48-.02,.96-.1,1.44-.44,2.62-1.88,4.97-4.02,6.55-2.5,1.79-5.53,2.69-8.61,2.56-1.3,0-2.61-.14-3.88-.41h0Z" style="fill:#898989;"></path><path d="M345,37.35c-1.28-1.66-1.93-3.72-1.83-5.81,0-1,.1-2,.32-2.98,.35-2.02,1.12-3.95,2.26-5.66,1.06-1.61,2.47-2.94,4.13-3.91,1.56-.92,3.35-1.41,5.16-1.41,1-.06,1.99,.1,2.92,.48,.92,.38,1.75,.96,2.42,1.7,1.3,1.63,1.96,3.68,1.86,5.76,0,1.02-.11,2.04-.32,3.04-.37,2.13-1.22,4.15-2.48,5.91-1.12,1.57-2.58,2.88-4.27,3.81-1.52,.83-3.23,1.25-4.96,1.24-.98,.06-1.95-.11-2.85-.48-.9-.38-1.71-.95-2.35-1.69h0Zm10.39-1.07c1.08-1.62,1.79-3.45,2.08-5.37,.25-1.27,.38-2.56,.37-3.85,.06-2.02-.37-4.03-1.24-5.86-.25-.67-.7-1.25-1.28-1.67-.58-.42-1.28-.65-1.99-.68-.66,.04-1.3,.23-1.87,.57-.57,.33-1.05,.8-1.41,1.36-1.12,1.64-1.84,3.52-2.11,5.49-.22,1.23-.35,2.47-.37,3.72-.06,2.03,.37,4.05,1.24,5.88,.26,.67,.7,1.24,1.29,1.66,.58,.41,1.28,.64,1.99,.67,.66-.03,1.31-.21,1.89-.55,.58-.33,1.06-.8,1.41-1.36h0Z" style="fill:#898989;"></path><path d="M366.56,37.12c-1.21-1.78-1.81-3.9-1.74-6.06,.02-1,.11-1.99,.27-2.98,.36-2,1.22-3.89,2.48-5.49,1.16-1.55,2.66-2.82,4.37-3.72,1.52-.83,3.23-1.28,4.96-1.3,1.18-.03,2.35,.26,3.39,.83,.36,.18,.67,.44,.92,.76,.25,.32,.41,.69,.49,1.08,.08,.39,.07,.8-.03,1.19-.1,.39-.28,.75-.54,1.06-.23,.23-.51,.41-.82,.53-.31,.12-.64,.16-.97,.14-.3,.02-.6-.03-.89-.13-.29-.1-.54-.26-.77-.46-.22-.2-.4-.45-.53-.72-.13-.27-.2-.57-.21-.87-.13-.54-.39-1.04-.74-1.46-.19-.2-.42-.35-.68-.45-.26-.1-.53-.13-.81-.11-.67,.02-1.33,.22-1.9,.57-.57,.35-1.05,.84-1.38,1.43-1.01,1.61-1.66,3.42-1.9,5.3-.21,1.13-.31,2.27-.31,3.41-.09,1.92,.39,3.82,1.4,5.46,.47,.68,1.11,1.22,1.85,1.58,.74,.36,1.57,.52,2.39,.47,.9-.02,1.78-.21,2.6-.56,.86-.33,1.67-.79,2.4-1.35h0c.12,0,.24,.06,.32,.15,.04,.04,.06,.1,.06,.16s-.02,.12-.06,.16c-1.22,1.19-2.63,2.16-4.18,2.85-1.32,.59-2.74,.91-4.18,.93-1.01,.06-2.02-.13-2.94-.55-.92-.42-1.73-1.06-2.35-1.86h0Z" style="fill:#898989;"></path><path d="M385.26,36.56c.02-.84,.13-1.67,.33-2.48l2.18-11.08c.09-.41,.15-.82,.16-1.24,0-.99-.35-1.49-1.02-1.49s-1.94,.74-3.25,2.23c-.05,.02-.11,.02-.16,0-.07,0-.13-.01-.19-.05-.05-.03-.1-.08-.13-.14-.04-.05-.06-.11-.06-.17s.02-.12,.06-.17c1-1.2,2.15-2.27,3.43-3.19,.86-.63,1.9-.99,2.96-1.02,1.56,0,2.35,.87,2.35,2.62-.02,.71-.11,1.43-.27,2.12l-2.19,11.57c-.09,.44-.15,.88-.16,1.33,0,.93,.31,1.39,.9,1.39s1.64-.67,3.09-2.02c.03-.03,.06-.06,.1-.08,.04-.02,.08-.03,.12-.03,.05,0,.11,.02,.16,.06,.05,.03,.08,.08,.1,.13,.04,.05,.06,.11,.06,.17s-.02,.12-.06,.17c-.95,1.18-2.04,2.23-3.25,3.13-.84,.61-1.84,.95-2.88,.98-1.61,.04-2.4-.88-2.4-2.73Zm3.79-25.32c-.26-.28-.46-.6-.58-.96-.13-.36-.18-.73-.16-1.11-.01-.35,.05-.71,.18-1.03,.13-.33,.33-.62,.59-.87,.56-.49,1.3-.75,2.05-.72,.36-.02,.72,.03,1.06,.15s.65,.32,.91,.57c.48,.52,.72,1.2,.7,1.9,.04,.75-.21,1.5-.7,2.07-.26,.26-.56,.46-.9,.59-.34,.13-.7,.18-1.07,.16-.38,.02-.76-.03-1.11-.16-.36-.13-.68-.33-.96-.58h0Z" style="fill:#898989;"></path><path d="M412.28,18.26c.33,.19,.61,.46,.79,.8,.19,.33,.28,.71,.27,1.09,0,1.64-1.24,3.14-3.6,4.53-2.7,1.49-5.64,2.51-8.69,2.99-.11,.82-.18,1.65-.21,2.48-.1,1.84,.39,3.66,1.39,5.2,.45,.65,1.05,1.16,1.76,1.51,.7,.34,1.49,.5,2.27,.45,.87,0,1.73-.14,2.56-.4,.89-.27,1.73-.69,2.48-1.24h.06c.06,0,.11,.02,.16,.05,.05,.03,.09,.07,.12,.11,.09,.1,.1,.19,0,.26-2.17,2.16-5.09,3.38-8.15,3.41-1,.07-1.99-.1-2.92-.47-.92-.38-1.75-.96-2.41-1.71-1.26-1.59-1.91-3.58-1.84-5.61,0-.91,.1-1.82,.27-2.72,.41-2.01,1.22-3.91,2.4-5.59,1.18-1.68,2.69-3.1,4.44-4.16,1.75-1.08,3.77-1.65,5.83-1.65,1.04-.06,2.07,.17,2.99,.67h0Zm-3.62,2.63c.01-.26-.03-.52-.13-.76-.1-.24-.26-.45-.45-.62-.41-.33-.92-.5-1.44-.48-.71,.04-1.39,.26-1.99,.64-.6,.38-1.08,.92-1.4,1.54-1.05,1.73-1.74,3.65-2.05,5.65,4.47-.99,6.93-2.76,7.35-5.27,.05-.23,.09-.46,.11-.69h0Z" style="fill:#898989;"></path><path d="M430.13,18.81c-.06,.46-.27,.9-.58,1.24-.39,.52-.76,.78-1.12,.78-.15,0-.77-.09-1.86-.27-1.18-.18-2.38-.29-3.57-.32l-2.3,12.82c-.1,.44-.15,.89-.16,1.34,0,1.65,.9,2.48,2.72,2.48,1.76-.14,3.42-.89,4.69-2.12h.06c.07,0,.14,.01,.2,.04,.06,.03,.12,.07,.17,.12,.02,.02,.04,.04,.06,.07,.01,.03,.02,.06,.02,.09s0,.06-.02,.09c-.01,.03-.03,.05-.06,.07-1.29,1.27-2.73,2.37-4.29,3.28-1.12,.63-2.37,.97-3.65,.99-2.7,0-4.05-1.24-4.05-3.72,0-.54,.05-1.07,.15-1.6l2.15-11.64c.1-.51,.15-1.02,.16-1.54,.03-.2,0-.4-.07-.58-.07-.19-.18-.35-.33-.49-.5-.22-1.04-.31-1.57-.26-.1,0-.16-.11-.16-.32s.06-.43,.16-.43c1.35,.03,2.66-.41,3.72-1.24,1.08-.88,1.93-2.01,2.48-3.29,0,0,.16-.1,.37-.1,.15,0,.29,.03,.43,.07,.14,.06,.19,.1,.16,.14l-.76,4.27c.93,0,1.76-.09,2.48-.14l1.97-.14c.67-.09,1.35-.15,2.02-.16,.24,0,.36,.16,.36,.48Z" style="fill:#898989;"></path><path d="M451.26,18.65c.49,.76,.72,1.66,.66,2.56,0,2.75-1.42,6.77-4.26,12.08-2.7,5.1-5.98,9.88-9.76,14.25-3.66,4.19-6.66,6.29-9,6.29-1.89,0-2.83-.77-2.83-2.3-.03-.19-.03-.39,0-.58,.11-.61,.44-1.16,.93-1.55,.54-.37,1.19-.55,1.85-.52,.7,.03,1.4,.15,2.07,.37,.63,.18,1.28,.28,1.93,.31,.78-.03,1.55-.29,2.18-.74,1.44-1.15,2.7-2.51,3.72-4.05v-2.48c.16-5.38-.33-10.75-1.46-16.01-.99-3.8-2.36-5.7-4.11-5.7-.49,0-.96,.17-1.35,.47-.46,.33-.86,.75-1.16,1.24,0,.11-.13,.16-.31,.16s-.36-.1-.32-.32c.59-1.26,1.49-2.34,2.6-3.16,.91-.75,2.03-1.18,3.2-1.24,.77,.05,1.51,.31,2.15,.75,.64,.44,1.14,1.03,1.47,1.73,1.2,2.05,2,4.31,2.37,6.65,.56,3.11,.82,6.27,.79,9.43v3.09c1.41-2.23,2.67-4.38,3.72-6.44,.82-1.47,1.48-3.03,1.96-4.64,.19-.71,.28-1.45,.27-2.18,.02-.65-.09-1.3-.3-1.91-.22-.59-.5-1.17-.82-1.71-.25-.39-.46-.81-.62-1.24-.13-.36-.19-.74-.19-1.12-.01-.33,.05-.65,.18-.95,.13-.3,.33-.56,.58-.78,.54-.46,1.25-.7,1.96-.67,.36-.01,.72,.07,1.04,.23s.6,.4,.82,.69h0Z" style="fill:#898989;"></path><path d="M469.32,37.35c-1.28-1.66-1.93-3.72-1.84-5.81,0-1,.11-2,.32-2.98,.35-2.02,1.12-3.95,2.26-5.66,1.06-1.6,2.48-2.94,4.13-3.91,1.57-.92,3.35-1.41,5.17-1.41,1-.06,1.99,.11,2.91,.48,.92,.38,1.75,.96,2.41,1.7,1.3,1.63,1.96,3.68,1.86,5.76,0,1.02-.11,2.04-.31,3.04-.37,2.13-1.22,4.15-2.48,5.91-1.12,1.58-2.58,2.88-4.27,3.81-1.53,.82-3.23,1.25-4.96,1.24-.98,.06-1.95-.11-2.86-.48-.9-.38-1.71-.95-2.35-1.69h0Zm10.36-1.07c1.09-1.61,1.8-3.45,2.09-5.37,.25-1.27,.38-2.56,.37-3.85,.06-2.02-.37-4.03-1.24-5.86-.26-.67-.7-1.25-1.28-1.67-.58-.42-1.28-.65-1.99-.68-.66,.04-1.3,.23-1.87,.57-.57,.33-1.05,.8-1.4,1.36-1.12,1.64-1.84,3.52-2.1,5.49-.22,1.23-.35,2.47-.37,3.72-.06,2.03,.37,4.05,1.24,5.88,.26,.66,.71,1.24,1.29,1.65,.58,.41,1.27,.65,1.99,.67,.66-.03,1.31-.22,1.88-.55,.57-.33,1.06-.8,1.41-1.36h0Z" style="fill:#898989;"></path><path d="M508.36,1.02c.36,.2,.65,.51,.84,.88,.19,.37,.27,.78,.23,1.2-.08,.58-.37,1.12-.83,1.49-.45,.35-1,.54-1.57,.53-.31,.04-.62,0-.91-.1-.29-.1-.55-.27-.76-.5-.36-.51-.6-1.09-.72-1.7-.09-.43-.24-.85-.45-1.24-.1-.14-.23-.25-.39-.32-.16-.07-.33-.1-.5-.08-1.24,0-2.25,1.15-3.12,3.49-1.15,3.51-1.95,7.12-2.38,10.78l-.47,3.25,2.23-.16c1.77-.14,2.76-.21,2.93-.21,.07,0,.13,.01,.19,.05,.06,.03,.1,.08,.13,.14,.03,.06,.04,.13,.04,.2s-.01,.14-.04,.2c-.15,.45-.38,.87-.68,1.24-.36,.45-.7,.65-1.02,.61-.45-.05-.89-.12-1.33-.21-.78-.14-1.69-.25-2.72-.32l-2.94,19.77c-.34,2.75-.94,5.46-1.77,8.1-.47,1.61-1.38,3.06-2.62,4.18-1.14,.86-2.54,1.3-3.97,1.24-1.16,.07-2.31-.21-3.3-.79-.35-.19-.63-.48-.8-.83-.17-.35-.23-.75-.16-1.14,.02-.28,.1-.55,.23-.8,.13-.25,.31-.47,.53-.64,.43-.35,.96-.54,1.51-.53,.29-.03,.58,0,.85,.1,.27,.1,.51,.27,.7,.48,.33,.5,.54,1.06,.63,1.65,.07,.39,.2,.77,.39,1.12,.07,.13,.18,.23,.32,.3,.13,.07,.28,.1,.43,.08,.39,0,.71-.29,.96-.83,.37-1,.63-2.04,.79-3.09,.28-1.51,.67-3.92,1.18-7.22l2.72-18.81c.07-.78,.1-1.24,.1-1.38,0-.68-.17-1.09-.53-1.24-.74-.21-1.51-.29-2.29-.24-.11,0-.16-.11-.16-.32s0-.43,.16-.43c.89,.07,1.78-.1,2.58-.5,.29-.22,.52-.5,.7-.82,.17-.32,.27-.67,.29-1.03,.5-3.42,1.33-6.78,2.48-10.04,.62-1.96,1.82-3.69,3.44-4.96,1.62-1.03,3.52-1.53,5.43-1.44,1.2-.07,2.39,.23,3.41,.86h0Z" style="fill:#898989;"></path><path d="M15.74,116.93c-.07,1.39,.12,2.78,.56,4.1,.19,.43,.47,.81,.84,1.12,.36,.3,.79,.51,1.25,.62,1.63,.36,3.3,.51,4.96,.45h9.57c3.6,.12,7.1-1.19,9.74-3.64,2.69-2.69,4.46-6.17,5.04-9.93,0-.2,.17-.29,.55-.25,.37,.04,.55,.15,.55,.35-.54,4.7-.84,9.43-.89,14.16,.03,.4-.07,.81-.3,1.14-.17,.14-.37,.25-.58,.31-.21,.06-.44,.07-.66,.04H.2c-.14,0-.2-.2-.2-.6s.06-.6,.2-.6c1.81,.07,3.61-.1,5.37-.51,.51-.11,.99-.34,1.4-.68,.41-.33,.73-.76,.93-1.25,.47-1.43,.67-2.94,.6-4.44v-46.14c.08-1.49-.13-2.98-.6-4.39-.21-.47-.53-.89-.93-1.23-.4-.33-.86-.58-1.37-.71-1.76-.44-3.57-.62-5.37-.55-.14,0-.2-.2-.2-.61s.06-.6,.2-.6l4.96,.1c2.79,.14,5.09,.2,6.88,.2s4.29-.06,7.09-.2l4.88-.1c.14,0,.2,.2,.2,.6s0,.61-.2,.61c-1.8-.07-3.59,.11-5.34,.55-.51,.13-.99,.38-1.4,.72s-.72,.78-.94,1.26c-.47,1.43-.68,2.94-.61,4.44l-.02,45.65Z" style="fill:#898989;"></path><path d="M54.92,124.81c0-.4,.1-.6,.3-.6,2.48,0,4.08-.46,4.88-1.35,.79-.89,1.24-2.74,1.24-5.53v-18.49c.09-1.72-.15-3.45-.69-5.09-.19-.5-.53-.92-.98-1.21-.45-.29-.97-.43-1.51-.39-1.55,.13-3.05,.61-4.39,1.4h-.1c-.26,0-.46-.16-.6-.5-.14-.33,0-.57,.2-.69l13.25-6.21,.41-.1c.24,.02,.47,.13,.65,.3,.1,.07,.18,.16,.24,.26,.06,.1,.1,.22,.11,.33,0,.46,0,1.79-.1,3.98-.1,2.2-.1,4.79-.1,7.77v18.62c-.05,1.46,.1,2.92,.45,4.34,.12,.44,.34,.85,.64,1.2s.68,.61,1.1,.79c1.25,.43,2.57,.62,3.9,.56,.2,0,.3,.2,.3,.6s-.1,.6-.3,.6c-1.66,0-2.97,0-3.9-.1l-5.37-.1-5.58,.1c-.93,0-2.16,.1-3.72,.1-.21,0-.31-.19-.31-.58Zm5.42-51.33c-.43-.45-.76-.98-.97-1.57-.21-.58-.31-1.2-.27-1.82-.03-.59,.07-1.18,.28-1.73,.21-.55,.54-1.05,.96-1.46,.46-.43,1.01-.75,1.6-.97,.59-.21,1.22-.31,1.85-.27,.6-.03,1.21,.07,1.77,.28,.57,.21,1.08,.54,1.52,.96,.41,.42,.74,.92,.95,1.47,.21,.55,.31,1.14,.29,1.72,.03,.62-.06,1.24-.28,1.82-.21,.58-.54,1.12-.97,1.57-.44,.42-.95,.74-1.52,.96-.57,.21-1.17,.31-1.77,.28-1.27,.06-2.51-.39-3.45-1.24h0Z" style="fill:#898989;"></path><path d="M127.04,124.81c0,.4-.1,.6-.31,.6-1.65,0-2.95,0-3.88-.1l-5.39-.1-5.37,.1c-.93,0-2.2,.1-3.72,.1-.2,0-.3-.2-.3-.6s.1-.6,.3-.6c1.29,.06,2.57-.13,3.79-.56,.41-.18,.78-.45,1.07-.8,.29-.34,.5-.75,.61-1.19,.36-1.42,.51-2.88,.46-4.34v-15.85c0-3.85-.71-6.69-2.15-8.51-1.43-1.82-3.72-2.74-6.83-2.74-2.07,.03-4.1,.54-5.93,1.49-2.09,1.04-3.97,2.47-5.53,4.19v21.42c-.05,1.46,.1,2.92,.45,4.34,.12,.44,.34,.85,.64,1.2,.3,.34,.68,.61,1.11,.79,1.25,.43,2.57,.62,3.88,.56,.2,0,.3,.2,.3,.6s-.1,.6-.3,.6c-1.66,0-2.95,0-3.88-.1l-5.39-.1-5.39,.1c-.93,0-2.18,.1-3.79,.1-.2,0-.3-.2-.3-.6s.1-.6,.3-.6c1.3,.07,2.61-.12,3.83-.56,.42-.18,.78-.45,1.08-.8,.29-.34,.51-.75,.62-1.19,.35-1.42,.5-2.88,.45-4.34v-19.53c.1-1.63-.17-3.27-.79-4.78-.24-.48-.61-.87-1.07-1.14-.46-.27-.99-.39-1.52-.36-1.83,.22-3.61,.73-5.29,1.5h-.1c-.13,0-.26-.05-.37-.13-.11-.08-.19-.19-.23-.32-.04-.05-.06-.12-.07-.18,0-.06,0-.13,.01-.19,.02-.06,.05-.12,.1-.17,.04-.05,.1-.09,.16-.11l11.96-5.77,.6-.1c.67,0,1.32,.74,1.95,2.23,.71,1.9,1.06,3.91,1.04,5.93,4.85-5.71,9.93-8.57,15.25-8.58,1.57-.09,3.13,.15,4.6,.69,1.47,.55,2.81,1.4,3.93,2.5,2.02,2.13,3.04,5.15,3.04,9.07v19.43c-.05,1.46,.1,2.92,.45,4.34,.12,.44,.34,.85,.64,1.2,.3,.34,.68,.61,1.1,.79,1.25,.43,2.56,.62,3.89,.56,.3,0,.3,.2,.3,.6Z" style="fill:#898989;"></path><path d="M141.03,123.75c-2.82-1.77-5.09-4.31-6.53-7.32-1.42-2.95-2.16-6.19-2.15-9.47-.1-3.98,1.05-7.88,3.29-11.17,2.13-3.1,5.01-5.61,8.38-7.28,3.25-1.63,6.83-2.49,10.46-2.48,2.81-.04,5.59,.57,8.13,1.79,2.42,1.19,3.64,2.69,3.64,4.49,.01,.46-.08,.93-.26,1.35-.18,.43-.45,.81-.79,1.13-.37,.34-.8,.6-1.27,.78-.47,.17-.97,.25-1.47,.23-2.14,0-3.72-1.24-4.79-3.6-.57-1.26-1.45-2.35-2.54-3.19-1.25-.74-2.69-1.08-4.13-.99-1.65-.06-3.29,.31-4.75,1.07-1.47,.76-2.71,1.89-3.61,3.27-2,2.88-2.99,6.73-2.99,11.5,0,5.58,1.36,10.14,4.08,13.65,2.72,3.52,6.86,5.29,12.41,5.32,3.57,.07,7.06-1.06,9.93-3.19h.2c.11,0,.21,.03,.31,.09,.09,.05,.17,.12,.24,.21,.16,.2,.15,.37,0,.5-2.05,1.95-4.42,3.52-7.02,4.64-2.52,.99-5.22,1.48-7.93,1.44-3.8,.15-7.56-.81-10.82-2.77h0Z" style="fill:#898989;"></path><path d="M182.24,123.87c-2.94-1.88-5.32-4.53-6.88-7.66-1.65-3.26-2.51-6.86-2.48-10.51-.12-3.92,1-7.77,3.19-11.02,2.05-2.95,4.86-5.29,8.13-6.78,3.17-1.47,6.62-2.23,10.12-2.25,3.65-.08,7.23,.93,10.31,2.89,2.92,1.89,5.27,4.52,6.82,7.63,1.61,3.09,2.45,6.51,2.46,9.99,.08,3.8-.92,7.55-2.89,10.81-1.89,3.06-4.57,5.54-7.77,7.19-3.3,1.68-6.97,2.53-10.67,2.48-3.64,.1-7.24-.87-10.34-2.78h0Zm21.23-2.94c1.89-2.59,2.84-6.55,2.84-11.86,.07-3.82-.61-7.61-2-11.17-1.12-2.97-3.01-5.58-5.49-7.57-2.21-1.74-4.95-2.68-7.77-2.66-1.52-.08-3.03,.22-4.41,.87-1.38,.65-2.57,1.63-3.47,2.85-1.85,2.55-2.78,6.25-2.78,11.09-.04,3.86,.62,7.69,1.95,11.31,1.08,3.1,2.91,5.87,5.34,8.08,2.13,1.91,4.9,2.96,7.77,2.94,1.55,.07,3.1-.25,4.5-.93,1.4-.68,2.61-1.69,3.52-2.95h0Z" style="fill:#898989;"></path><path d="M220.97,124.81c0-.4,.1-.6,.3-.6,2.48,0,4.08-.46,4.89-1.35,.81-.89,1.24-2.74,1.24-5.53v-51.33c.09-1.75-.13-3.5-.64-5.17-.16-.49-.48-.91-.9-1.2-.42-.29-.93-.43-1.44-.41-1.57,.17-3.1,.65-4.48,1.4h-.1c-.27,0-.48-.19-.66-.56-.17-.37-.11-.57,.15-.65l13.17-6.21,.4-.1c.26,.02,.5,.13,.7,.3,.11,.06,.2,.15,.27,.25,.07,.1,.11,.22,.13,.34v63.29c0,2.79,.39,4.64,1.15,5.53,.77,.89,2.4,1.35,4.96,1.35,.2,0,.3,.2,.3,.6s-.1,.6-.3,.6c-1.59,0-2.89,0-3.88-.1l-5.49-.1-5.59,.1c-.93,0-2.18,.1-3.78,.1-.26,.02-.39-.17-.39-.57Z" style="fill:#898989;"></path><path d="M293.23,124.81c0,.4-.1,.6-.3,.6-1.66,0-2.97,0-3.9-.1l-5.37-.1-5.39,.1c-.93,0-2.2,.1-3.79,.1-.2,0-.3-.2-.3-.6s.1-.6,.3-.6c1.3,.07,2.61-.12,3.84-.56,.41-.18,.78-.46,1.08-.8,.29-.34,.51-.75,.62-1.19,.35-1.42,.5-2.88,.45-4.34v-15.85c0-3.85-.72-6.68-2.15-8.51-1.43-1.82-3.72-2.74-6.83-2.74-2.07,.03-4.1,.54-5.93,1.49-2.09,1.05-3.96,2.47-5.54,4.19v21.42c-.05,1.46,.1,2.92,.45,4.34,.12,.44,.34,.85,.64,1.2,.3,.34,.68,.61,1.11,.79,1.25,.43,2.57,.62,3.89,.56,.2,0,.3,.2,.3,.6s-.1,.6-.3,.6c-1.66,0-2.95,0-3.89-.1l-5.39-.1-5.37,.1c-.94,0-2.2,.1-3.8,.1-.2,0-.3-.2-.3-.6s.1-.6,.3-.6c1.31,.07,2.62-.12,3.85-.56,.41-.18,.78-.46,1.07-.8,.29-.34,.5-.75,.62-1.19,.35-1.42,.5-2.88,.45-4.34v-19.53c.11-1.63-.17-3.27-.79-4.78-.24-.48-.61-.88-1.07-1.14-.46-.27-.99-.39-1.52-.36-1.85,.21-3.64,.72-5.33,1.5-.13,0-.26-.05-.37-.13-.11-.08-.19-.19-.23-.32-.03-.06-.06-.12-.07-.18,0-.06,0-.13,.02-.19,.02-.06,.05-.12,.09-.17s.1-.09,.15-.12l11.96-5.77,.6-.1c.67,0,1.32,.74,1.95,2.23,.7,1.9,1.06,3.91,1.04,5.93,4.85-5.71,9.93-8.57,15.25-8.58,1.56-.09,3.13,.14,4.6,.69,1.47,.55,2.8,1.4,3.93,2.5,2.02,2.13,3.04,5.15,3.04,9.07v19.43c-.05,1.46,.1,2.92,.45,4.34,.12,.44,.33,.85,.64,1.2,.3,.34,.68,.61,1.1,.79,1.25,.43,2.57,.62,3.9,.56,.16,0,.23,.2,.23,.6Z" style="fill:#898989;"></path><path d="M304.04,64.86c1.28,1.98,1.88,4.32,1.71,6.68,.02,2.64-.62,5.24-1.85,7.57-1.43,2.6-3.26,4.95-5.42,6.99-.09,.07-.2,.11-.31,.1-.1,0-.2-.03-.29-.08-.09-.05-.16-.13-.21-.21-.13-.21-.13-.37,0-.51,1.57-1.52,2.81-3.35,3.65-5.37,.84-2.02,1.26-4.19,1.24-6.38,.11-1.44-.24-2.87-1.01-4.1-.34,.52-.82,.93-1.38,1.2-.56,.26-1.18,.37-1.8,.3-.56,.03-1.12-.05-1.64-.25-.52-.2-1-.51-1.4-.9-.4-.4-.7-.87-.9-1.4-.2-.52-.28-1.09-.25-1.64-.04-.6,.06-1.19,.29-1.74,.23-.55,.57-1.05,1.02-1.45,1.07-.8,2.39-1.18,3.72-1.09,.93-.04,1.86,.14,2.7,.54,.84,.4,1.57,1,2.13,1.75h0Z" style="fill:#898989;"></path><path d="M318.16,98.19c1.98,1.76,4.19,3.24,6.58,4.39,2.33,1.19,4.15,2.22,5.49,3.09,1.36,.89,2.52,2.06,3.39,3.44,.95,1.54,1.43,3.32,1.39,5.13,.02,1.63-.31,3.25-.96,4.75-.65,1.5-1.62,2.84-2.83,3.94-2.53,2.39-6.02,3.59-10.46,3.59-1.68,.02-3.35-.22-4.96-.69-1.69-.52-3.29-1.3-4.74-2.3-.2-.13-.37-.32-.47-.54s-.15-.46-.13-.7l-.2-8.08c0-.2,.19-.31,.54-.35,.36-.04,.58,0,.66,.25,.95,2.97,2.66,5.63,4.96,7.73,1.97,1.77,4.52,2.74,7.17,2.74,1.61,.11,3.21-.37,4.49-1.37,.55-.54,.98-1.19,1.26-1.91,.27-.72,.39-1.5,.33-2.27,.07-1.12-.09-2.24-.47-3.3-.39-1.06-.98-2.02-1.76-2.83-2.03-1.78-4.29-3.27-6.73-4.43-1.83-.88-3.59-1.88-5.29-2.99-1.3-.9-2.4-2.05-3.24-3.39-1.24-2.2-1.64-4.78-1.15-7.25,.49-2.48,1.86-4.7,3.84-6.26,2.86-1.94,6.26-2.94,9.72-2.84,2.56-.01,5.09,.5,7.45,1.5,.59,.26,.89,.63,.89,1.09,0,1.4,0,2.48-.1,3.29l-.1,4.29c0,.12-.2,.2-.6,.2s-.59-.07-.59-.2c0-2.06-1.12-3.95-3.34-5.63-2.03-1.6-4.54-2.48-7.12-2.48-1.35-.05-2.67,.39-3.72,1.24-.5,.49-.88,1.08-1.13,1.74-.24,.66-.34,1.36-.27,2.06-.03,1,.16,1.99,.53,2.91,.38,.92,.94,1.76,1.66,2.45h0Z" style="fill:#898989;"></path><path d="M383.53,121.82c.21,.47,.52,.89,.92,1.21,.4,.33,.87,.56,1.37,.67,1.77,.4,3.58,.58,5.39,.51,.13,0,.2,.2,.2,.6s-.07,.6-.2,.6c-2.06,0-3.72,0-4.89-.1l-7.17-.1-6.88,.1c-1.24,0-2.97,.1-5.09,.1-.2,0-.3-.2-.3-.6s.1-.6,.3-.6c1.81,.07,3.62-.1,5.39-.51,.51-.12,.99-.36,1.4-.7,.41-.34,.73-.76,.95-1.24,.5-1.43,.72-2.93,.65-4.44v-46.14c.08-1.49-.14-2.99-.65-4.39-.23-.47-.56-.88-.96-1.22-.41-.33-.88-.58-1.38-.72-1.76-.44-3.57-.62-5.39-.55-.2,0-.3-.2-.3-.61s.1-.6,.3-.6l5.09,.1c2.79,.14,5.08,.2,6.88,.2s4.36-.06,7.27-.2l4.79-.1c.13,0,.2,.2,.2,.6s-.07,.61-.2,.61c-1.8-.07-3.6,.13-5.33,.6-.52,.15-1,.4-1.4,.76-.41,.35-.73,.79-.94,1.29-.47,1.43-.67,2.93-.6,4.43v45.92c-.09,1.53,.12,3.06,.6,4.52h0Z" style="fill:#898989;"></path><path d="M445.83,124.81c0,.4-.1,.6-.3,.6-1.66,0-2.95,0-3.88-.1l-5.39-.1-5.39,.1c-.93,0-2.19,.1-3.79,.1-.2,0-.3-.2-.3-.6s.1-.6,.3-.6c1.3,.07,2.6-.12,3.83-.56,.42-.18,.78-.45,1.08-.8,.29-.34,.51-.75,.62-1.19,.35-1.42,.5-2.88,.45-4.34v-15.85c0-3.85-.72-6.68-2.15-8.51-1.43-1.83-3.71-2.74-6.83-2.74-2.07,.03-4.09,.54-5.93,1.49-2.09,1.05-3.96,2.47-5.53,4.19v21.42c-.05,1.46,.1,2.92,.46,4.34,.12,.44,.33,.85,.64,1.2,.3,.34,.68,.61,1.1,.79,1.25,.43,2.56,.62,3.88,.56,.21,0,.3,.2,.3,.6s-.09,.6-.3,.6c-1.65,0-2.95,0-3.88-.1l-5.39-.1-5.37,.1c-.93,0-2.2,.1-3.79,.1-.2,0-.3-.2-.3-.6s.1-.6,.3-.6c1.3,.07,2.61-.12,3.84-.56,.41-.18,.78-.45,1.07-.8,.29-.34,.5-.75,.61-1.19,.36-1.42,.51-2.88,.46-4.34v-19.53c.1-1.63-.17-3.27-.81-4.78-.23-.48-.61-.88-1.07-1.14-.46-.27-.99-.39-1.52-.36-1.83,.22-3.61,.73-5.27,1.5h-.1c-.13,0-.27-.04-.37-.12-.11-.08-.19-.19-.22-.32-.04-.05-.06-.12-.07-.18,0-.07,0-.13,.01-.19,.02-.06,.05-.12,.1-.17,.04-.05,.1-.09,.16-.11l11.95-5.77,.61-.1c.65,0,1.3,.74,1.93,2.23,.71,1.9,1.06,3.91,1.04,5.93,4.85-5.71,9.93-8.57,15.25-8.58,1.57-.1,3.14,.14,4.6,.69,1.47,.55,2.8,1.4,3.92,2.5,2.02,2.13,3.04,5.15,3.04,9.07v19.43c-.05,1.46,.1,2.92,.45,4.34,.12,.44,.34,.85,.64,1.2,.31,.34,.68,.61,1.11,.79,1.25,.43,2.56,.62,3.88,.56,.2,0,.3,.2,.3,.6Z" style="fill:#898989;"></path><path d="M497.55,124.81c0,.4-.1,.6-.3,.6-1.66,0-2.95,0-3.88-.1l-5.39-.1-5.37,.1c-.93,0-2.2,.1-3.8,.1-.2,0-.3-.2-.3-.6s.1-.6,.3-.6c1.31,.07,2.61-.12,3.85-.56,.41-.18,.78-.46,1.07-.8,.29-.34,.5-.75,.62-1.19,.35-1.42,.5-2.88,.45-4.34v-15.85c0-3.85-.71-6.69-2.14-8.51-1.44-1.82-3.72-2.74-6.84-2.74-2.06,.03-4.09,.54-5.92,1.49-2.09,1.04-3.97,2.47-5.53,4.19v21.42c-.05,1.46,.1,2.92,.45,4.34,.12,.44,.34,.85,.64,1.2,.31,.34,.68,.61,1.11,.79,1.25,.43,2.56,.62,3.89,.56,.2,0,.3,.2,.3,.6s-.1,.6-.3,.6c-1.66,0-2.97,0-3.89-.1l-5.39-.1-5.39,.1c-.93,0-2.2,.1-3.72,.1-.2,0-.3-.2-.3-.6s.1-.6,.3-.6c1.3,.07,2.6-.12,3.83-.56,.42-.18,.78-.45,1.08-.8,.29-.34,.51-.75,.62-1.19,.35-1.42,.5-2.88,.45-4.34v-19.53c.1-1.63-.17-3.27-.8-4.78-.24-.48-.61-.87-1.07-1.14-.46-.27-.99-.39-1.52-.36-1.83,.22-3.61,.72-5.29,1.5h-.1c-.13,0-.26-.05-.37-.13-.11-.08-.19-.19-.23-.32-.03-.05-.06-.12-.07-.18,0-.07,0-.13,.01-.19,.02-.06,.05-.12,.09-.17,.05-.05,.1-.09,.16-.11l11.96-5.77,.59-.1c.66,0,1.32,.74,1.95,2.23,.7,1.9,1.05,3.91,1.04,5.93,4.86-5.71,9.94-8.57,15.25-8.58,1.56-.09,3.13,.14,4.59,.69s2.8,1.4,3.91,2.5c2.04,2.13,3.04,5.15,3.04,9.07v19.43c-.05,1.46,.1,2.92,.45,4.34,.12,.44,.34,.85,.64,1.2,.3,.34,.68,.61,1.11,.79,1.25,.43,2.56,.62,3.89,.56,.17,0,.25,.2,.25,.6Z" style="fill:#898989;"></path></g></g></g></svg>