<svg xmlns="http://www.w3.org/2000/svg" viewBox="0 0 493.06 102.69"><g id="a"></g><g id="b"><g id="c"><g><polygon points="117.08 76.83 117.08 76.83 117.09 76.83 117.08 76.83" style="fill:#898989;"></polygon><path d="M3,78.13h.01c-2.57,1.04-1.21,4.21-2.81,5.83,0,.21-.44,.65,0,.87,1.08,.21,1.95,.65,3.24,.87,.58-1.94,1.14-4.09,1.51-5.84-.44-.65-1.08-1.51-1.95-1.73Z" style="fill:#898989;"></path><path d="M73.13,73.37c.87,1.08,.87,2.59,1.95,3.46,1.32,.19,2.66-.21,3.68-1.08,.65-.44-.22-1.08-.43-1.73-.65-.87-.22-2.6-1.73-2.6-1.64,.38-3.44-.09-4.98,.43,0,.65,1.3,.65,1.51,1.52Z" style="fill:#898989;"></path><path d="M93.1,74.2c1.97-3.6-3.27-7.16-3.68-10.39-1.2-.33-2.78-1.26-3.68,0,.66,1.61,4.38,7.51,4.11,9.31-.49,1.3-1.59,4.32-3.24,4.11,.44-1.51,1.08-3.24,1.08-4.98-.79-1.85-4.27-7.2-4.54-9.09,.69-1.83,4.24-.77,5.62-2.6,1.52-2.38,1.95-4.76,2.39-7.79,.09-.31,.34-.56,.65-.65,2.11,1.36-.04,7.87-1.3,9.31-.12,2.24,4.3,.74,5.2,0,1.67,.35,5.06-1.32,5.84-.22-1.01,1.28-1.75,2.75-2.16,4.33-1.3,1.51-3.46,2.6-3.46,4.76,.24,1.36,2.07-.83,2.16,.87-1.89,2.39-1.65,2.97-1.08,5.63,1.98,2.78,5.76,.49,8.23-.21,4.17-1.63,8.86,.95,12.12-3.46,.88,.08,1.68,.55,2.16,1.3,2.41,2.53,5.81,3.88,9.31,3.68,1.42-.99-1.68-1.76-2.16-2.17-1.51-.87-3.46-2.16-3.9-3.89-.57-2.42-2.32-4.63-3.46-6.92,5.05,.07,5.59,10.63,12.97,9.09,.36-.25,.32-.52,.22-.87l-1.95-.44h-.07c-2.81-1.5-3.9-4.75-5.63-7.13-4.53-4.69-5.3-12.7-6.48-19.27-1.2-6.37-6.64-11.09-10.41-16.01-3.35-2.73-12.09-11.01-16.21-12.34-5.44-2.26-10.19,2.01-14.72,4.11-3.68,1.51-7.57,1.95-10.82,4.76-5.1,6.54-8.16,1.31-14.07,6.48-8.8,9.23-12.14,1.11-24.24,11.91-3.24,1.95-6.28,3.89-10.19,3.68-6.22-.29-8.34-8.65-3.46-12.34,3.4-3.8,11.73-7.7,7.59-13.84-4.31-3.84-9.37-2.2-14.5-6.48-2.36,3.7,.66,8.73,4.54,9.96,1.59,.99,5.3-.59,6.06,1.72-1.64,3.28-6.12,5.06-8.22,8.23-5.24,6.05-.06,15.96,7.36,16.43,2.74,.89,6.24-1.35,8.01-.43,.22,2.16,0,4.11,.44,6.06,.2,2.13,2.63,4.42,1.3,6.48-2.15,1.85-4.94,2.8-7.78,2.63-1.48,1.7-1.73,3.63-2.6,5.63-1.08,1.95-3.24,2.81-4.76,3.68-1,1.52-2,3.21-4.11,3.46-1.3,1.51-1.51,3.46-1.95,5.41,5.41,1.43,6.57,.7,9.52-3.9,1.08-1.08,2.6-.21,3.68,0,3.08-.37,5.37-2.42,7.58-4.33,7.87-2.06,7.8,3.1,16.88-2.82,1.52-.65,2.17-2.38,2.82-3.68,.76-1.45,2.86-4.24,.22-4.97-6.79,13.75-18.62,2.56-27.71,12.97-1.39,.38-.31-1.78,0-2.17,6.52-9.49,21.34-1.13,26.4-13.43,.89-1.89,.38-9.42,2.6-9.31,.22,0,.87,.22,.87,.65-2.1,9.18-.71,12.03,9.09,10.42,3.35-.97,12.97,2.45,12.77-2.16,0-.87-.87-1.3,0-1.95,.21-.22,.87,0,1.08,.21,.61,3.7,3.86,6.42,6.95,8.01,6.22,4.23,3.71,9.76-3.46,9.52-2.38-1.3-3.03-3.68-4.76-5.63-2.02-1.77-4.79-.93-7.14-.44-1.17,1.76,1.61,3.87,2.16,5.63,1.08,.65,2.6-.44,3.46,.86,.87,1.3,1.3,2.6,2.6,3.46,3.75,3.6,11.58-2.72,15.58-3.03,3.5,.38,5.1-2.81,6.28-5.41Zm17.46-22.27c.24-.29,.34-.63,.65-.87,.46-2.66,2.89-1.14,3.46,.43,1.49,1.85,3.24,3.94,3.03,6.06-.22-.22-.22,.22-.22,.65h0c-.24,.43-.61,1.53-1.08,1.52-.47,0-.67,.07-.65-.43-.04-1.45-.28-3.24-1.52-4.11-2.83-4.39-3.54,1.11-4.54,.43-.6-1.22,.35-2.61,.87-3.68Zm.86,15.8h.65c.79,.33,.59,2.42-.22,3.03-.99,.26-2.01,.41-3.03,.43h-.21c-1.28-1.18,1.39-3.54,2.81-3.46Zm-20.99-35.93c.32-.38,.87-.47,1.3-.22,1.98,1.48,2.32,3.55,2.38,6.06,.43,.43,.21,1.73,0,2.6h.01c-.22,.22-.44,.22-.87,.22-.58-2.19-.78-4.47-1.95-6.28-.61-.59-1.39-1.37-.87-2.38Z" style="fill:#898989;"></path><path d="M7.77,78.12h-.01c1.51-.87,2.38-2.38,3.03-3.68-.46-.73-1.03-1.69-2.16-1.3-1.03,.8-2.11,1.52-3.24,2.16-.54,1.47,.81,3.33,2.38,2.82Z" style="fill:#898989;"></path><path d="M181.28,46.59v-.02c-2.31-17.22-8.2-32.36-29.24-37.93,13,3.15,13.99,4.78,15.68,5.89-10.11-9.32-26.39-12.57-42.84-9.79,9.23-2.98,24.18-2.74,34.08,2.72C135.68-6.19,108.03,.13,90.94,16.45c3.23,.64,6.08,2.78,8.74,4.82,.02-.02,.04-.02,.06-.04,1.03,.79,2.14,1.71,3.19,2.59,3.68-3,18.7-5.1,20.01-4.88-.3,.06-.64,.15-.96,.21-3.86,.32-15.61,2.16-18.93,4.86l1.58,1.33s.04-.02,.06-.02l.6,.51c10.3-3.64,25.96-6.17,37.05-3.49-.09,0-.19,.02-.28,.02-1.03-.43-6.6-.99-8.61-1.01-9,0-20.39,1.69-28.06,4.63l1.8,1.52,.04-.02c2.1,1.63,4.03,4.2,5.87,6.6,.04,.04,.09,.09,.11,.13,.32,.39,.63,.79,.94,1.18s.61,.77,.92,1.13c.02,0,.02-.02,.04-.02h0c17.16-8.4,27.02-8.65,35.7-7.56,.84,.47-6.15,.75-4.46,1.26,1.88,.45,5.42-.6,6.25-.71,.51-.17,3.86-.06,4.9,.13,4.03,.99,.26,1.5-1.14,1.16-.71-.04-1.39-.04-2.08,.04-1.54,.3-3.43,.64-4.97,.88-.41,.06-5.12-.06-4.41,.56,.9-.06,4.88,.66,5.89,.54,.62-.15,1.24,.06,1.82-.24,.3-.21,1.46-.36,1.52,.13-1.35,3-5.4,.75-8.46,1.39-2.72,.21-5.61,1.43-6.1,1.01,8.93-5.46-12.77,2.66-12.38,4.03h.06c.06,1.22,3.47-.56,4.16-.43,1.5-.11,3.51-1.05,4.97-1.39,1.09,0,1.52,.56,2.61,.3,2.38-.04,4.54-1.07,6.83-1.52,.21,0,1.59,.6,1.59,.77,4.33,3.92,6.62,.66,11.37,1.95,.77,.09-.13,.58-.39,.75-2.53,1.76-5.5,2.03-8.42,2.25-.47-.06-.96,.02-1.41,.24-.96-.09-1.84,.47-2.81,.32-2.72,.04-5.42,.45-7.86,1.71-.92,.17-1.97,.32-2.66,1.01-.71,.58-1.78,.36-2.38,1.01-1.07,.62-9.02,2.31-8.12,3.96v.11c11.97-1.74,26.05-9.55,40.97-5.68-1.07-.26-2.16-.45-3.26-.6-3.38,8.1-3.88,13.71-11.39,18.18-8.37,5.48-3.13,4.07-3.04,4.05,.64-.28,1.26-.6,1.84-1.01-3.23,5.2-8.87,8.52-15.57,10.05-.04,.47-.24,.79-.51,1.03-.04,.04-.09,.09-.13,.11-.09,.07-.2,.14-.3,.19-.54,.28-1.17,.43-1.64,.67-.2,.1-.37,.21-.5,.36-.15,.17-.24,.39-.21,.66,.13,.64,0,1.16-.34,1.56-.04,.08-.12,.16-.17,.22-.69,.64-1.84,.94-2.89,.86-5.57,.06-8.25-2.68-10.51-3.98-3.56,2.38-5.2,2.68-9.68,2.18-2.21,.02-4.22,1.16-6.43,1.67h.01s-.03,.02-.04,.02c.02,.02,.04,.04,.06,.04,3.26,2.83,16.6,6.4,11.69,3.98-8.12-4.61-2.23-1.54,4.86,.13,5.16,1.29,10.47,1.76,15.76,1.41-14.91,5.76-32.73,6.47-44.72-3.32,2.68,2.59,5.95,5.5,9.06,7.41-1.88-.32-3.23-1.8-5.03-2.36,.02,.06,4.35,5.68,17.24,7.15,.81,.09,1.58,.17,2.31,.24-1.44,.36-7.9,0-9.62-.36,.21,.11,.56,.24,.86,.36,.96-.11,4.5,.49,8.25,1.05-2.85-.34-5.57-.75-8.03-1.01,.24,.11,1.56,.71,8.07,3.02-.47,.17-2.63,.47-11.61-3.38,18.12,10.45,37.38,5.8,54.49-4.18-8.05,4.88-16.9,8.97-26.69,10.09,12.89,.45,28.21-8.82,36.54-16.43-.66,.45-1.37,.88-2.03,1.33,1.01-.71,2.01-1.41,3-2.16,0,.06-.02,.17-.02,.24,.17,.04,.39,.06,.56,.09-.07,.2-.61,.9-1.61,2.1,3.3-2.66,4.97-6.77,8.46-9.25-1.78,3.58-4.07,6.15-8.31,10.28,.17-.11,.32-.24,.47-.39-6.36,5.87-14.74,11.61-27.59,14.65,.77-.09,1.52-.24,2.27-.41-1.14,.34-1.24,.39-1.86,.6,.29-.03,1.19-.2,2.7-.51-1.24,.62-2.66,.92-5.87,1.58,19.23-3.28,38.96-16.94,43.5-35.77,.09-.24,.21-.58,.21-.6l-.06,.02c.77-2.72,1.48-5.08,1.48-7.84,1.54-8.82-4.09-20.86-12.89-27.76,11.48,8.7,16.17,23.35,11.72,35.51l.04-.02c2.18-6.32,3.08-13,2.63-19.64h.04Zm-50.81,33.38s-.03,.02-.04,.03c.02-.02,.04-.03,.06-.05h-.01Zm2.62,15.37h0c-2.72,1.02-5.55,1.51-8.42,1.72,6.38-.9,16.96-4.26,18.21-5.93,.13-.02,.24-.06,.36-.09,.56,.24-3.96,2.57-10.15,4.3Zm19.64-21.19c-.84,.56-2.14,1.09-3.23,1.33,1.33-.34,2.96-1.09,3.62-1.69-.13,.13-.26,.26-.39,.36Zm-5.4-55.97c2.18,.49,6.02,1.22,7.78,2.48-1.86-1.16-5.46-1.82-7.58-2.29-.02,.02-.02,.04,0,.06-.18-.1-.27-.18-.2-.25Zm15.57,9.92c.09,.04,.15,.06,.21,.11,.24,.15,.45,.3,.69,.43-.3-.17-.58-.36-.9-.54Zm-16.6-5.87c-.26-.09-.51-.17-.75-.28,6.53,1.41,13.99,2.83,20.03,6.21-5.85-3.19-12.96-4.6-19.28-5.93Zm10.25,43.31h-.01c-.56-.34-1.26-.39-1.84-.09-.19-1.09,2.16-2.61,.75-3.28,1.39-3.06,4.65-4.73,5.74-8.4,0,.47,1.07,.69,1.5,.69,1.86-.32,1.91-2.87,2.51-3.38-.47,5.78-4.37,10.52-8.65,14.46Zm1.93,6.52c.07-.08,.13-.15,.21-.23,.02,0,.04,.04,.06,.06-.06,.02-.14,.06-.27,.17Zm9.65-17.58c.64-.75,1.11-1.11,1.8-1.97,0,.06-.02,.11-.04,.17-.64,.75-1.11,1.11-1.82,1.99l.06-.19Zm6.75-4.94h0c-1.22-1.32-2.68-2.41-4.31-3.2l-.32-.13c.02-.06,.02-.11,.04-.17l-.81-.32s0-.02,.02-.02c.21,.09,.43,.13,.64,.24,1.88,.96,3.51,2.12,4.86,3.56,0,.03-.01,.07-.02,.11-.03-.03-.06-.06-.08-.1l-.02,.02s.05,.05,.1,.08v.02c-1.24,4.8-3.04,9.1-8.07,16.75-1.95,2.98-5.44,3.11-7.58,5.83-.06-.02-.11-.06-.15-.09,2.16-2.66,5.61-2.81,7.58-5.74,5.1-7.71,6.88-11.99,8.12-16.84Zm-1.96-15.71h.01c.15,.02,.3,.02,.45-.09-2.89-5.68-7.07-9.98-12.02-13.15,5.05,3.17,9.32,7.52,12.29,13.26-.26,.15-.49,.11-.73-.02Z" style="fill:#898989;"></path><path d="M438.65,74.68c0,3.86-3.21,7.07-7.28,7.07s-7.28-3.21-7.28-7.07h-.21v-23.13h-12.85v25.7c0,8.57,9,15.64,20.13,15.64s20.13-7.07,20.13-15.64v-25.7h-12.64v23.13Z" style="fill:#898989;"></path><rect x="480.21" y="23.92" width="12.85" height="67.47" style="fill:#898989;"></rect><rect x="458.58" y="23.92" width="12.85" height="67.47" style="fill:#898989;"></rect><path d="M245.45,46.19c0-10.49-8.57-19.06-19.28-19.06h-23.56V91.39h13.71V38.06h7.07c4.92,0,8.78,3.85,8.78,8.78,0,4.49-4.07,8.35-9.21,8.35h-3.21v15.42l13.71,20.99h16.06l-18.85-26.99c8.57-1.93,14.78-9.64,14.78-18.42Z" style="fill:#898989;"></path><path d="M269.43,49.63c-11.78,0-21.2,9.64-21.2,21.42s9.42,21.42,21.2,21.42c9,0,15.85-4.07,19.49-10.28l-10.5-4.93c-1.5,3-4.71,4.93-8.14,4.93-4.93,0-8.78-3.64-8.78-7.92v-.43c.21,.21,28.49,.21,28.49,.21h.01c0-.87,.21-1.72,.21-2.79,.21-13.92-9-21.63-20.78-21.63Zm8.15,17.14h-15.85c-.21-4.29,3-8.15,7.5-8.36,4.28-.21,8.14,3,8.35,7.5v.86Z" style="fill:#898989;"></path><path d="M395.6,56.47h0c3.63-3.21,5.56-7.7,5.56-12.41,0-4.28-1.71-8.35-4.71-11.57-3-3.43-8.57-5.14-15.85-5.14h-21.85V91.6h28.49c10.92-.21,19.71-8.35,19.71-18.42-.21-7.5-2.78-12.64-11.35-16.71Zm-2.8,15.64c-.21,4.5-3,7.92-7.92,8.14h-12.21V38.06h8.57c3.86,0,6.85,3.43,6.85,7.28s-3,6.85-6.85,6.85h-4.5v11.57h8.14c4.5,0,7.92,3.64,7.92,8.14v.21Z" style="fill:#898989;"></path><path d="M328.34,55.83c-3.43-3.43-8.14-5.35-12.85-5.35-10.5,0-19.28,9.42-19.28,20.99s8.57,20.99,19.28,20.99c4.93,0,9.64-2.14,13.07-5.57v4.5h12.63V23.92h-12.85v31.91Zm-9.21,25.71c-5.14,0-9.42-4.71-9.42-10.28s4.28-10.28,9.42-10.28,9.42,4.71,9.42,10.28-4.28,10.28-9.42,10.28Z" style="fill:#898989;"></path></g></g></g></svg>