<svg xmlns="http://www.w3.org/2000/svg" viewBox="0 0 506.81 175.36"><g id="a"></g><g id="b"><g id="c"><g><path d="M130.88,163.71c-.23-18.45-10-31.21-23.96-41.5-4.4-3.24-9.08-6.11-13.67-9.1-16.89-11.02-18.87-28.54-14.19-43.8,.67-2.2,1.64-4.3,2.59-6.74-4.93-1.94-7.89-5.53-8.11-11.09-.15-3.77,.96-7.01,4.19-10.19-.95,4.81-.28,8.72,2.62,11.97,2.88,3.21,6.62,4.42,11.33,4.08-.48,1.03-.81,1.75-1.15,2.47-7.8,16.66-4.23,32.79,9.99,44.45,2.63,2.16,5.54,4.02,8.43,5.83,3.17,1.98,6.29,3.46,10.48,2.89,5.58-.76,9.99,2.29,13.47,6.56,.54,.66,1.02,1.36,1.52,2.04,5.3-2.65,9.01-11.99,7.62-19.75-4.26,4.05-8.97,5.72-14.49,3.31-3.12-1.36-5.42-3.55-6.74-6.69-2.69-6.38,.17-13.72,6.45-16.67,7.07-3.32,13.59-.35,18.04,8.42,3.87-2.56,6.49-5.94,8-10.31,.37-1.06,1.35-1.98,2.22-2.79,1.18-1.1,2.66-1.89,3.74-3.06,2-2.15,1.76-3.12-.87-4.36-8.5-4.02-17.02-8.02-25.53-12.03-.69-.33-1.37-.69-2.37-1.19,.53-.84,.93-1.65,1.5-2.31,1.7-1.95,1.16-3.54-.63-5.03-4.57-3.81-10.06-5.75-15.58-7.59-.48-.16-.98-.27-1.91-.53,4.27-10.68,8.5-21.25,12.73-31.83,22.46,10.12,48.28,37.67,48.79,77.39,.47,36.61-21.67,65.27-44.53,77.17Zm2.52-70.3c2.82,1.29,5.28,2.25,7.57,3.51,2.31,1.28,4.32,3.18,6.71,4.22,2.67,1.17,5.62,2.3,8.47,2.37,5.31,.13,9.85-4.67,9.44-9.33-.33,.05-.67,.02-.96,.14-6.58,2.79-13.11,2.55-19.7-.06-3.55-1.4-7.28-1.68-11.53-.86Z" style="fill:#898989;"></path><path d="M209.39,52.83c.64-.07,1.15-.18,1.65-.18,16.09,.06,32.18-.05,48.26,.32,4.25,.1,8.77,1.06,12.65,2.78,11.13,4.94,13.28,18.36,4.34,26.66-2.88,2.67-6.66,4.38-10.07,6.47-.77,.47-1.68,.73-3.08,1.32,5.51,5.84,10.63,11.56,16.08,16.94,5.45,5.38,11.24,10.41,16.93,15.63-1.64,.22-3.47,.57-5.32,.69-4.1,.26-8.2,.41-12.3,.58-8.82,.36-16.44-2.45-22.14-9.26-6.24-7.47-12.12-15.24-18.13-22.84,3.69-2.23,7.18-3.82,10.01-6.2,2.54-2.14,4.96-4.85,6.35-7.82,2.92-6.24-.44-12.69-7.32-14.22-4.03-.9-8.27-.82-12.79-1.22v60.03h-25.14V52.83Z" style="fill:#898989;"></path><path d="M48.13,9.44c4.26,10.6,8.45,21.05,12.74,31.73-14.9,4.36-27.35,11.97-36.54,24.37,4.01,.33,7.89,.64,11.76,.96l.12,.94c-1.59,1.46-3.2,2.89-4.76,4.38-6.05,5.78-11.24,12.23-14.71,19.89-.81,1.79-1.32,3.94-1.23,5.9,1.28,28.46,12.34,51.91,35.66,68.99,.34,.25,.68,.5,1.13,.82-7.38-.87-25.87-15.33-34.74-27.12C8.44,128.15,2.72,114.52,.78,99.46-4.92,55.1,21.52,22.12,48.13,9.44Z" style="fill:#898989;"></path><path d="M423.24,108.97c6.37,1.44,12.44,3.22,18.63,4.08,4.43,.62,9.03,.08,13.54-.12,1.41-.06,2.86-.59,4.18-1.15,2.44-1.04,4.54-2.51,4.76-5.5,.23-3.07-1.45-5.19-4.01-6.27-4.15-1.76-8.51-3.02-12.73-4.64-5.4-2.07-11.15-3.63-16.03-6.59-9.05-5.49-11.62-16.16-6.78-25.09,3.06-5.65,8.26-8.63,14.17-10.25,13.81-3.81,27.6-2.86,41.29,.83,.24,.06,.45,.23,.75,.38v11.84c-1.03-.41-1.87-.75-2.7-1.08-7-2.75-14.12-4.78-21.74-3.44-1.73,.31-3.5,.91-5.03,1.78-3.8,2.14-4.1,6.53-.51,9,2.07,1.43,4.5,2.46,6.9,3.28,4.94,1.67,9.99,3,14.94,4.64,2.26,.75,4.43,1.81,6.58,2.85,13.75,6.65,13.68,25.65,2.02,33.59-5.61,3.82-11.89,5.6-18.47,6.42-12.54,1.56-24.91,.32-37.18-2.57-2.08-.49-2.76-1.38-2.62-3.48,.19-2.98,.05-5.98,.05-8.49Z" style="fill:#898989;"></path><path d="M413.83,67.52c-6.53-3.22-12.85-4.92-19.49-5.38-8.15-.56-15.87,.64-22.7,5.52-12.31,8.8-14.08,32.73,4.83,41.07,10.31,4.55,20.82,3.95,31.41,1.32,1.88-.47,3.72-1.1,5.91-1.76,0,3.8,.11,7.36-.1,10.91-.04,.6-1.35,1.37-2.21,1.64-9.94,3.07-20.12,3.86-30.45,3.05-9.02-.71-17.77-2.51-25.94-6.57-22.08-10.98-22.26-32.62-14.91-45.4,4.23-7.34,10.63-12.29,18.36-15.36,17.31-6.87,34.96-7.22,52.82-2.17,1.88,.53,2.61,1.42,2.5,3.41-.17,3.04-.05,6.1-.05,9.72Z" style="fill:#898989;"></path><path d="M72.43,68.64c-13.46,17.43-13.25,31.17-7.75,40.2,1.33-1.94,2.58-3.78,4-5.85,3.53,9.03,10.16,15.19,16.96,21.22,8.54,7.58,15.85,16.08,19.54,27.16,2.14,6.41,2.96,12.99,2.51,19.71-.05,.77-.64,2.05-1.18,2.17-7.87,1.74-15.83,2.48-24.08,1.96,.32-2.21,.77-4.2,.88-6.21,.71-12.86-2.57-24.55-10.53-34.8-3.97-5.11-8.01-10.17-12.24-15.53-1,3.89-1.98,7.72-3.04,11.84-2.71-2.28-4.31-5.14-5.56-8.2-3.48-8.57-2.91-17.22-.44-25.9,3.03-10.6,8.48-19.55,17.72-25.91,.56-.39,1.14-.76,1.72-1.12,.27-.17,.56-.29,1.47-.75Z" style="fill:#898989;"></path><path d="M327.68,122.46h-24.9V52.89h24.9V122.46Z" style="fill:#898989;"></path><path d="M57.14,5.3C65.2,2.25,73.41,.54,81.85,.02c1.82,6.61-2.57,13.67-9.28,15.15-7.12,1.58-14.02-2.71-15.44-9.87Z" style="fill:#898989;"></path><path d="M117.65,5.05c-1.45,7.07-7.84,11.33-14.82,10.12-6.84-1.19-11.13-7.57-9.94-15.17,8.46,.38,16.64,2.1,24.76,5.05Z" style="fill:#898989;"></path><path d="M123.92,54.38c-1.84,4.44-5.34,6.16-9.03,4.92-3.94-1.33-5.7-5.09-4.23-10.09,4.4,1.72,8.76,3.42,13.26,5.18Z" style="fill:#898989;"></path><path d="M489.41,60.33c.05-5.08,3.75-8.7,8.83-8.65,5.01,.06,8.6,3.8,8.57,8.93-.03,5.03-3.82,8.86-8.73,8.82-5.15-.04-8.71-3.79-8.66-9.11Zm15.67,.11c-.06-4.37-3.08-7.5-7.15-7.4-3.91,.09-6.87,3.31-6.88,7.46,0,4.24,3.11,7.59,7.07,7.59,3.95,0,7.02-3.37,6.96-7.65Z" style="fill:#898989;"></path><path d="M495.16,55.78c2.24,.54,5.01-1.11,6.51,1.6,.96,1.74,.03,3.27-2.04,4.03,.79,1.38,1.5,2.6,2.2,3.83l-.3,.42c-.49-.27-1.1-.45-1.44-.85-.55-.64-.83-1.5-1.38-2.14-.45-.52-1.12-.86-1.7-1.28-.27,.63-.62,1.23-.79,1.89-.18,.73-.2,1.5-.29,2.25l-.78-.03v-9.72Zm3.27,.45c-1,.98-1.86,1.49-2.11,2.2-.11,.34,1,1.57,1.47,1.53,.92-.09,1.78-.79,2.66-1.24-.55-.68-1.11-1.36-2.02-2.48Z" style="fill:#898989;"></path></g></g></g></svg>