<svg xmlns="http://www.w3.org/2000/svg" viewBox="0 0 455.66 173.49"><g id="a"></g><g id="b"><g id="c"><g id="d"><g><path d="M63.93,57.89c1.18,.03,1.77,.31,1.47,1.79-2.11,10.6-3.85,21.29-6.25,31.83-1.72,7.54-7.27,12.26-13.89,15.72-1.7,.89-3.44,1.44-3.36,3.91,.02,.7-.69,1.7-1.35,2.09-1.7,.99-1.34,2.19-.79,3.6,3.14,8.03,8.95,13.66,16.24,17.9,12.83,7.46,26.77,9.58,41.36,8.32,11.55-1,22.27-4.44,31.64-11.41,7.87-5.86,13.08-13.36,13.21-23.57,.15-11.94-8.11-23.27-19.57-26.97-6.79-2.2-13.84-3.53-20.56-5.98-15.93-5.79-25.85-20.63-25.17-37.5,.62-15.16,12.31-28.98,27.86-32.85,6.87-1.71,13.75-1.67,20.56,.36,1.31,.39,2.17,.33,3.08-.88,1.72-2.3,4.56-2.93,6.96-4.23h6.02c2.83,1.28,5.73,2.37,7.8,4.95,3.83,4.76,4.38,10.63,1.3,16.16-2.56,4.59-8.45,7.46-13.83,6.72-5.88-.81-10.94-5.03-11.78-10.81-.4-2.72-1.7-3.14-3.72-3.58-13.56-2.92-27.08,3.23-32.57,14.85-6.62,14-.25,30.74,14.39,37.31,6.01,2.7,12.53,3.92,18.85,5.68,13.82,3.86,23.62,12.18,27.84,25.98,4.56,14.92,.04,27.63-11.19,38.02-10.66,9.87-23.69,14.69-37.9,16.54-15.09,1.96-29.72,.14-43.56-6.38-11.24-5.29-20.44-12.82-25.43-24.62-.25-.59-.53-1.18-.67-1.8-.51-2.26-1.23-4.29-3.61-5.36-.98-.44-1.81-1.54-1.81-2.54,.01-1.97-1.27-2.38-2.64-3.06-5.27-2.6-9.96-5.89-13.04-11.09-2.28-3.85-2.85-8.2-3.72-12.44-1.1-5.39-1.82-10.85-2.85-16.24-.44-2.31-.81-4.66-1.34-6.95-.43-1.88-.05-2.79,1.92-2.87,1.72-.2,3.44-.4,5.16-.6,1.53-.28,2.29,.15,2.32,1.9,.13,6.94,.99,13.81,2.4,20.61,.51,2.44,.95,4.9,1.45,7.35,1.43,6.99,6.52,10.72,12.29,13.95,4.08,2.28,7.95,2.16,11.95-.15,2.54-1.47,5.01-3.02,7.21-4.97,3.65-3.25,4.9-7.57,5.68-12.15,.99-5.76,2.08-11.51,3.01-17.29,.35-2.22-.21-4.48,.13-6.75,.47-3.1,.37-3.11,3.3-3.2,1.69,.5,3.43,.58,5.16,.71ZM138.53,24.06c5.5-.03,10.06-4.59,10.11-10.11,.05-5.48-4.76-10.18-10.34-10.12-5.51,.06-10.03,4.72-9.94,10.24,.09,5.59,4.59,10.01,10.17,9.98Z" style="fill:#898989;"></path><path d="M9.02,57.88c-1.72,.2-3.44,.4-5.16,.6-1.16-6.87-2.32-13.74-3.49-20.61-.06-.33-.24-.64-.37-.96v-8.58c.91-1.55,.9-3.37,1.47-5.03,1.57-4.59,4.19-8.15,8.87-10.01,2.1-.84,4.08-1.99,6.11-3,.68,2.01,1.36,4.02,2.04,6.03-2.37,1.14-4.72,2.34-7.13,3.4-2.22,.98-3.67,2.59-4.59,4.8-1.91,4.57-1.96,9.27-1.14,14.05,1.11,6.44,2.26,12.88,3.39,19.31Z" style="fill:#898989;"></path><path d="M250.8,105.13c0-10.8,0-21.59,0-32.39,0-5.07,1.4-6.46,6.54-6.44,6.87,.02,13.77-.31,20.61,.22,15.12,1.16,25.27,9.58,29.4,24.27,3.51,12.45,3,24.79-2.91,36.49-5.3,10.51-14.15,16.12-25.86,16.74-7.64,.4-15.32,.19-22.98,.13-3.18-.03-4.73-1.8-4.78-5.34-.08-5.43-.03-10.87-.03-16.3,0-5.79,0-11.58,0-17.37Zm9.62,.24c0,9.58,.04,19.16-.04,28.75-.01,1.53,.42,1.92,1.91,1.88,3.72-.11,7.45,.02,11.17-.05,9.03-.15,16.65-3.16,21.07-11.5,5.85-11.04,6.08-22.65,2.01-34.25-3.16-9.01-9.72-14.2-19.38-15.24-4.93-.53-9.88-.09-14.81-.32-1.63-.07-2,.4-1.98,1.99,.08,9.58,.04,19.16,.04,28.75Z" style="fill:#898989;"></path><path d="M351.87,144.79c-12.53-.26-22.46-6.5-28.05-18.55-7.59-16.38-7.19-32.76,3.53-47.72,12.74-17.77,39.58-17.16,52.16,.73,10.86,15.45,10.32,39.02-1.39,53.8-6.42,8.1-15.05,11.76-26.25,11.75Zm25.1-39.09c-.08-6.59-.95-12.93-3.85-18.82-3.97-8.05-10.29-12.6-19.46-12.78-8.73-.17-15.61,3.39-19.58,11.12-6.89,13.42-6.67,27.15,.24,40.49,3.83,7.4,10.53,10.83,18.91,10.74,8.23-.09,14.61-3.55,18.8-10.7,3.63-6.21,4.87-13.05,4.95-20.04Z" style="fill:#898989;"></path><path d="M156.39,105.35c0-11.08,0-22.17,0-33.25,0-4.15,1.52-5.76,5.66-5.79,8.81-.06,17.62-.05,26.43,0,3.79,.02,5.41,1.49,5.37,4.6-.03,2.39-1.28,3.96-3.68,4.22-2.06,.22-4.14,.18-6.22,.19-5.44,.02-10.89,.04-16.33-.02-1.29-.01-1.72,.31-1.71,1.67,.07,7.37,.07,14.73,0,22.1-.02,1.5,.54,1.74,1.86,1.73,6.37-.06,12.75-.06,19.12,0,3.15,.02,4.66,1.35,4.84,3.98,.21,3.19-1.38,4.86-4.78,4.87-6.3,.03-12.61,.07-18.91-.03-1.67-.03-2.16,.41-2.14,2.12,.1,7.15,.09,14.3,0,21.45-.02,1.57,.32,2.05,1.98,2.02,6.95-.1,13.89-.06,20.84-.03,2.99,.01,4.59,1.11,5.05,3.33,.64,3.15-.98,5.57-4.21,5.61-9.52,.12-19.05,.1-28.58,0-3.03-.03-4.57-1.94-4.58-5.31-.03-11.16-.01-22.31-.01-33.47Z" style="fill:#898989;"></path><path d="M431.06,144.82c-13.32-.14-23.37-5.98-29.15-17.94-7.41-15.32-7.38-30.81,1.32-45.69,7.59-12.98,21.47-17.21,34.73-14.95,4.43,.76,8.52,2.36,12.13,5.09,1.51,1.14,2.82,2.46,3.56,4.21,.8,1.89,.5,3.68-1.06,5.08-1.55,1.38-3.27,1.23-4.96,.23-.67-.4-1.34-.85-1.9-1.39-9.03-8.68-26.73-7.43-33.84,6.31-7.03,13.59-6.84,27.46,1.1,40.63,5.73,9.51,16.95,12.53,27.51,8.31,2.4-.96,4.64-2.19,6.87-3.47,.8-.46,1.63-.89,2.48-1.25,1.8-.76,3.51-.73,4.89,.85,1.22,1.4,1.25,3.97,.08,5.6-1.82,2.54-4.46,3.97-7.23,5.18-4.69,2.04-10.71,3.17-16.53,3.18Z" style="fill:#898989;"></path><path d="M215.41,102.12c0,10.36,.04,20.73-.04,31.09-.01,1.63,.42,2.02,2.02,1.99,6.08-.1,12.17-.06,18.25-.03,3.05,.02,4.68,1.24,5.01,3.6,.44,3.17-1.09,5.3-4.29,5.35-8.66,.11-17.32,.09-25.98,0-2.71-.03-4.27-1.79-4.51-4.52-.04-.43-.03-.86-.03-1.29,0-22.37,0-44.75,0-67.12,0-3.43,1.52-5.32,4.37-5.53,3.06-.22,5.1,1.62,5.15,4.93,.09,5.72,.04,11.44,.04,17.15,0,4.79,0,9.58,0,14.37Z" style="fill:#898989;"></path><path d="M302.12,163.04c0-2.5,0-5.01,0-7.51,0-1.29,.41-2.26,1.88-2.37,1.58-.13,2.16,.83,2.33,2.19,.04,.35,.02,.71,.02,1.07q.06,4.62,4.79,4.62,3.85,0,3.85-3.83c0-.79-.03-1.58,.05-2.36,.11-1.08,.78-1.63,1.86-1.69,1.06-.06,1.83,.33,2.1,1.41,.12,.48,.2,.98,.2,1.48,.01,4.72,.01,9.44,0,14.16,0,1.02-.1,2.03-1.07,2.65-1.34,.85-2.96,.03-3.1-1.65-.13-1.49-.1-3-.03-4.5,.06-1.19-.34-1.68-1.58-1.63-1.86,.08-3.73,.06-5.59,0-1.11-.03-1.55,.37-1.5,1.49,.06,1.43,.06,2.86-.02,4.29-.08,1.39-.79,2.37-2.28,2.3-1.39-.07-1.92-1.07-1.92-2.38,0-2.57,0-5.15,0-7.72Z" style="fill:#898989;"></path><path d="M227.33,162.92c0-2.43,.01-4.86,0-7.29,0-1.39,.4-2.41,2-2.47,1.61-.07,2.13,.97,2.21,2.31,.08,1.35,.07,2.72,.02,4.07-.05,1.1,.35,1.62,1.48,1.5,.28-.03,.57,0,.86,0,1.93-.03,4.27,.6,5.68-.28,1.63-1.01,.39-3.54,.61-5.39,.15-1.21,.5-2.07,1.84-2.21,1.44-.15,2.26,.62,2.28,1.94,.07,5.36,.08,10.72,.03,16.07-.01,1.22-.88,2.01-2.13,1.97-1.39-.04-1.99-.97-1.99-2.3,0-1.5-.04-3,0-4.5,.02-.91-.37-1.31-1.27-1.27-.43,.02-.86,0-1.29,0-1.86,.03-4.12-.58-5.47,.27-1.56,.98-.39,3.41-.6,5.2-.16,1.43-.62,2.62-2.24,2.59-1.67-.04-2.06-1.27-2-2.72,0-.07,0-.14,0-.21,0-2.43,0-4.86,0-7.29Z" style="fill:#898989;"></path><path d="M361.87,164.93c0,2.35,0,4.05,0,5.75,0,1.3-.47,2.23-1.94,2.32-1.58,.1-2.26-.87-2.27-2.23-.05-5-.05-10.01,.02-15.01,.02-1.3,.64-2.46,2.16-2.47,2.35-.02,4.72-.29,7.06,.24,3,.68,4.55,2.45,4.77,5.49,.18,2.56-1.09,4.33-3.91,5.44-.32,.13-.62,.29-1.07,.5,1.46,1.54,2.85,2.98,4.21,4.43,.94,1,1.36,2.11,.16,3.16-1.25,1.09-2.37,.6-3.31-.55-1.81-2.2-3.63-4.39-5.86-7.09Zm0-5.74q0,2.87,1.84,2.87c2.26,0,3.57-.89,3.64-2.47,.07-1.61-1.2-2.36-3.51-2.57-2.17-.2-2.1,1.03-1.97,2.17Z" style="fill:#898989;"></path><path d="M338.63,170.7c.09-.29,.24-.83,.43-1.36,1.64-4.48,3.3-8.95,4.95-13.43,.57-1.56,1.36-2.94,3.24-2.92,1.87,.03,2.62,1.39,3.18,2.98,1.63,4.63,3.32,9.24,5.02,13.85,.49,1.34,.69,2.61-1.01,3.12-1.55,.46-2.55-.4-2.77-1.87-.26-1.75-1.19-2.23-2.79-2.01-.63,.09-1.29,.07-1.93,0-2.19-.22-4.07-.14-4.51,2.7-.18,1.16-1.28,1.42-2.39,1.23-1.13-.2-1.51-.96-1.43-2.29Zm8.86-12.65l-.51-.03c-.76,2.33-1.52,4.65-2.37,7.24,1.43,0,2.64-.07,3.83,.02,1.23,.09,1.26-.47,.95-1.38-.65-1.94-1.27-3.9-1.9-5.84Z" style="fill:#898989;"></path><path d="M276.85,170.94c0,1.19-.34,1.85-1.26,2.03-1.08,.21-1.97-.05-2.53-1.1-.48-.9-.19-2.52-1.39-2.66-2.25-.26-4.57-.19-6.84,0-.78,.07-.72,1.28-.98,1.99-.5,1.35-1.24,2.34-2.84,1.78-1.63-.57-1.53-1.81-1.03-3.16,1.74-4.67,3.46-9.35,5.19-14.02,.55-1.49,1.39-2.79,3.13-2.79,1.83,0,2.7,1.33,3.26,2.92,1.57,4.43,3.17,8.85,4.75,13.27,.24,.66,.41,1.35,.52,1.75Zm-8.5-13.61c-.59,1.75-1.05,3.09-1.5,4.43-1.23,3.72-1.03,3.95,2.85,3.52,.82-.09,1.19-.28,.89-1.16-.72-2.12-1.4-4.24-2.24-6.79Z" style="fill:#898989;"></path><path d="M321.45,162.95c-.02-6.75,5.46-11.2,12-9.73,.62,.14,1.23,.39,1.79,.68,1.17,.6,2.08,1.51,1.48,2.9-.63,1.49-1.83,1.16-3.09,.7-3.54-1.31-6.38-.08-7.46,3.11-1.27,3.77,.27,7.57,3.41,8.55,1.49,.47,2.82-.01,4.15-.52,1.31-.5,2.64-.82,3.19,.86,.55,1.69-.52,2.71-1.99,3.27-6.65,2.51-13.26-1.9-13.48-8.97,0-.29,0-.57,0-.86Z" style="fill:#898989;"></path><path d="M253.01,172.99c-6.04,.08-5.56,.09-5.55-5.64,0-3.71-.02-7.43,.01-11.14,.02-2.35,.59-2.93,2.89-2.96,1.93-.03,3.86-.01,5.79,0,1.24,.01,2.11,.54,2.13,1.87,.02,1.46-.87,1.99-2.24,1.94-.71-.03-1.43,0-2.15,0-2.55,0-2.59,.1-2.44,2.65,.06,1.04,.47,1.36,1.44,1.34,1.14-.02,2.29,0,3.42,.1,1.07,.1,1.72,.8,1.74,1.85,.01,1.03-.55,1.78-1.66,1.88-1.13,.11-2.28,.25-3.41,.18-1.76-.1-1.49,1.07-1.51,2.13-.01,1.02-.18,2.08,1.44,1.95,1.07-.09,2.14,0,3.22-.02,1.41-.02,2.47,.52,2.46,2.03-.01,1.44-1.07,1.87-2.38,1.84-1.07-.02-2.15,0-3.22,0Z" style="fill:#898989;"></path><path d="M373.82,163.09c0-2.36,.04-4.71-.01-7.07-.04-1.87,.78-2.8,2.67-2.78,2,.02,4,0,6.01,.01,1.35,.01,2.23,.61,2.16,2.06-.07,1.34-.95,1.8-2.2,1.76-.79-.03-1.59,.1-2.36-.03-2.05-.34-2.38,.67-2.28,2.42,.07,1.2,.42,1.68,1.63,1.6,1-.07,2-.04,3,.04,1.12,.09,1.94,.68,1.98,1.86,.04,1.16-.65,1.87-1.83,1.97-1.14,.1-2.28,.17-3.42,.15-1.87-.03-1.22,1.35-1.32,2.29-.1,.99-.06,1.88,1.38,1.77,1.21-.09,2.43-.04,3.65,0,1.26,.04,2.1,.71,2.07,1.97-.03,1.24-.83,1.89-2.13,1.88-2.22-.02-4.43,0-6.65,0-1.58,0-2.36-.8-2.35-2.39,.02-2.5,0-5,0-7.5Z" style="fill:#898989;"></path><path d="M291.47,164.39c0-1.93-.06-3.86,.02-5.78,.05-1.24-.41-1.7-1.6-1.55-.35,.04-.71,0-1.07,0-1.26,.04-2.11-.42-2.14-1.8-.03-1.37,.94-1.92,2.08-1.98,2-.11,4-.04,6-.05,1.29,0,2.57-.03,3.86,.02,1.3,.05,1.98,.86,1.96,2.08-.03,1.18-.76,1.68-1.99,1.74-2.89,.12-2.88,.17-2.88,2.99,0,3.43-.02,6.85,0,10.28,.02,1.56-.44,2.79-2.2,2.76-1.67-.03-2.03-1.34-2.04-2.73-.02-2,0-4,0-6Z" style="fill:#898989;"></path><path d="M278.9,162.82c0-2.36,.01-4.71,0-7.07-.01-1.46,.36-2.58,2.1-2.58,1.77,0,2.11,1.25,2.12,2.62,.04,3.78,.1,7.57-.02,11.35-.05,1.63,.47,2.19,2.06,2.01,.99-.11,2.01-.08,3,.03,1.03,.11,1.79,.8,1.79,1.82,0,1.09-.64,1.91-1.87,1.93-2.43,.03-4.86,.07-7.29-.01-1.44-.05-1.88-1.09-1.88-2.38,0-2.57,0-5.14,0-7.71Z" style="fill:#898989;"></path><path d="M63.93,57.89c-1.74-.14-3.48-.21-5.16-.71,.98-6.04,1.93-12.08,2.95-18.11,.81-4.79,.74-9.48-.98-14.09-.89-2.4-2.41-4.14-4.78-5.18-2.48-1.09-4.9-2.3-7.35-3.45,1.28-1.72,1.12-3.95,2.11-5.77,2.86,1.29,5.81,2.44,8.57,3.92,3.94,2.11,5.64,5.91,6.88,9.95,2.09,6.8,1.03,13.56-.15,20.35-.76,4.36-1.39,8.73-2.08,13.1Z" style="fill:#898989;"></path><path d="M18.49,16.32c-.68-2.01-1.36-4.02-2.04-6.03-.49-2.87,1.66-4.19,3.4-5.73,2.98-2.64,3.35-2.53,4.53,1.25,.72,2.31,1.47,4.61,2.16,6.93,.8,2.68,.3,3.54-2.44,3.97-1.88,.3-3.87,1.49-5.62-.38Z" style="fill:#898989;"></path><path d="M50.71,10.57c-.99,1.82-.83,4.06-2.11,5.77-2.46,1.18-4.85,.29-7.17-.4-.96-.29-1.04-1.43-.79-2.4,.81-3.16,1.58-6.33,2.47-9.47,.49-1.72,1.41-1.96,2.83-.87,.73,.56,1.38,1.25,2.15,1.75,2.05,1.35,2.94,3.19,2.61,5.62Z" style="fill:#898989;"></path><path d="M138.53,24.06c-5.58,.03-10.08-4.39-10.17-9.98-.09-5.53,4.43-10.18,9.94-10.24,5.58-.07,10.39,4.64,10.34,10.12-.05,5.52-4.61,10.08-10.11,10.11Zm-6.22-9.98c.04,3.36,2.8,6.07,6.18,6.08,3.29,0,6.22-2.87,6.22-6.1,0-3.42-2.88-6.32-6.25-6.29-3.48,.03-6.19,2.8-6.15,6.31Z" style="fill:#898989;"></path><path d="M132.31,14.07c-.04-3.51,2.66-6.29,6.15-6.31,3.37-.03,6.25,2.87,6.25,6.29,0,3.23-2.93,6.11-6.22,6.1-3.38,0-6.14-2.72-6.18-6.08Z" style="fill:#898989;"></path></g></g></g></g></svg>