<svg xmlns="http://www.w3.org/2000/svg" viewBox="0 0 367.22 314.2"><g id="a"></g><g id="b"><g id="c"><g id="d"><g id="e"><path d="M54.26,240.77l-5.91-11.96H19.93l-6.67,11.96H2.71l27.4-45.85h10.46l23.85,45.85h-10.16Zm-29.99-19.69h20.25l-9.47-19.1-10.78,19.1Z" style="fill:#898989;"></path><polygon points="105.76 233.04 105.76 240.77 69.85 240.77 69.85 194.92 78.55 194.92 78.55 233.04 105.76 233.04" style="fill:#898989;"></polygon><polygon points="144.41 233.04 144.41 240.77 108.5 240.77 108.5 194.92 117.2 194.92 117.2 233.04 144.41 233.04" style="fill:#898989;"></polygon><path d="M203.58,206.93c-3.47-2.73-12.68-5.13-20.54-5.13-7.14,0-13.26,2.16-13.26,7.09,0,8.32,37.89-.64,37.89,16.86,0,8.58-8.45,16.5-24.02,16.5s-23.13-5.3-25.92-8.3l5.78-6.42c5.62,4.58,12.7,6.99,19.95,6.8,6.61,0,14.99-1.69,14.99-7.28,0-10.89-38.37,.66-38.37-18.17,0-9.23,10.52-15.01,24.02-15.01,8.5-.2,16.88,2.02,24.16,6.42,0,0-2.92,4.3-4.66,6.63" style="fill:#898989;"></path><polygon points="256.06 202.9 237.15 202.9 237.15 240.77 228.59 240.77 228.59 202.9 210.19 202.9 210.19 195.18 256.06 195.18 256.06 202.9" style="fill:#898989;"></polygon><path d="M299.5,240.77l-5.84-11.96h-28.42l-6.74,11.96h-10.46l27.42-45.85h10.46l23.76,45.85h-10.17Zm-30.01-19.69h20.27l-9.47-19.1-10.8,19.1Z" style="fill:#898989;"></path><path d="M315.08,240.77v-45.66h29.63c10.91,0,16.03,5.97,16.03,13.7,0,6.8-3.79,12.28-11.94,13.64l14.1,18.25h-10.91l-13.72-17.92h-14.47v17.92l-8.72,.08Zm8.72-38.33v13.07h20.65c5.13,0,8.32-2.41,8.32-6.63,0-3.64-3.18-6.44-8.32-6.44h-20.65Z" style="fill:#898989;"></path><polygon points="58.43 264.05 34.35 264.05 34.35 312.29 23.42 312.29 23.42 264.05 0 264.05 0 254.2 58.43 254.2 58.43 264.05" style="fill:#898989;"></polygon><polygon points="120.8 302.44 120.8 312.29 64.63 312.29 64.63 253.86 118.39 253.86 118.39 263.71 75.54 263.71 75.54 277.62 115.59 277.62 115.59 287.22 75.54 287.22 75.54 302.44 120.8 302.44" style="fill:#898989;"></polygon><polygon points="193.88 312.29 179.97 312.29 142.06 267.6 142.06 312.29 130.8 312.29 130.8 254.2 145.05 254.2 182.94 298.65 182.94 254.2 193.88 254.2 193.88 312.29" style="fill:#898989;"></polygon><polygon points="269.45 312.29 255.55 312.29 217.65 267.6 217.65 312.29 206.4 312.29 206.4 254.2 220.63 254.2 258.52 298.65 258.52 254.2 269.45 254.2 269.45 312.29" style="fill:#898989;"></polygon><rect x="283.06" y="253.86" width="10.91" height="58.43" style="fill:#898989;"></rect><path d="M361.32,269.17c-4.38-3.47-16.14-6.52-26.15-6.52-9.11,0-17.05,2.73-17.05,9.02,0,10.59,48.33-.83,48.33,21.5,0,10.93-10.76,21.03-30.62,21.03s-29.46-6.78-33-10.61l7.35-8.18c7.15,5.85,16.17,8.94,25.41,8.7,8.45,0,19.12-2.16,19.12-9.28,0-13.89-48.9,.83-48.9-23.15,0-11.77,13.39-19.12,30.62-19.12,14.65,0,25.58,4.62,30.79,8.18,0,0-3.79,5.46-5.97,8.43" style="fill:#898989;"></path><path d="M230.92,174.95c-.76,0-1.51-.1-2.24-.3-5.68-1.61-5.99-7.58-6.12-9.87,0-.17,0-.34,0-.51,0-1.12-.21-2.24-.32-3.39l-.28-3.03c-.19-2.31-.4-4.64-.61-6.99-.17-2.01-.36-4.04-.53-6.06,.01-.16,.01-.33,0-.49-.11-.66-.18-1.32-.21-1.99l-.3-.13c-6.14-2.63-12.68-4.93-18.95-7.16-2.65-.93-5.4-1.89-8.09-2.88l-3.6-1.31-7.79-2.84c-4.48-1.5-7.75-5.37-8.49-10.04-.56-4.32,1.38-8.58,5.02-10.97,6.42-4.55,37.89-26.09,41.34-28.42,.72-.93,1.05-2.11,.93-3.28-.15-5.3-.15-35.54-.15-36.83,0-1.89,.3-8.43,4.02-12.3,1.81-1.93,4.33-3.01,6.97-2.99,2.96,.08,5.79,1.22,7.98,3.22,2.21,2.08,4.17,4.41,5.84,6.95,4.74,6.9,11.58,16.9,14.36,21.01h0c4.51-2.82,73.32-43.99,87.15-52.22l.38-.23C349.26,.67,351.58,.02,353.95,0c2.97-.02,5.83,1.17,7.92,3.28,3.88,4.02,3.79,10.52-.34,16.52-3.45,5.13-56.08,76.79-61.8,84.56l1.27,1.8c1.06,1.52,2.14,3.05,3.18,4.58l9.47,13.49c4.02,5.68,7.58,10.72,10.84,15.5,3.01,4.4,6.02,8.68,8.98,12.73l.89,1.17c1.59,1.88,2.92,3.96,3.96,6.2,1.72,3.5,1.09,7.69-1.57,10.53-2.47,2.55-5.92,3.93-9.47,3.79-1.58-.02-3.16-.21-4.7-.57-1.89-.42-44.47-14.13-62.79-20.03-.35-.08-.7-.13-1.06-.13-.23-.04-.47-.04-.7,0-7.2,7.2-13.15,12.83-18.76,17.7-2.26,2.24-5.25,3.59-8.43,3.79m94.14-11.52c.75,.18,1.52,.27,2.29,.28,.43,0,.87-.04,1.29-.15-.73-1.25-1.55-2.44-2.46-3.56-.4-.49-.76-.97-1.1-1.44-2.99-4.13-6.08-8.49-9.15-12.96s-6.76-9.76-10.74-15.38c-3.58-5.06-6.69-9.47-9.47-13.57-1.04-1.52-2.08-3.03-3.16-4.53l-1.48-2.12c-2.46-3.34-2.46-7.89,0-11.24,1.29-1.76,58.51-79.69,62.01-84.82,.75-1.01,1.19-2.21,1.29-3.47-.17-.04-.36-.04-.53,0-.49,.01-.97,.14-1.4,.38l-.38,.25c-37.89,22.74-83.46,49.96-86.87,52.1-1.98,1.38-4.3,2.17-6.71,2.27-2.62,.05-5.07-1.33-6.38-3.6-1.36-1.99-9.83-14.44-15.42-22.56-1.17-1.89-2.56-3.64-4.13-5.21-.23-.21-.49-.38-.78-.51-.64,1.52-.95,3.16-.91,4.81,0,.32,0,31.37,.13,36.55,.33,4.54-1.55,8.96-5.06,11.86h-.11c-.28,.34-34.88,24-41.45,28.76-.81,.57-.76,.97-.74,1.08,.23,.83,.88,1.48,1.71,1.71,2.61,.93,5.23,1.89,7.84,2.84l3.58,1.31,7.94,2.77c6.48,2.27,13.15,4.62,19.61,7.39,5.12,2.2,6.97,6.29,6.61,9.47v.53c0,.15,.13,.81,.17,1.27,.17,2.01,.36,4.02,.53,6.02,.21,2.35,.42,4.7,.61,7.07,0,.93,.17,1.89,.28,2.82s.19,2.12,.28,3.22c5.32-4.66,11.03-10.04,17.92-16.92,2.14-2.1,5.04-3.23,8.03-3.15,1.42,0,2.83,.21,4.19,.63,23.64,7.58,59.53,19.12,62.07,19.82m-105.15-85.09l-.19,.11h0c.05,0,.1,0,.15,0h0" style="fill:#898989;"></path></g></g></g></g></svg>