<svg xmlns="http://www.w3.org/2000/svg" viewBox="0 0 292.5 304.15"><g id="a"></g><g id="b"><g id="c"><g><path d="M49.65,229.2c0-5.4-.5-10.86,.09-16.2,2.38-21.51-2.92-37.13-21.51-52.51C-7.56,130.87-9.14,85.42,22.45,51.64,57.22,14.45,104.55-.74,152.61,.03c34.24,.55,69.63,13.76,99.41,34.99,52.8,37.61,54.18,95.55,2.78,134.7-7.89,6.01-10.48,12.31-10.29,21.75,.52,25.93,.32,51.88,.15,77.82-.15,22.46-11.44,33.65-33.74,34.31-18.66,.55-36.36,.9-48.27-18.48-5.4-8.79-29.56-5.38-34.66,4.5-8.52,16.5-37.52,16.46-56.53,12-16.26-3.81-21.87-14.85-21.9-36.74,0-5.94,.13-11.89,.16-17.83,.03-5.94,0-11.89,0-17.83h-.08ZM115.47,127.75c6.17-9.93,11.73-20.42,18.83-29.73,4.23-5.55,10.44-17.75,16.44-13.81s-2.56,14.86-6.24,20.82c-13.31,21.59-28.42,42.08-41.47,63.82-28.05,46.72-4.2,96.34,47.61,100.36,28.06,2.18,47.81-15.79,52.56-47.81,3.42-23.03-8.81-37.69-36.84-44.13-2.1-.48-4.26-.71-6.38-1.12-19.54-3.77-32.57,6.95-35.73,29.41-2.37,16.86,6.94,26.79,27.56,26.74,5.06-.01,12.11-5.39,14.71-10.21,4-7.4-.65-11.72-9.13-12.36-2.35-.18-6.23-3.54-6.46-5.68-.16-1.4,1.67-3.73,3.23-4.63,11.12-6.42,26.42,2.84,26.49,15.86,.11,18.71-8.54,29.89-23.73,30.67-23.64,1.22-44.28-11.72-46.07-29.21-1.61-15.79,1.5-30.94,13.39-41.73,19.1-17.32,39.18-33.6,59.4-49.63,22.63-17.94,31.84-46.59,22.2-72.29-10.3-27.48-35.21-43.51-64.49-41.51-27.26,1.86-49.7,21.17-56.15,48.3-6.53,27.45,4.37,52.68,30.29,67.88Zm41.94,31.76c12.12,4.54,23.78,6.62,32.61,12.77,11.5,8,21.33,8.66,32.73,1.63,7.79-4.81,16.5-8.37,23.66-13.95,22.44-17.5,38.5-38.61,31.14-69.35-7.01-29.31-38.67-56.81-67.91-60.18,24.07,50.13,14.6,83.48-32.33,114.5-6.58,4.35-12.75,9.32-19.9,14.59Zm-51.31-19.27c-38.15-30.41-44.81-67.1-24.1-110.16C41.42,41.59,13.19,72.99,13.63,104.53c.43,31.2,30.07,62.79,68.87,72.84,7.58-11.92,15.28-24.04,23.59-37.12Zm-43.25,47.07c0,29.25-.61,58.28,.57,87.24,.21,5.16,7.12,13.25,12.15,14.33,10.29,2.2,21.55,1.55,32.11,0,4.06-.6,8.23-6.38,10.39-10.77,.73-1.49-3.99-6.86-7.21-8.89-23.92-15.08-34.32-36.89-31.75-64.56,1.11-11.96-3.32-16.95-16.26-17.36Zm168.67-1.94c-7.18,2.65-12.8,4.73-18.19,6.72,8.75,39.1-2.48,68.3-36.69,88.15,9.47,15.75,24.33,9.17,36.76,9.69,11.36,.48,18.11-5.99,18.12-18.02,.03-28.04,0-56.08,0-86.54Z" style="fill:#898989;"></path><circle cx="118.82" cy="64.02" r="6.35" style="fill:#898989;"></circle><circle cx="173.69" cy="64.02" r="6.35" style="fill:#898989;"></circle></g></g></g></svg>