<svg xmlns="http://www.w3.org/2000/svg" viewBox="0 0 452.09 256.12"><g id="a"></g><g id="b"><g id="c"><g><path d="M288.22,256.12c-1.14,0-2.29-.05-3.46-.16-7.75-.73-15.43-3.8-21.62-8.66-12.11-9.48-18.6-23.65-23.36-36.26-2.53-6.7-6.6-19.98-5.52-33.68,1.06-13.41,6.88-23.17,16.82-28.22,4.58-2.33,9.2-3.29,13.83-3.32-11.26-7.03-23.93-11.75-37.2-13.41-32.44-4.05-65.94,10.54-86.16,35.9,6.29,3.13,12.24,6.94,17.69,11.42,8.52,7,19.27,18.57,22.15,33.94,2.9,15.49-4.03,31.47-16.5,37.99-7.19,3.76-15.8,4.22-24.25,1.31-10.03-3.46-18.56-11.16-22.82-20.59-3.51-7.77-4.79-16.58-3.8-26.16,.84-8.11,3.37-16.78,7.31-25.08,1.33-2.8,2.79-5.52,4.37-8.17-20.59-6.92-43.75-6.35-63.68,2.49-29.37,13.04-50.12,43.36-51.65,75.46-.14,2.87-2.56,5.09-5.44,4.95-2.87-.14-5.08-2.57-4.95-5.44,1.7-35.93,24.94-69.88,57.81-84.47,23.15-10.27,50.2-10.57,73.89-1.87,22.24-29.46,60.38-46.59,97.3-41.98,22.56,2.82,43.58,13.62,59.77,29.37,1.46,.56,2.91,1.14,4.35,1.71,5.19,2.06,10.09,4,14.93,5.27,26.41,6.95,64.53-10.36,80.06-50.43,5.17-13.33,7.99-28.23,8.64-45.57,.11-2.87,2.52-5.1,5.39-5,2.87,.11,5.11,2.52,5,5.39-.69,18.51-3.74,34.52-9.33,48.94-7.08,18.26-20.44,34.93-36.67,45.73-17.82,11.86-37.61,15.76-55.74,10.99-.97-.25-1.94-.53-2.9-.83,7.92,11.43,13.61,24.37,16.33,38.12,1.81,9.14,4.3,31.74-11.47,44.07-5.23,4.09-11.93,6.26-19.14,6.26Zm-23-99.87c-3.29,0-6.44,.63-9.42,2.15-7.72,3.93-17.72,18.66-6.29,48.97,4.25,11.26,9.95,23.84,20.04,31.74,11.25,8.81,24.58,7.89,31.41,2.55,11.54-9.03,8.79-28.21,7.67-33.87-3.55-17.95-12.74-34.39-25.49-47.36-6.26-2.35-12.29-4.19-17.92-4.19Zm-129.74,20.64c-1.74,2.79-3.33,5.69-4.75,8.68-7.37,15.51-8.62,31-3.43,42.5,3.06,6.77,9.47,12.54,16.74,15.04,5.72,1.97,11.41,1.73,16.04-.69,8.38-4.38,13.15-15.93,11.1-26.86-2.31-12.3-11.35-21.92-18.54-27.82-5.26-4.32-11.04-7.95-17.16-10.86Z" style="fill:#92e2f5;"></path><path d="M397.96,0c12.52,28.9,33.15,64.48,54.13,86.1l-50.34-15.22-48.41,20.5c18.56-23.74,35.26-61.32,44.62-91.39Z" style="fill:#173c56;"></path></g></g></g></svg>