<svg xmlns="http://www.w3.org/2000/svg" viewBox="0 0 435.68 435.69"><g id="a"></g><g id="b"><g id="c"><g><path d="M406.52,326.79c-9.06,15.66-38.22,16.11-50.93,28.82-12.71,12.7-13.16,41.87-28.82,50.92-15.43,8.93-40.86-5.16-58.49-.45-17.04,4.56-31.97,29.62-50.45,29.62s-33.41-25.06-50.44-29.62c-17.63-4.71-43.06,9.39-58.5,.45-15.66-9.05-16.11-38.22-28.81-50.92-7.97-7.97-22.41-11.12-34.31-16.23-7.07-3.03-13.24-6.76-16.62-12.59-8.93-15.43,5.16-40.87,.45-58.5C25.06,251.25,0,236.32,0,217.84s25.06-33.41,29.61-50.45c4.71-17.62-9.39-43.06-.45-58.49,9.06-15.66,38.22-16.11,50.93-28.82,12.7-12.7,13.16-41.87,28.81-50.93,15.44-8.93,40.87,5.17,58.5,.45C184.43,25.06,199.37,0,217.84,0s33.41,25.06,50.45,29.61c17.63,4.71,43.06-9.38,58.5-.45,5.84,3.38,9.55,9.55,12.59,16.62,5.1,11.9,8.25,26.34,16.22,34.31,12.71,12.71,41.87,13.16,50.93,28.82,8.93,15.43-5.17,40.87-.45,58.5,4.55,17.04,29.61,31.97,29.61,50.44s-25.06,33.41-29.61,50.44c-4.71,17.63,9.38,43.07,.45,58.5Z" style="fill:#92e2f5;"></path><polygon points="184.44 301.51 104.81 221.87 136.55 190.13 184.44 238.02 299.13 123.34 330.87 155.08 184.44 301.51" style="fill:#173c56;"></polygon><path d="M406.52,326.79c-9.06,15.66-38.22,16.11-50.93,28.82-12.71,12.7-13.16,41.87-28.82,50.92-15.43,8.93-40.86-5.16-58.49-.45-17.04,4.56-31.97,29.62-50.45,29.62s-33.41-25.06-50.44-29.62c-17.63-4.71-43.06,9.39-58.5,.45-15.66-9.05-16.11-38.22-28.81-50.92-7.97-7.97-22.41-11.12-34.31-16.23L339.38,45.77c5.1,11.9,8.25,26.34,16.22,34.31,12.71,12.71,41.87,13.16,50.93,28.82,8.93,15.43-5.17,40.87-.45,58.5,4.55,17.04,29.61,31.97,29.61,50.44s-25.06,33.41-29.61,50.44c-4.71,17.63,9.38,43.07,.45,58.5Z" style="opacity:.1;"></path></g></g></g></svg>