<svg xmlns="http://www.w3.org/2000/svg" viewBox="0 0 384.28 381.86"><g id="a"></g><g id="b"><g id="c"><g id="d"><g id="e"><path d="M295.38,0V79.32c-.03,.28-.17,.53-.39,.7l-8.44,2.62V11.76l-6.47,2.01-47.57,14.74-58.24,17.93-62.88,19.41-62.48,19.28-39.13,12.02c-.74,.22-.96,.57-.96,1.36V248.23H375.4V72.85l-4.9,1.49-46.22,14.3-52.47,16.18c-11.98,3.72-24.01,7.3-35.94,11.19-10.4,3.37-19.63,9.61-26.63,18.02-5.46,6.45-9.36,14.06-11.41,22.26-3.12,12.22-.08,25.19,8.13,34.76,6.09,7.3,14.42,12.39,23.7,14.47,4.59,1.07,9.34,1.25,13.99,.52,7.36-1.18,14.3-4.19,20.2-8.75,6.28-4.84,11.42-10.99,15.09-18.02,2.85-5.21,4.88-10.83,5.99-16.66,.58-3.09,.95-6.22,1.09-9.36,.26-5.12,.35-10.28,.39-15.39v-26.5c0-.66,0-1.01,.83-1.18l8-2.4v28.51c0,4.98,0,9.93-.26,14.91-.13,8.88-1.93,17.66-5.29,25.89-2.59,6.24-6.12,12.05-10.45,17.23-5.34,6.49-11.99,11.79-19.5,15.57-4.17,2.01-8.58,3.48-13.12,4.37-3.96,.74-8.01,.96-12.02,.66-8.24-.67-16.19-3.38-23.13-7.87-7.41-4.51-13.54-10.85-17.8-18.41-2.32-4.27-3.93-8.9-4.77-13.69-.78-3.96-1.07-8-.87-12.02,.59-7.61,2.66-15.04,6.08-21.86,3.66-7.45,8.76-14.11,15-19.59,7.84-6.84,17.05-11.91,27.02-14.87l61.65-19.15,80.89-24.97,5.6-1.71v196.24H1.37c-1.4,0-1.31,0-1.31-1.22V113.25c-.04-7.13-.04-14.21-.04-21.43-.08-.48,.25-.93,.72-1h.02l55.49-17.14,65.24-20.16,48.4-14.82,54.31-16.83L294.16,.22l1.22-.22Z" style="fill:#898989;"></path><path d="M.01,279.45H5v34.98H25.02v4.37H.01v-39.35Z" style="fill:#898989;"></path><path d="M24.76,298.91c.82-10.5,10-18.34,20.49-17.52,10.5,.82,18.34,10,17.52,20.49-.78,9.93-9.07,17.59-19.04,17.58-10.58-.07-19.1-8.7-19.03-19.28,0-.43,.02-.85,.05-1.28Zm33.06,0c.75-7.74-4.92-14.62-12.66-15.37-7.74-.75-14.62,4.92-15.37,12.66-.09,.9-.09,1.81,0,2.71,0,10.1,5.99,16.13,13.99,16.13s14.04-6.08,14.04-16.13Z" style="fill:#898989;"></path><path d="M69.23,279.45h5.12v39.35h-5.12v-39.35Zm4.98,0h5.55l15.57,39.35h-5.55l-15.57-39.35Zm21.12,0h5.25v39.35h-5.25v-39.35Z" style="fill:#898989;"></path><path d="M107.05,279.45h13.12c13.6,0,20.86,7,20.86,19.28,0,13.12-7.48,20.16-20.11,20.16h-13.86v-39.44Zm12.77,34.98c10.58,0,16.13-4.81,16.13-15.74,0-9.97-5.6-14.78-16.13-14.87h-7.78v30.61h7.78Z" style="fill:#898989;"></path><path d="M145.97,298.91c.82-10.5,10-18.34,20.49-17.52,10.5,.82,18.34,10,17.52,20.49-.78,9.92-9.05,17.57-18.99,17.58-10.58-.04-19.12-8.65-19.07-19.23,0-.44,.02-.88,.05-1.32Zm33.06,0c.75-7.74-4.92-14.62-12.66-15.37-7.74-.75-14.62,4.92-15.37,12.66-.09,.9-.09,1.81,0,2.71,0,10.1,5.99,16.13,13.99,16.13s14.04-6.08,14.04-16.13Z" style="fill:#898989;"></path><path d="M190.4,279.45h5.03v39.35h-5.03v-39.35Zm5.03,0h5.73l15.57,39.35h-5.73l-15.57-39.35Zm21.12,0h5.03v39.35h-5.03v-39.35Z" style="fill:#898989;"></path><path d="M249.86,279.45h16.13c7.26,0,11.46,2.97,11.46,9.79,0,5.82-2.49,8.44-7.26,9.18,4.97,.11,8.98,4.09,9.14,9.05,.22,6.13-4.56,11.28-10.69,11.51-.64,.02-1.27,0-1.9-.09h-16.88v-39.44Zm15.35,16.83c4.37,0,7.26-2.06,7.26-6.52s-2.84-5.9-7.04-5.9h-10.54v12.42h10.32Zm2.01,18.19c3.39,.53,6.56-1.79,7.09-5.18,.08-.54,.1-1.1,.04-1.64,0-4.37-2.8-6.95-8.13-6.95h-11.33v13.77h12.33Z" style="fill:#898989;"></path><path d="M285.81,279.45h27.81v4.37h-22.78v12.42h18.63v4.37h-18.63v13.77h22.78v4.37h-27.81v-39.31Z" style="fill:#898989;"></path><path d="M320.31,279.45h27.81v4.37h-22.83v12.42h18.63v4.37h-18.63v13.77h22.83v4.37h-27.81v-39.31Z" style="fill:#898989;"></path><path d="M378.68,318.9l-9.93-17.49h-8.75v17.49h-5.25v-39.35h17.23c6.04-.53,11.36,3.93,11.9,9.97,.03,.39,.05,.79,.04,1.18,.58,5.31-3.25,10.08-8.56,10.66-.34,.04-.68,.06-1.02,.06l9.93,17.49h-5.6Zm-18.89-21.86h11.19c5.12,0,7.96-2.4,7.96-6.52s-2.84-6.73-8.35-6.73h-10.8v13.25Z" style="fill:#898989;"></path><path d="M137.66,341.85h27.81v4.37h-22.83v12.33h18.63v4.37h-18.63v18.23h-4.98v-39.31Z" style="fill:#898989;"></path><path d="M176.75,341.85h4.68l-8.75,24.53h17.49l-8.75-24.53h4.98l13.86,39.35h-4.98l-3.85-10.54h-20.07l-3.67,10.54h-5.03l14.08-39.35Z" style="fill:#898989;"></path><path d="M201.15,361.31c0-11.81,7.26-19.98,18.15-19.98,7.3-.4,13.86,4.44,15.61,11.54l-5.07,1.31c-.91-5.04-5.38-8.65-10.49-8.48-8.75,0-13.12,6.95-13.12,15.61,0,10.93,7.39,16.09,13.38,16.09,4.92,.4,9.41-2.79,10.67-7.56l4.98,1.4c-2.26,6.56-8.55,10.86-15.48,10.58-14.95,.04-18.63-12.02-18.63-20.51Z" style="fill:#898989;"></path><path d="M253.01,346.27h-15.3v-4.37h35.59v4.37h-15.3v34.98h-4.98v-34.98Z" style="fill:#898989;"></path><path d="M274.17,361.35c.8-10.5,9.95-18.36,20.45-17.57,10.5,.8,18.36,9.95,17.57,20.45-.75,9.94-9.03,17.62-19,17.62-10.58-.05-19.11-8.66-19.07-19.24,0-.42,.02-.85,.05-1.27Zm33.01,0c.75-7.74-4.92-14.62-12.66-15.37-7.74-.75-14.62,4.92-15.37,12.66-.09,.9-.09,1.81,0,2.71,0,10.1,5.99,16.09,14.04,16.09s13.99-6.08,13.99-16.09Z" style="fill:#898989;"></path><path d="M342.52,381.34l-9.97-17.49h-8.96v17.49h-4.98v-39.35h17.18c6.04-.53,11.36,3.93,11.9,9.97,.03,.39,.05,.79,.04,1.18,.6,5.3-3.21,10.09-8.51,10.69-.34,.04-.68,.06-1.02,.06l9.88,17.49-5.55-.04Zm-18.93-21.86h11.19c5.12,0,7.96-2.36,7.96-6.52s-2.84-6.73-8.35-6.73h-10.8v13.25Z" style="fill:#898989;"></path><path d="M364.69,366.34l-14.39-24.49h5.55l11.46,19.76,11.33-19.76h5.6l-14.6,24.49v15h-4.94v-15Z" style="fill:#898989;"></path></g></g></g></g></svg>