<svg xmlns="http://www.w3.org/2000/svg" viewBox="0 0 490.43 125.91"><g id="a"></g><g id="b"><g id="c"><g id="d"><g id="e"><path d="M224.96,78.9c.32-.28,.74-.46,.92-.83,1.66-3.18,3.32-6.37,4.85-9.6,.29-1.05,.46-2.14,.51-3.23,0-1.02,.37-2.03,.65-3,.47-1.74,1.71-3.17,3.37-3.88,.7-.34,1.42-.62,2.17-.83,.82-.16,1.51-.69,1.89-1.43l6.23-11.31c1.02-1.8,1.98-3.6,3.05-5.35,.35-.59,.75-1.15,1.2-1.66,.79-1,2.24-1.17,3.24-.38,.3,.23,.53,.54,.68,.88,.64,1.45,.8,3.07,.46,4.61-.52,3.21-1.74,6.26-3.55,8.95-1.8,2.95-3.78,5.81-5.58,8.81-.88,1.43-1.52,3-2.26,4.61-.42,.78-.42,1.71,0,2.49,1.13,2.28,2.7,4.32,4.61,6,.29,.25,.61,.46,.97,.6,.76,.42,1.71,.25,2.26-.42,2.45-2.54,4.61-5.26,7.38-7.66,2.67-2.68,5.19-5.5,7.57-8.44,.14-.11,.24-.26,.32-.42,1.43-2.81,5.72-1.8,6.78,.6,.98,2.37,1.6,4.88,1.85,7.43,.28,1.98,.42,3.97,.6,6-.03,.94,.72,1.73,1.66,1.75,.2,0,.41-.03,.6-.09,1.6-.4,3.14-.97,4.61-1.71,2.74-1.67,5.31-3.62,7.66-5.81,2.79-2.64,5.36-5.51,7.66-8.58,1.82-2.14,3.37-4.5,4.61-7.01,0-.32,.28-.65,.51-1.11h-8.63c-.67-.02-1.32-.16-1.94-.42-.84-.32-1.39-1.13-1.38-2.03-.1-1.76,.1-3.52,.6-5.21,.26-1.4,1.6-2.33,3-2.08,1.89,0,3.78,.42,5.68,.51s4.15,0,6.23,0c.91,.06,1.77-.41,2.21-1.2,.65-1.15,1.2-2.31,1.8-3.41s1.34-2.72,2.17-4.01c.53-.85,1.49-1.35,2.49-1.29,1.11-.06,2.12,.67,2.4,1.75,.18,.82,.18,1.67,0,2.49-.37,1.66-1.02,3.28-1.52,4.94l-.28,.97,4.94-.46,5.54-.65c.6-.13,1.19,.24,1.32,.84,0,.03,.01,.06,.02,.08,.53,1.56,.78,3.2,.74,4.85-.05,.96-.18,1.92-.37,2.86-.23,1.06-.6,1.29-1.66,1.34l-12.23,.42h-.51c-.88,3.37-1.8,6.74-2.68,10.11-1.42,5.23-2.51,10.55-3.28,15.92,0,1.11-.23,2.17-.28,3.28,.02,.35,.17,.68,.42,.92,0,0,.55,0,.74-.28,2.91-2.26,5.81-4.61,8.77-6.83,1.49-1.05,3.03-2.02,4.61-2.91,.92-.44,1.69-1.15,2.21-2.03,1.86-3.37,4.37-6.33,7.38-8.72,3.19-2.47,6.98-4.06,10.98-4.61,2.53-.32,5.09,.1,7.38,1.2,1.84,.74,2.95,2.64,2.68,4.61,.04,1.79-.34,3.56-1.11,5.17-.39,.83-1.17,1.42-2.08,1.57-.31,.1-.65-.07-.76-.38-.01-.04-.02-.08-.03-.13-.66-2.18-2.82-3.56-5.08-3.23-1.13,.1-2.23,.43-3.23,.97-1.35,.71-2.58,1.63-3.65,2.72-2.7,2.86-4.48,6.46-5.12,10.34-.12,.7-.12,1.42,0,2.12,.06,1.86,1.61,3.32,3.47,3.26,.12,0,.24-.01,.36-.03,1.21-.06,2.39-.32,3.51-.78,1.62-.73,3.17-1.63,4.61-2.68,4.61-3.28,8.86-6.69,13.24-10.11,1.29-1.06,2.49-2.31,3.69-3.51,.92-.99,1.57-2.19,1.89-3.51,1.15-3.88,2.4-7.75,3.78-11.58,1.64-4.8,3.73-9.43,6.23-13.84,3.57-6.59,8.22-12.53,13.75-17.58,.74-.53,1.51-1.03,2.31-1.48,2.4-1.49,5.56-.75,7.05,1.65,.31,.5,.53,1.05,.65,1.62,.33,1.89,.22,3.83-.32,5.68-3.07,12.3-8.93,23.73-17.12,33.41-2.54,3-5.21,5.91-7.84,8.81-.41,.43-.69,.95-.83,1.52-.79,3.27-1.29,6.61-1.48,9.97-.06,.26-.06,.53,0,.78,.64-.73,1.22-1.5,1.75-2.31,1.7-2.87,3.24-5.82,4.61-8.86,.79-2.02,1.93-3.88,3.37-5.49,.69-.76,1.5-1.4,2.4-1.89,.91-.62,2.14-.38,2.76,.52,.1,.15,.18,.32,.24,.49,.51,1.22,.88,2.49,1.11,3.78,.28,1.48,.28,3,.46,4.61,.11,.63,.34,1.22,.69,1.75,.52,1.16,1.89,1.67,3.05,1.15,3.26-.94,6.37-2.34,9.23-4.15,.75-.39,1.24-1.14,1.29-1.98,.43-5.23,2.01-10.3,4.61-14.86,.99-1.81,2.36-3.38,4.01-4.61,2.83-2.18,6.69-2.43,9.78-.65,1.88,.96,2.86,3.07,2.4,5.12-.46,2.81-1.54,5.49-3.14,7.84-2.29,3.54-4.93,6.83-7.89,9.83-.58,.58-.89,1.39-.83,2.21,.03,1.15,.76,2.16,1.85,2.54,1.75,.85,3.81,.76,5.49-.23,1.88-1.01,3.59-2.3,5.08-3.83,2.58-2.81,4.98-5.72,7.48-8.63,1.8-2.12,3.6-4.29,5.45-6.41,1.23-1.58,3.01-2.64,4.98-2.95,2.15-.65,4.41,.57,5.06,2.71,.15,.51,.21,1.05,.15,1.58,.04,2.01-.27,4.01-.92,5.91-1.02,3.51-2.17,6.97-3.28,10.47,.01,.12,.01,.25,0,.37l4.01-5.26c1.61-2.12,3.52-3.98,5.68-5.54,1.07-.67,2.2-1.24,3.37-1.71,2.84-.98,5.94,.52,6.93,3.37,.03,.09,.06,.19,.09,.28,.92,2.81,1.89,5.63,2.86,8.44,.17,.6,.42,1.17,.74,1.71,.4,.65,1.26,.85,1.91,.45,.18-.11,.33-.27,.45-.45l1.02-1.11c.6,1.57,1.25,3.09,1.85,4.61,.6,1.52,.69,1.75-.69,2.95s-2.17,1.98-3.28,2.91c-1.66,1.52-4.13,1.74-6.04,.55-.88-.6-1.64-1.37-2.21-2.26-1.63-2.27-2.79-4.84-3.41-7.57-.23-.88-.37-1.8-.55-2.72s-.51-1.06-1.43-.69c-1.96,.89-3.71,2.2-5.12,3.83-2.81,2.95-5.54,6-8.35,9.23l-3.55,3.78c-1.31,1.29-3.22,1.76-4.98,1.25-.92-.2-1.6-.99-1.66-1.94-.14-2.65,.24-5.3,1.11-7.8,.78-2.72,1.52-5.45,2.31-8.17,0-.69,.46-1.38,.65-2.12,.15-.49,.27-.98,.37-1.48-.34,.11-.67,.26-.97,.46-.55,.46-1.06,1.02-1.57,1.52l-5.17,5.63c-1.43,1.57-2.86,3.14-4.61,4.61-2.08,2.12-4.88,3.39-7.84,3.55-3.49,.21-6.89-1.18-9.23-3.78-1.01-1.08-1.95-2.22-2.81-3.41-.28-.33-.53-.69-.74-1.06-.51,.37-.97,.65-1.38,1.02-2.97,2.5-6.5,4.22-10.29,5.03-1.39,.35-2.83,.44-4.25,.28-1.96-.06-3.73-1.2-4.61-2.95-.42-.78-.88-1.52-1.34-2.35-.02,.12-.02,.25,0,.37-2.36,4.59-5.48,8.76-9.23,12.32-1.39,1.29-3.3,1.85-5.17,1.52-1.19-.24-2.19-1.05-2.68-2.17-.74-1.57-1.11-3.29-1.06-5.03,.17-3.08,.8-6.11,1.89-9,.07-.41,.07-.83,0-1.25-.56,.35-1.09,.75-1.57,1.2-.92,.88-1.89,1.75-2.77,2.68-2.87,3.08-6.05,5.85-9.51,8.26-2.43,1.73-5.15,3.03-8.03,3.83-2.47,.65-5.02,.92-7.57,.78-2.51-.19-4.79-1.56-6.14-3.69-1.3-2.04-2-4.41-2.03-6.83v-2.68c-1.2,.92-2.31,1.66-3.37,2.54-2.86,2.35-5.68,4.61-8.54,7.2-1.74,1.57-3.88,2.62-6.18,3.05-.96,.16-1.94,.16-2.91,0-2.15-.42-3.59-2.45-3.28-4.61-.22-4.09,.02-8.19,.74-12.23,.6-2.72,1.15-5.4,1.75-8.03h0c-3.77,4.4-7.86,8.52-12.23,12.32-2.76,2.5-5.74,4.74-8.91,6.69-1.98,1.07-4.27,1.38-6.46,.88-2.35-.27-4.38-1.79-5.31-3.97-1.25-2.68-2.12-5.52-2.58-8.44,0-.78-.28-1.57-.46-2.35s-.51-.97-1.15-.51c-.72,.53-1.37,1.15-1.94,1.85-2.9,3.88-6.46,7.23-10.52,9.87-.74,.46-1.57,.83-2.35,1.25-1.51,.76-3.32,.64-4.71-.32-1.35-.95-2.65-1.97-3.88-3.05-1.48-1.25-2.86-2.58-4.61-3.92-.19,.32-.41,.63-.65,.92-2.75,4.12-5.84,8.01-9.23,11.63-1.06,1.07-2.22,2.02-3.46,2.86-2.14,1.38-5,.77-6.38-1.38-.1-.15-.19-.31-.27-.47-.46-1.07-.71-2.21-.74-3.37,0-4.68,.64-9.34,1.89-13.84,.51-2.03,.69-4.15,1.11-6.18s.88-4.11,1.34-6.14c4.28-18.02,10.17-35.63,17.58-52.6,.55-1.38,1.25-2.68,1.94-4.01,.52-1.32,1.99-1.99,3.32-1.52,1.45,.36,2.63,1.39,3.18,2.77,.8,2.04,1.1,4.24,.88,6.41-.35,4.43-1.41,8.78-3.14,12.87-1.71,4.61-3.55,9.23-5.63,13.34-2.66,5.8-4.82,11.82-6.46,18l-5.72,21.09c0,.74-.28,1.48-.42,2.21l.18,.05Zm146.28-23.63l.37,.23c.92-.83,1.8-1.71,2.63-2.63,5.46-6.37,10.02-13.44,13.57-21.04,.32-.75,.6-1.52,.83-2.31,.27-.78-.09-1.63-.83-1.98-.78-.37-1.29,0-1.71,.65-.79,.89-1.5,1.85-2.12,2.86-3.09,4.89-6.14,9.78-9.23,14.72-1.44,2.24-2.53,4.68-3.23,7.24-.14,.75-.23,1.5-.28,2.26Zm40.79,.74c-.3,.04-.59,.12-.88,.23-.67,.43-1.29,.94-1.85,1.52-1.52,1.79-2.74,3.82-3.6,6-.16,.37-.27,.76-.32,1.15,3.11-2.18,5.44-5.3,6.64-8.91Z" style="fill:#898989;"></path><path d="M97.83,50.02h-9.74c-1.24-.33-2.4-.91-3.41-1.71-.32-.33-.49-.78-.46-1.25,.07-1.8,.28-3.59,.65-5.35,.16-1.62,1.61-2.81,3.23-2.64,.12,.01,.25,.03,.37,.06,4.05,.36,8.12,.52,12.18,.46,.68,.07,1.33-.28,1.66-.88,.55-.97,1.06-1.94,1.57-2.95s1.34-2.86,2.17-4.2c.64-1.18,1.88-1.91,3.23-1.89,1.73,0,3.15,1.39,3.15,3.12,0,.11,0,.23-.02,.34-.06,1.25-.26,2.49-.6,3.69-.17,.8-.4,1.59-.69,2.35h11.44c1.2,0,1.75,.46,1.94,1.66,.27,2.37,.15,4.77-.37,7.11-.28,1.2-.78,1.52-1.94,1.62l-13.01,.92-2.54,.32c-.2,.08-.36,.25-.42,.46-1.43,5.45-2.91,10.84-4.15,16.34-.78,3.46-1.2,6.97-1.71,10.47,0,1.11,0,1.25,1.15,1.15,.72,.02,1.44-.19,2.03-.6,3-2.68,6.04-5.26,9.23-7.98,1.02-.88,1.85-1.98,2.77-2.95,3.61-4.15,8.04-7.49,13.01-9.83,3.12-1.51,6.62-2.09,10.06-1.66,2.13,.3,4,1.56,5.08,3.41l.51-.28,7.89-5.68c1.31-.91,2.78-1.55,4.34-1.89,2.15-.29,4.28,.72,5.4,2.58,.65,1.57,1.34,3.18,1.85,4.61s1.25,4.61,1.89,6.88c0,.88,.6,1.75,.92,2.68h.23c4.2-5.81,8.81-11.44,12.51-17.58l2.17-3.46c.46-1.02,1.66-1.47,2.68-1.02,1.25,.45,2.46,.97,3.65,1.57,1.48,.74,1.75,1.66,1.06,3.18-2.92,6.22-6.59,12.07-10.94,17.4-2.4,3-4.89,5.95-7.34,8.95-.32,.29-.43,.75-.28,1.15,1.05,3.18,2.36,6.26,3.92,9.23,.38,1.08,1.57,1.65,2.65,1.26,.27-.09,.51-.24,.72-.43l2.95-2.03c1.06,1.75,2.12,3.41,3.09,5.12,.07,.21,.07,.44,0,.65-2.12,4.68-7.57,6.84-12.32,4.89-1.33-.56-2.44-1.55-3.14-2.81-1.25-2.45-2.4-4.94-3.6-7.43,0-.51-.46-1.06-.74-1.57-.23-.46-.78-.64-1.24-.41-.05,.03-.1,.06-.15,.09-.39,.24-.75,.54-1.06,.88l-32.81,34.52c-1.52,1.57-3.18,3-4.61,4.61-.74,.63-1.77,.81-2.68,.46-1.68-.61-3.12-1.74-4.11-3.23-.53-.66-.53-1.6,0-2.26,.72-1,1.51-1.96,2.35-2.86,5.45-5.68,10.94-11.26,16.34-16.98,7.43-7.94,14.54-15.64,21.78-23.44,.42-.42,.78-.92,1.2-1.34,.47-.42,.59-1.11,.28-1.66-1.48-3.46-2.91-6.97-4.29-10.43,0-.32,0-.69-.37-1.11-.74,.37-1.43,.65-2.08,1.02-1.8,1.11-3.55,2.26-5.31,3.41-.22,.18-.33,.46-.32,.74,.29,3.96-.86,7.89-3.23,11.07-3.33,4.86-7.72,8.92-12.83,11.86-4.5,2.93-10.51,1.74-13.57-2.68-1.75-1.88-2.64-4.41-2.45-6.97,0-.65,0-1.29,.32-2.17-.28,.28-.51,.42-.65,.6l-9.23,8.54c-1.82,1.73-3.87,3.21-6.09,4.38-1.7,.94-3.69,1.22-5.58,.78-.63-.17-1.2-.51-1.66-.97-1.01-1.09-1.56-2.53-1.52-4.01-.25-5.79,.34-11.59,1.75-17.21,0-.32,0-.65,.23-1.06-.83,.83-1.62,1.52-2.35,2.31-2.31,2.31-4.61,4.61-6.83,6.92-1.95,1.89-4.02,3.66-6.18,5.31-3.26,2.45-7.36,3.5-11.4,2.91-2.23-.31-4.15-1.73-5.08-3.78-.65-1.29-1.2-2.68-1.8-4.06-1.15,.51-2.26,.97-3.32,1.52-3.34,1.88-7.03,3.05-10.84,3.41-2.58,.22-5.16-.46-7.29-1.94-1.43-1.02-2.43-2.53-2.81-4.25l-1.8-7.2-.32,.69c-4.06,9.5-11.51,17.15-20.9,21.46-2.75,1.02-5.83,.61-8.21-1.11-2.41-1.8-3.53-4.86-2.86-7.8,.93-3.95,2.27-7.78,4.01-11.44,2.89-6.33,6.82-12.14,11.63-17.17,2.45-2.77,5.03-5.45,7.66-8.12,2.58-2.66,5.63-4.82,9-6.37,.98-.4,1.71-1.24,1.98-2.26,1.11-3.78,2.12-7.57,3.37-11.31,.89-2.67,1.93-5.28,3.09-7.84,2.49-5.2,4.98-10.41,7.48-15.64,.72-1.8,2.19-3.19,4.01-3.83,1.48-.55,3.13,.21,3.68,1.69,.07,.2,.13,.41,.15,.62,.16,1.25-.02,2.53-.51,3.69-2.4,6.88-4.61,13.84-7.15,20.63-1.8,5.68-3.51,10.98-4.98,16.47-1.67,6.39-2.49,12.96-2.45,19.57-.03,1.7,.3,3.38,.97,4.94,.8,1.78,1.69,3.52,2.68,5.21,.74,1.65,2.68,2.39,4.33,1.65,.21-.1,.42-.22,.61-.36l4.61-2.72,1.06-.74c1.33-.87,2.19-2.29,2.35-3.88,.49-3.82,1.8-7.48,3.83-10.75,1.21-2.46,2.91-4.66,4.98-6.46,2.01-1.84,4.73-2.7,7.43-2.35,3.7,.35,6.42,3.64,6.07,7.34-.04,.39-.11,.77-.21,1.15-.65,3.64-2.41,6.99-5.03,9.6-2.31,2.17-4.61,4.61-6.69,6.64-.76,.63-1.07,1.64-.78,2.58,.12,.58,.43,1.09,.88,1.48,1.31,1.01,3.02,1.34,4.61,.88,2.12-.58,4.09-1.62,5.77-3.05,3.28-2.87,6.36-5.95,9.23-9.23,3.45-4.21,6.54-8.7,9.23-13.43l.74-1.34ZM27.6,58.32h0c-.97,.29-1.9,.69-2.77,1.2-1.45,1.09-2.79,2.31-4.01,3.65-3.41,4.07-6.28,8.57-8.54,13.38-.44,.88-.72,1.84-.83,2.81-.23,1.25,.46,1.98,1.75,1.85,.71-.04,1.41-.25,2.03-.6,1.06-.58,2.05-1.28,2.95-2.08,4.23-4,7.81-8.64,10.61-13.75,.58-1.05,.99-2.19,1.2-3.37,.5-1.12,0-2.43-1.11-2.93-.4-.18-.85-.24-1.29-.16Zm95.29,19.2c0,2.58,1.38,3.83,3.55,3.46,.76-.16,1.49-.44,2.17-.83,2.08-1.17,3.91-2.74,5.4-4.61,1.16-1.35,2.04-2.92,2.58-4.61,.56-1.14,.09-2.53-1.05-3.09-.35-.17-.73-.25-1.12-.23-1.17-.12-2.34,.12-3.37,.69-2.36,1.09-4.47,2.66-6.18,4.61-1.14,1.29-1.83,2.9-1.98,4.61Zm-58.42-11.35c.44-.19,.85-.42,1.25-.69,.88-.74,1.75-1.43,2.54-2.21,1.75-1.74,3.05-3.88,3.78-6.23,.03-.41,.03-.83,0-1.25-4.07,2.01-6.9,5.89-7.57,10.38Z" style="fill:#898989;"></path><path d="M267.42,43.51c.1-.34,.24-.66,.42-.97,1.52-3.9,4.34-7.16,7.98-9.23,1.14-.62,2.51-.62,3.65,0,.81,.44,1.21,1.37,.97,2.26-.55,2.31-1.06,4.61-1.8,6.83-.74,1.93-2.1,3.55-3.88,4.61-1.2,.77-2.66,1.03-4.06,.74-1.41-.13-2.56-1.16-2.86-2.54-.32-.55-.32-1.06-.42-1.71Z" style="fill:#898989;"></path><path d="M485.82,83.61c-2.42-.13-4.27-2.19-4.15-4.61,.13-2.42,2.19-4.27,4.61-4.15,2.34,.12,4.17,2.07,4.15,4.42-.02,2.42-2,4.37-4.42,4.34-.06,0-.13,0-.19,0Z" style="fill:#898989;"></path></g></g></g></g></svg>