<svg xmlns="http://www.w3.org/2000/svg" viewBox="0 0 444.29 444.31"><g id="a"></g><g id="b"><g id="c"><g><g><path d="M444.29,222.17c0,122.67-99.45,222.14-222.14,222.14-60.98,0-116.22-24.59-156.35-64.36C25.16,339.69,0,283.88,0,222.17,0,99.48,99.45,0,222.14,0c61.74,0,117.57,25.19,157.83,65.82,39.77,40.13,64.31,95.4,64.31,156.35Z" style="fill:#173c56;"></path><path d="M222.14,358.44c-92.26,0-167.31-75.06-167.31-167.31,0-4.02,3.26-7.28,7.28-7.28s7.28,3.26,7.28,7.28c0,84.23,68.53,152.76,152.76,152.76s152.76-68.53,152.76-152.76c0-4.02,3.26-7.28,7.28-7.28s7.28,3.26,7.28,7.28c0,92.26-75.06,167.31-167.31,167.31Z" style="fill:#92e2f5;"></path><ellipse cx="169.12" cy="139.78" rx="24.35" ry="52.39" style="fill:#92e2f5;"></ellipse><ellipse cx="265.44" cy="139.78" rx="24.35" ry="52.39" style="fill:#92e2f5;"></ellipse></g><path d="M444.29,222.17c0,122.67-99.45,222.14-222.14,222.14-60.98,0-116.22-24.59-156.35-64.36l60.59-60.59,130.54-130.49,31.43-31.45,91.63-91.6c39.77,40.13,64.31,95.4,64.31,156.35Z" style="opacity:.1;"></path></g></g></g></svg>